/* XPM */
static char *_640985601277[] = {
/* columns rows colors chars-per-pixel */
"100 100 2 1 ",
"  c black",
". c None",
/* pixels */
"....................................................................................................",
"....................................................................................................",
"....................................................................................................",
"....................................................................................................",
"....................................................................................................",
"....................................................................................................",
"....................................................................................................",
"......................................                                           ...................",
"....................................                                              ..................",
"....................................                                              ..................",
"....................................                                              ..................",
"....................................                                              ..................",
"....................................    ......................................    ..................",
"....................................    ......................................    ..................",
"....................................    ......................................    ..................",
"....................................    ......................................    ..................",
"....................................    ......................................    ..................",
"....................................    ......................................    ..................",
"....................................    ......................................    ..................",
"....................................    .............. .......................    ..................",
"....................................    ...........       ....................    ..................",
"....................................    .........          ...................    ..................",
"....................................    ........            ..................    ..................",
"....................................    ........    .....    .................    ..................",
"....................................    .......   ........   .................    ..................",
"....................................    .......   .........   ................    ..................",
"....................................    .......  ..........   ................    ..................",
"....................................    ......   ...........  ................    ..................",
"....................................    ......   ...........  ................    ..................",
"....................................    ......   ...........  ................    ..................",
"..............................................   ..........   ................    ..................",
"...............................................   .........   ................    ..................",
"...............................................   .........   ................    ..................",
"..........................                   ..    .......   .................    ..................",
"..........................                    ..    ....     .................    ..................",
"..........................                     ..           ..................    ..................",
"..........................  ................     .         ...................    ..................",
"..........................  .................     .      .....................    ..................",
"..........................  ..................     ...........................    ..................",
"..........................  ....................    ..........................    ..................",
"..........................  .....      ..........    .........................    ..................",
"..........................  ....        ..........   .........................    ..................",
"..........................  ....        ...........  .........................    ..................",
"..........................  ....   .   ............  .........................    ..................",
"..........................  ....      .............  .........................    ..................",
"..........................  ....      .............  .........................    ..................",
"..........................  ....     ..............  .........................    ..................",
"..........................  ....     ..............   ........................    ..................",
"..........................  ....    ...............           ................    ..................",
"..........................  ....   ................            ...............    ..................",
"..........................  ...    ........... ....            ...............    ..................",
"..........................        ...........   ............   ...............    ..................",
"..........................        ..........    ............   ...............    ..................",
"..........................       ...........    ............   ...............    ..................",
".............................   ...........     ............   ...............    ..................",
".............................   ..........                     ...............    ..................",
".............................   ..........                     ...............    ..................",
".............................   .........                     ................    ..................",
".............................   .........    .................................    ..................",
".............................   ..........    ................................    ..................",
".............................   ...........     ..............................    ..................",
".............................   ............     .............................    ..................",
".............................   .............     ............................    ..................",
".............................   .....  ........    ...........................    ..................",
".............................   ....    ........    ..........................    ..................",
".............................   ....     ........   ..........................    ..................",
"..................              ....       .......  ..........................    ..................",
"..................              ....        ......  ..........................    ..................",
"..................              ....   .     .....  ..........................    ..................",
"..................   ...............   ...    ....  ..........................    ..................",
"..................   ...............   ....   ....  ..........................    ..................",
"..................   ...............   ....   ....  ..........................    ..................",
"..................   ...............   ....   ....  ..........................    ..................",
"..................   ...............   ....   ....  ..........................    ..................",
"..................                     ....   ....  ..........................    ..................",
"..................                     ....   ....  ..........................    ..................",
"..................                     ....   ....  ..........................    ..................",
"...........................................   ....  ..........................    ..................",
"...........................................   ....  ..........................    ..................",
"...........................................   ....  ..........................    ..................",
"...........................................   ....  ..........................    ..................",
"....................................    ...   ...   ..........................    ..................",
"....................................    ...         ..........................    ..................",
"....................................    ...         ..........................    ..................",
"....................................    ....        ..........................    ..................",
"....................................    ......................................    ..................",
"....................................    ......................................    ..................",
"....................................    ......................................    ..................",
"....................................                                              ..................",
"....................................                                              ..................",
"....................................                                              ..................",
"....................................                                              ..................",
".....................................                                            ...................",
"....................................................................................................",
"....................................................................................................",
"....................................................................................................",
"....................................................................................................",
"....................................................................................................",
"....................................................................................................",
"...................................................................................................."
};
