/* XPM */
static char *_640985749551[] = {
/* columns rows colors chars-per-pixel */
"100 100 87 1 ",
"  c #1F212B",
". c #21232D",
"X c #242631",
"o c #262934",
"O c #282B36",
"+ c #2B2E39",
"@ c #2E313D",
"# c #30333E",
"$ c #323541",
"% c #363A46",
"& c #383C46",
"* c #373C49",
"= c #393D49",
"- c #3C414E",
"; c #3E4351",
": c #40434E",
"> c #414653",
", c #444A57",
"< c #474B58",
"1 c #494F5C",
"2 c #4D525E",
"3 c #4D5360",
"4 c #505664",
"5 c #535865",
"6 c #545B6B",
"7 c #595E6C",
"8 c #5C616E",
"9 c #5A6272",
"0 c #5E6778",
"q c #5F6879",
"w c #606573",
"e c #616876",
"r c #626B7C",
"t c #696F7D",
"y c #646D80",
"u c #677083",
"i c #6C7484",
"p c #6C7689",
"a c #6F798C",
"s c #737987",
"d c #737C8B",
"f c #737E92",
"g c #77808F",
"h c #79818F",
"j c #768195",
"k c #7C8594",
"l c #7A869B",
"z c #7C889D",
"x c #7F8BA0",
"c c #808795",
"v c #818997",
"b c #838B99",
"n c #818DA3",
"m c #8491A6",
"M c #8B94A4",
"N c #8693A9",
"B c #8895AC",
"V c #8C98AD",
"C c #9199A7",
"Z c #929CAC",
"A c #8E9CB3",
"S c #919EB5",
"D c #94A1B7",
"F c #9BA5B5",
"G c #97A5BB",
"H c #98A6BC",
"J c #9DA9BC",
"K c #A1ACBE",
"L c #A1AEC4",
"P c #A6B2C5",
"I c #A9B3C4",
"U c #A5B2C8",
"Y c #AAB6C9",
"T c #AEBACC",
"R c #B0BCCE",
"E c #B1BDD0",
"W c #B6C0D1",
"Q c #BAC4D6",
"! c #BCC7D8",
"~ c #BFCBDD",
"^ c #C0CCDD",
"/ c #C4CFE1",
"( c #C4D0E1",
") c #CDD9EB",
"_ c #D1DCEE",
"` c #D3DFF1",
"' c None",
/* pixels */
"''''''''''''''''''''''''''''''''''''''''''''''''''''''''''''''''''''''''''''''''''''''''''''''''''''",
"''''''''''''''''''''''''''''''''''''''''''''''''''''''''''''''''''''''''''''''''''''''''''''''''''''",
"''''''''''''''''''''''''''''''''''''''''''''''''''''''''''''''''''''''''''''''''''''''''''''''''''''",
"''''''''''''''''''''''''''''''''''''''''''''''''''''''''''''''''''''''''''''''''''''''''''''''''''''",
"''''''''''''''''''''''''''''''''''''''''''''''''''''''''''''''''''''''''''''''''''''''''''''''''''''",
"''''''''''''''''''''''''''''''''''''''''''''''''   .''''''''''''''''''''''''''''''''''''''''''''''''",
"''''''''''''''''''''''''''''''''''''''''''''''' <JK5 '''''''''''''''''''''''''''''''''''''''''''''''",
"''''''''''''''''''''''''''''''''''''''''''''''' KEEP '''''''''''''''''''''''''''''''''''''''''''''''",
"''''''''''''''''''''''''''''''''''''''''''''''' EEEE '''''''''''''''''''''''''''''''''''''''''''''''",
"''''''''''''''''''''''''''''''''''''''''''''''' EEEE '''''''''''''''''''''''''''''''''''''''''''''''",
"''''''''''''''''''''''''''''''''''''''''''''''' EEEE '''''''''''''''''''''''''''''''''''''''''''''''",
"'''''''''''''''''''''''''''.24.'''''''''''''''' EEEE ''''''''''''''''.25.'''''''''''''''''''''''''''",
"''''''''''''''''''''''''''ok``C.''''''''''''''' EEEE '''''''''''''''ov``M.''''''''''''''''''''''''''",
"''''''''''''''''''''''''''O^``)7''''''''''''''' EEEE '''''''''''''''2)``^@''''''''''''''''''''''''''",
"''''''''''''''''''''''''''oK```W.'''''''''''''' EEEE ''''''''''''''.I_``IO''''''''''''''''''''''''''",
"''''''''''''''''''''''''''':````i.''''''''''....EEEE    ''''''''''.8````2'''''''''''''''''''''''''''",
"''''''''''''''''''''''''''' M_``!$''''''        EEEE        ''''''#W```F.'''''''''''''''''''''''''''",
"''''''''''''''''''''''''''''=^```M ''     @;9uaoEEEEoau9,@     ''.h```(:''''''''''''''''''''''''''''",
"''''''''''''''''''''''''''''.i_``_-.  X*qxAAAANoEEEEoNAAAAnr;.   $)```v.''''''''''''''''''''''''''''",
"'''''''''''''''''''''''''''''o!_``JX@9xAAAAAAAN*EEEE%NAAAAAAAN9$oC```^O'''''''''''''''''''''''''''''",
"''''''''''''''''''''''''''''''7)``)w9AAAAAAAAAAAAAAAAAAAAAAAAAAr4)_`)t '''''''''''''''''''''''''''''",
"''''''''''''''''''''''''''''''oF``_Q$xAAAAAAAAAAAAAAAAAAAAAAAAx$R```Io''''''''''''''''''''''''''''''",
"''''''''''''''''''''''''''''   -_```bpAAAAAAAAAAAAAAAAAAAAAAAAfd````<   ''''''''''''''''''''''''''''",
"''''''''''''''''''''''''''' ..9;b``(JAAAAAAAAAAAAAAAAAAAAAAAAAAG~``Z*rX .'''''''''''''''''''''''''''",
"''''''''''''''''''''''''''  @fAz&!UAAAAAAAAAAAAAAAAAAAAAAAAAAAAAALQ=jAj$  ''''''''''''''''''''''''''",
"'''''''''''''''''''''''''  @nAAAlSAAAAAAAAAAAAAAAAAAAAAAAAAAAAAAAAAlAAAm%  '''''''''''''''''''''''''",
"''''''''''''.  '''''''''  =nAAAAAAAAAAAAAAAAAAAAAAAAAAAAAAAAAAAAAAAAAAAAn;  '''''''''   ''''''''''''",
"'''''''''''.dIV< ''''''  $NAAAAAAAAAAAAAAAAAAAAAAAAAAAAAAAAAAAAAAAAAAAAAAB%  ''''''.>MPk.'''''''''''",
"'''''''''''>EEEEk% '''  @zAAAAAAAAAAAAAAAAAAAAAAAAAAAAAAAAAAAAAAAAAAAAAAAAn$. ''' @kREEE3'''''''''''",
"'''''''''''>EEEERTtO ' .fAAAAAAAAAAAAAAAAAAAAAAAAAAAAAAAAAAAAAAAAAAAAAAAAAAz..''oeYEEEEE3'''''''''''",
"'''''''''''.dREEEEEK5.X9AAAAAAAAAAB6oo5BAAAAAAAAAAAAAAAAAAAAB6oo4BAAAAAAAAAAr..2JREEEETk.'''''''''''",
"''''''''''''.:ZEEEEERZ-*jAAAAAAAAA63~(73AAAAAAAAAAAAAAAAAAAA62^(72AAAAAAAAAz-&VREEEETF,.''''''''''''",
"''''''''''''''.6LEEEEETl$aAAAAAAAA$W``Q#AAAAAAAAAAAAAAAAAAAA$W``Q@AAAAAAAAj#jTREEERP7.''''''''''''''",
"''''''''''''''''OtTEEEEEYSAAAAAAAA$W``Q#AAAAAAAAAAAAAAAAAAAA$E``Q@AAAAAAAASPEEREETd+ '''''''''''''''",
"''''''''''''''''' $kEEEEJAAAAAAAAA63^/83AAAAAAAAAAAAAAAAAAAA72^/93AAAAAAAAAGEERRM=.'''''''''''''''''",
"''''''''''''''''''  <ZEYAAAAAAAAAAA6oo4BAAAAAAAAAAAAAAAAAAAAB6OO4BAAAAAAAAAAPEF4  ''''''''''''''''''",
"'''''''''''''''''' +0+rDAAAAAAAAAAAAAAAAAAAAAAAAAAAAAAAAAAAAAAAAAAAAAAAAAAAASpO9+ ''''''''''''''''''",
"'''''''''''''''''  6ABaAAAAAAAAAAAAAAAAAAAAAAAAAAAAAAAAAAAAAAAAAAAAAAAAAAAAAAfmA0. '''''''''''''''''",
"''''''''''''''''' ozAAAAAAAAAAAAAAAAAAAAAAAAAAAAAAAAAAAAAAAAAAAAAAAAAAAAAAAASAAAno '''''''''''''''''",
"''''''''''''''''' -VAAAAAAAAAAAAAAAAAAAAAAAAAAAAAAAAAAAAAAAAAAAAAAAAAAAAAAAAAAAAV,.'''''''''''''''''",
"''''''''''''''''  9AAAAAAAAAAAAAAAAAAAAAAAAAAAAAAAAAAAAAAAAAAAAAAAAAAAAAAAAAAAAAAu  ''''''''''''''''",
"''''''''''''''''  xAAAAAAAAAAAAAAAAAAAAAAAAAAAAAAAAAAAAAAAAAAAAAAAAAAAAAAAAAAAAAAn  ''''''''''''''''",
"'''''''''''''''' +AAAA-%AAAA;*AAAA;%AAAA=*AAAA=*AAAA=*AAAA;*AAAA-%AAAA-*AAAA;*AAAA+ ''''''''''''''''",
"'''''''''''''''' ;AAAA-%AAAA=*AAAA=%AAAA;*AAAA;*AAAS=*AAAA=*AAAA-*AAAA-%AAAA-%AAAA1 ''''''''''''''''",
"'''''''''''''''' 6AAAAAAAAAAAAAAAAAAAAAAAAAAAAAAAAAAAAAAAAAAAAAAAAAAAAAAAAAAAAAAAA0  '''''''''''''''",
"'''''''''''''''  qAAAAAAAAAAAAAAAAAAAAAAAAAAAAAAAAAAAAAAAAAAAAAAAAAAAAAAAAAAAAAAAApX '''''''''''''''",
"''''''''''''''                  .                             .                       ''''''''''''''",
"'''''''''''''                                                                          '''''''''''''",
"''''''''''''. 4!````````````````````````````````````````````````````````````````````^9  ''''''''''''",
"''''''''''''  ^_`````````````````````````````````````````````````````````````````````/  ''''''''''''",
"'''''''''''' .^_`````````````````````````````````````````````````````````````````````(  ''''''''''''",
"'''''''''''' .5!````````````````````````````````````````````````````````````````````^w  ''''''''''''",
"'''''''''''''                                   .           .                   .      '''''''''''''",
"''''''''''''''                       .                                          .     ''''''''''''''",
"''''''''''''''' XqAAAAAAAAAAAAAAAAAAAAAAAAAAAAAAAAAAAAAAAAAAAAAAAAAAAAAAAAAAAAAAAAu. '''''''''''''''",
"'''''''''''''''' 4AAAAAAAAAAAAAAAAAAAAAAAAAAAAAAAAAAAAAAAAAAAAAAAAAAAAAAAAAAAAAAAAe..'''''''''''''''",
"'''''''''''''''' ;AAAA;*AAAA-*AAAA=*AAAA=*AAAA=*AAAA-%AAAA;*AAAA-*AAAA-%AAAA-%AAAA1 ''''''''''''''''",
"'''''''''''''''' OAAAA=*AAAA=*AAAA;*AAAA;*AAAA;*AAAA=*AAAA=*AAAA-%AAAA-%AAAA-%AAAA+ ''''''''''''''''",
"''''''''''''''''  zAAAAAAAAAAAAAAAAAAAAAAAAAAAAAAAAAAAAAAAAAAAAAAAAAAAAAAAAAAAAAAn. ''''''''''''''''",
"''''''''''''''''  9AAAAAAAAAAAAAAAAAAAAAAAAAAAAAAAAAAAAAAAAAAAAAAAAAAAAAAAAAAAAAAu  ''''''''''''''''",
"''''''''''''''''' -AAAAAAAAAAAAAAAAAAAAAAAAAAAAAAAAAAAAAAAAAAAAAAAAAAAAAAAAAAAAAV, '''''''''''''''''",
"''''''''''''''''' ozAAAAAAAAAAAAAAAAAAAAAAAAAAAAAAAAAAAAAAAAAAAAAAAAAAAAAAAAAAAAxo '''''''''''''''''",
"'''''''''''''''''  6ABaAAAAAAAAAAAAAAAAAAAAAAAAAAAAAAAAAAAAAAAAAAAAAAAAAAAAAAfmA0  '''''''''''''''''",
"'''''''''''''''''' O0+tDAAAAAAAAAAAAAAAAAAAAAAAAAAAAAAAAAAAAAAAAAAAAAAAAAAAASp+9@ ''''''''''''''''''",
"''''''''''''''''''  <ZEYAAAAAAAAAAB6Oo4BAAAAAAAAAAAAAAAAAAAAB6Oo5BAAAAAAAAAAUEF5 .''''''''''''''''''",
"''''''''''''''''' %kEEEEJAAAAAAAAA62^(73AAAAAAAAAAAAAAAAAAAA62^(73AAAAAAAAAHEEEEm=.'''''''''''''''''",
"'''''''''''''''.OtTREEEEYAAAAAAAAA$W``Q#AAAAAAAAAAAAAAAAAAAA$W``Q#AAAAAAAASPEEEEETs+ '''''''''''''''",
"''''''''''''''.5LEEEEETk$aAAAAAAAS$E``Q#AAAAAAAAAAAAAAAAAAAA$E``Q#AAAAAAAAf#hTEEERRP7X''''''''''''''",
"''''''''''''.;ZERREERZ;*jAAAAAAAAA93^/73AAAAAAAAAAAAAAAAAAAA64~/83AAAAAAAAAl-&VTEEEERF,.''''''''''''",
"'''''''''''.dTEEEEEK5..9AAAAAAAAAAN6Oo4BAAAAAAAAAAAAAAAAAAAAB6Oo4BAAAAAAAAAAr..2JEEEEERk.'''''''''''",
"'''''''''''>EEEEETtO'' .jAAAAAAAAAAAAAAAAAAAAAAAAAAAAAAAAAAAAAAAAAAAAAAAAAAlo ''oeTEEEEE2'''''''''''",
"''''''''''',EEEEk%.'''  @zAAAAAAAAAAAAAAAAAAAAAAAAAAAAAAAAAAAAAAAAAAAAAAAAx$  '''.@dEEEE3'''''''''''",
"'''''''''''.dYC< ''''''  $NAAAAAAAAAAAAAAAAAAAAAAAAAAAAAAAAAAAAAAAAAAAAAAN%  '''''' >MIk.'''''''''''",
"''''''''''''   '''''''''  *nAAAAAAAAAAAAAAAAAAAAAAAAAAAAAAAAAAAAAAAAAAAAN;  '''''''''  .''''''''''''",
"'''''''''''''''''''''''''  @xAAAlAAAAAAAAAAAAAAAAAAAAAAAAAAAAAAAAAAjAAAn%  '''''''''''''''''''''''''",
"''''''''''''''''''''''''''  @fAz*!UAAAAAAAAAAAAAAAAAAAAAAAAAAAAAALQ;jAj$  ''''''''''''''''''''''''''",
"'''''''''''''''''''''''''''  .9;b``/JAAAAAAAAAAAAAAAAAAAAAAAAAAG~``Z=rX  '''''''''''''''''''''''''''",
"''''''''''''''''''''''''''''  .-)```bpAAAAAAAAAAAAAAAAAAAAAAAAfd````<   ''''''''''''''''''''''''''''",
"''''''''''''''''''''''''''''''oF```Q$xAAAAAAAAAAAAAAAAAAAAAAAAn$E```Io''''''''''''''''''''''''''''''",
"''''''''''''''''''''''''''''''7)``)99AAAAAAAAAAAAAAAAAAAAAAAAAAy3)``)t.'''''''''''''''''''''''''''''",
"'''''''''''''''''''''''''''''oQ_``K.O7nAAAAAAAN%EEEE%NAAAAAAAN8@.C```^O'''''''''''''''''''''''''''''",
"''''''''''''''''''''''''''''.i```_=....*exAAAANoEEEEoNAAAAnr;. ..&_```v.''''''''''''''''''''''''''''",
"''''''''''''''''''''''''''''=^```M.''.    +>9uaoEEEEoau0>+    .''.h_``^:''''''''''''''''''''''''''''",
"''''''''''''''''''''''''''' M```!$''''''        EEEE        ''''''#Q``_K '''''''''''''''''''''''''''",
"'''''''''''''''''''''''''''>_```i.''''''''''    EEEE    ''''''''''.8````4'''''''''''''''''''''''''''",
"''''''''''''''''''''''''''OF```W.'''''''''''''' EEEE ''''''''''''''.I_``Io''''''''''''''''''''''''''",
"''''''''''''''''''''''''''O^``_7''''''''''''''' EEEE '''''''''''''''1)``^O''''''''''''''''''''''''''",
"''''''''''''''''''''''''''oc`_C.''''''''''''''' EEEE '''''''''''''''ob``Mo''''''''''''''''''''''''''",
"'''''''''''''''''''''''''''.42.'''''''''''''''' EEEE ''''''''''''''''.24.'''''''''''''''''''''''''''",
"''''''''''''''''''''''''''''''''''''''''''''''' EEEE '''''''''''''''''''''''''''''''''''''''''''''''",
"''''''''''''''''''''''''''''''''''''''''''''''' EEEE '''''''''''''''''''''''''''''''''''''''''''''''",
"''''''''''''''''''''''''''''''''''''''''''''''' EEEE '''''''''''''''''''''''''''''''''''''''''''''''",
"''''''''''''''''''''''''''''''''''''''''''''''' KRRL '''''''''''''''''''''''''''''''''''''''''''''''",
"''''''''''''''''''''''''''''''''''''''''''''''' 1KK6 '''''''''''''''''''''''''''''''''''''''''''''''",
"''''''''''''''''''''''''''''''''''''''''''''''''.   ''''''''''''''''''''''''''''''''''''''''''''''''",
"''''''''''''''''''''''''''''''''''''''''''''''''''''''''''''''''''''''''''''''''''''''''''''''''''''",
"''''''''''''''''''''''''''''''''''''''''''''''''''''''''''''''''''''''''''''''''''''''''''''''''''''",
"''''''''''''''''''''''''''''''''''''''''''''''''''''''''''''''''''''''''''''''''''''''''''''''''''''",
"''''''''''''''''''''''''''''''''''''''''''''''''''''''''''''''''''''''''''''''''''''''''''''''''''''",
"''''''''''''''''''''''''''''''''''''''''''''''''''''''''''''''''''''''''''''''''''''''''''''''''''''"
};
