/* XPM */
static char *_640377003712[] = {
/* columns rows colors chars-per-pixel */
"50 50 170 2 ",
"   c #18181A",
".  c #23190F",
"X  c #251D14",
"o  c #2A1D11",
"O  c #251E18",
"+  c #2D2217",
"@  c #25231D",
"#  c #2A251C",
"$  c #332619",
"%  c #3B2B1B",
"&  c #332213",
"*  c #171E2C",
"=  c #181F2D",
"-  c #141922",
";  c #1D212C",
":  c #1D2435",
">  c #1B253B",
",  c #2E2B23",
"<  c #252524",
"1  c #332C23",
"2  c #3B2E22",
"3  c #343026",
"4  c #363228",
"5  c #39342A",
"6  c #3F392D",
"7  c #31343C",
"8  c #38373F",
"9  c #37383A",
"0  c #3C383D",
"q  c #412F1E",
"w  c #43311F",
"e  c #453424",
"r  c #483521",
"t  c #443628",
"y  c #4C3B2B",
"u  c #473A29",
"i  c #543C25",
"p  c #543E2B",
"a  c #423D30",
"s  c #473C3A",
"d  c #5A4127",
"f  c #57412C",
"g  c #5C422A",
"h  c #4E4838",
"j  c #494233",
"k  c #5C4431",
"l  c #554A3C",
"z  c #614529",
"x  c #6C4C2D",
"c  c #704F2E",
"v  c #73512F",
"b  c #614533",
"n  c #644B35",
"m  c #6A4F39",
"M  c #6D543C",
"N  c #755331",
"B  c #795633",
"V  c #7D5935",
"C  c #73533C",
"Z  c #76593F",
"A  c #795A3F",
"S  c #79553D",
"D  c #1D2840",
"F  c #212B43",
"G  c #242F49",
"H  c #2C3445",
"J  c #25314D",
"K  c #2B3349",
"L  c #353743",
"P  c #263455",
"I  c #293758",
"U  c #2B3D63",
"Y  c #2D3F6A",
"T  c #354151",
"R  c #2D416F",
"E  c #37456B",
"W  c #3E526C",
"Q  c #5B5442",
"!  c #464757",
"~  c #5B5550",
"^  c #665040",
"/  c #665E4A",
"(  c #6D5341",
")  c #765B46",
"_  c #7C5D41",
"`  c #6B624C",
"'  c #70674F",
"]  c #7D6046",
"[  c #6E6650",
"{  c #716750",
"}  c #736A52",
"|  c #786F56",
" . c #7D6C5D",
".. c #7A7057",
"X. c #7F755B",
"o. c #444C6A",
"O. c #797470",
"+. c #805C37",
"@. c #835E39",
"#. c #86613A",
"$. c #8A633D",
"%. c #815A43",
"&. c #8B5F45",
"*. c #856345",
"=. c #85654A",
"-. c #8B6648",
";. c #8D6A4B",
":. c #92674B",
">. c #936D4D",
",. c #986F4D",
"<. c #96704E",
"1. c #846E5B",
"2. c #926F50",
"3. c #9B6E50",
"4. c #9C7551",
"5. c #967557",
"6. c #A07653",
"7. c #A47B55",
"8. c #A87D57",
"9. c #A47D5C",
"0. c #AA7F59",
"q. c #AA7555",
"w. c #B47D5B",
"e. c #8A7463",
"r. c #927964",
"t. c #AE8159",
"y. c #B3855C",
"u. c #B7885E",
"i. c #BA8A5F",
"p. c #938679",
"a. c #BD8362",
"s. c #BD8D61",
"d. c #C18E63",
"f. c #CB8C66",
"g. c #CF8D68",
"h. c #C49264",
"j. c #C99566",
"k. c #CC9768",
"l. c #CE9869",
"z. c #D3946A",
"x. c #D59D6C",
"c. c #D59470",
"v. c #465F80",
"b. c #4C6688",
"n. c #516F95",
"m. c #697789",
"M. c #677A93",
"N. c #8A8888",
"B. c #998D82",
"V. c #9D938A",
"C. c #9E9C9B",
"Z. c #AE9E94",
"A. c #8F97A7",
"S. c #8396AE",
"D. c #8C9EB5",
"F. c #98A0AA",
"G. c #92A1B6",
"H. c #AEABAA",
"J. c #B2ABA9",
"K. c #AFABB0",
"L. c #CDA58F",
"P. c #CCAD9B",
"I. c #CCB8AE",
"U. c #9CACC1",
"Y. c #A7B4C5",
"T. c #B8C2CE",
"R. c #C3C5C7",
"E. c #C2CAD3",
"W. c #CCD1D6",
"Q. c None",
/* pixels */
"Q.Q.Q.Q.Q.Q.Q.Q.Q.Q.Q.Q.Q.Q.Q.Q.Q.Q.Q.Q.Q.Q.Q.Q.Q.Q.Q.Q.Q.Q.Q.Q.Q.Q.Q.Q.Q.Q.Q.Q.Q.Q.Q.Q.Q.Q.Q.Q.Q.Q.",
"Q.Q.Q.Q.Q.Q.Q.Q.Q.Q.Q.Q.Q.Q.Q.Q.Q.Q.Q.Q.Q.Q.Q.Q.Q.Q.Q.Q.Q.Q.Q.Q.Q.Q.Q.Q.Q.Q.Q.Q.Q.Q.Q.Q.Q.Q.Q.Q.Q.Q.",
"Q.Q.Q.Q.Q.Q.Q.Q.Q.Q.Q.Q.Q.Q.Q.Q.Q.Q.Q.Q.Q.Q.Q.Q.$ % Q.Q.Q.Q.Q.Q.Q.Q.Q.Q.Q.Q.Q.Q.Q.Q.Q.Q.Q.Q.Q.Q.Q.Q.",
"Q.Q.Q.Q.Q.Q.Q.Q.Q.Q.Q.Q.Q.Q.Q.Q.Q.Q.Q.Q.Q.+ i x B B N q Q.q r X Q.Q.Q.Q.Q.Q.Q.Q.Q.Q.Q.Q.Q.Q.Q.Q.Q.Q.",
"Q.Q.Q.Q.Q.Q.Q.Q.Q.Q.Q.Q.Q.Q.Q.Q.Q.Q.Q.+ z +.#.+.B B B v i d N B r Q.Q.Q.Q.Q.Q.Q.Q.Q.Q.Q.Q.Q.Q.Q.Q.Q.",
"Q.Q.Q.Q.Q.Q.Q.Q.Q.Q.Q.Q.Q.Q.Q.Q.Q.Q.% v $.$.V +.#.V V B v w z V #.i Q.Q.Q.Q.Q.Q.Q.Q.Q.Q.Q.Q.Q.Q.Q.Q.",
"Q.Q.Q.Q.Q.Q.Q.Q.Q.Q.Q.Q.Q.Q.Q.Q.Q.w B +.#.B $.#.B B B B B v r v @.@.g Q.Q.Q.Q.Q.Q.Q.Q.Q.Q.Q.Q.Q.Q.Q.",
"Q.Q.Q.Q.Q.Q.Q.Q.Q.Q.Q.Q.Q.Q.Q.Q.r N +.B v #.#.B v v @.V v B i z N $.V r Q.Q.Q.Q.Q.Q.Q.Q.Q.Q.Q.Q.Q.Q.",
"Q.Q.Q.Q.Q.Q.Q.Q.Q.Q.Q.Q.Q.Q.Q.$ v +.B v +.+.v v V $.V N V B i p N V #.N O Q.Q.Q.Q.Q.Q.Q.Q.Q.Q.Q.Q.Q.",
"Q.Q.Q.Q.Q.Q.Q.Q.Q.Q.Q.Q.Q.Q.Q.x +.+.v V V v v V #.V v V B x C 8.d B V V i Q.Q.Q.Q.Q.Q.Q.Q.Q.Q.Q.Q.Q.",
"Q.Q.Q.Q.Q.Q.Q.Q.Q.Q.Q.Q.Q.Q.e V +.B +.V v v B +.B v B +.c i i.x.6.d v V x Q.Q.Q.Q.Q.Q.Q.Q.Q.Q.Q.Q.Q.",
"Q.Q.Q.Q.Q.Q.Q.Q.Q.Q.Q.Q.Q.Q.i V B B +.v v v +.B v v B x f t.x.x.l.>.g B N Q.Q.Q.Q.Q.Q.Q.Q.Q.Q.Q.Q.Q.",
"Q.Q.Q.Q.Q.Q.Q.Q.Q.Q.Q.Q.Q.+ N V v V B v v B B v v B g n s.x.x.x.x.s.<.f x Q.Q.Q.Q.Q.Q.Q.Q.Q.Q.Q.Q.Q.",
"Q.Q.Q.Q.Q.Q.Q.Q.Q.Q.Q.Q.Q.% B V v +.v c f g z g d k 6.j.x.x.x.j.2.-.2.4.X Q.Q.Q.Q.Q.Q.Q.Q.Q.Q.Q.Q.Q.",
"Q.Q.Q.Q.Q.Q.Q.Q.Q.Q.Q.Q.Q.% V B B V v g t.u.=.4.=.4.j.x.x.x.s.=.C :.C ] Q.Q.Q.Q.Q.Q.Q.Q.Q.Q.Q.Q.Q.Q.",
"Q.Q.Q.Q.Q.Q.Q.Q.Q.Q.Q.Q.Q.% B B B B v d j.;.4.S %.*.5.s.x.s.4.,.a.c.a._ Q.Q.Q.Q.Q.Q.Q.Q.Q.Q.Q.Q.Q.Q.",
"Q.Q.Q.Q.Q.Q.Q.Q.Q.Q.Q.Q.Q.Q.p b g g c _ ;.s.-.z.c.w.2.x.x.x.x.2.P.A.J.( Q.Q.Q.Q.Q.Q.Q.Q.Q.Q.Q.Q.Q.Q.",
"Q.Q.Q.Q.Q.Q.Q.Q.Q.Q.Q.Q.Q.Q.%.f.y.d.p 8.j.y.6.L.J.I.=.x.x.x.x.B.E.n.M.O.Q.Q.Q.Q.Q.Q.Q.Q.Q.Q.Q.Q.Q.Q.",
"Q.Q.Q.Q.Q.Q.Q.Q.Q.Q.Q.Q.Q.Q.:.b &.d.0.h.x.7.Z.Y.b.G.V.z.x.x.x.p.T.W m.~ Q.Q.Q.Q.Q.Q.Q.Q.Q.Q.Q.Q.Q.Q.",
"Q.Q.Q.Q.Q.Q.Q.Q.Q.Q.Q.Q.Q.Q.%.p f.k.h.z.x.y.J.U.L M.Z.k.x.x.x.5.R.D.F.f Q.Q.Q.Q.Q.Q.Q.Q.Q.Q.Q.Q.Q.Q.",
"Q.Q.Q.Q.Q.Q.Q.Q.Q.Q.Q.Q.Q.Q.( b g.z.s.j.x.l.V.E.b.S.r.x.x.x.x.j. .N.1.=.Q.Q.Q.Q.Q.Q.Q.Q.Q.Q.Q.Q.Q.Q.",
"Q.Q.Q.Q.Q.Q.Q.Q.Q.Q.Q.Q.Q.Q.Q.S q.z.h.d.x.x.5.H.W.C.t.x.x.x.x.x.x.j.x.C Q.Q.Q.Q.Q.Q.Q.Q.Q.Q.Q.Q.Q.Q.",
"Q.Q.Q.Q.Q.Q.Q.Q.Q.Q.Q.Q.Q.Q.Q.p m 3.y.s.j.x.l.9.r.9.x.x.x.x.x.x.x.x.x.y Q.Q.Q.Q.Q.Q.Q.Q.Q.Q.Q.Q.Q.Q.",
"Q.Q.Q.Q.Q.Q.Q.Q.Q.Q.Q.Q.Q.Q.Q.  b :.z.y.h.x.x.x.x.x.x.x.x.x.x.x.x.x.<.Q.Q.Q.Q.Q.Q.Q.Q.Q.Q.Q.Q.Q.Q.Q.",
"Q.Q.Q.Q.Q.Q.Q.Q.Q.Q.Q.Q.Q.Q.Q.= G s s ;.d.j.x.x.x.x.x.h.y.y.6.t.x.4.Q.Q.Q.Q.Q.Q.Q.Q.Q.Q.Q.Q.Q.Q.Q.Q.",
"Q.Q.Q.Q.Q.Q.Q.Q.Q.Q.Q.Q.Q.- G Y R R U t s.s.l.x.x.x.x.j.y.0.s.x.t.Q.Q.Q.Q.Q.Q.Q.Q.Q.Q.Q.Q.Q.Q.Q.Q.Q.",
"Q.Q.Q.Q.Q.Q.Q.Q.Q.Q.Q.Q.y ! R R R R R ; 4.s.d.x.x.x.x.x.x.x.x.y.2 Q.Q.Q.Q.Q.Q.Q.Q.Q.Q.Q.Q.Q.Q.Q.Q.Q.",
"Q.Q.Q.Q.Q.Q.Q.Q.Q.Q.Q.M j.9.o.R R R Y F L ) 6.i.d.h.l.x.x.x.j.A _ Q.Q.Q.Q.Q.Q.Q.Q.Q.Q.Q.Q.Q.Q.Q.Q.Q.",
"Q.Q.Q.Q.Q.Q.Q.Q.Q.Q._ k.x.x.r.R R Y > Y Y Y I H L s l ^ ) =._ j.x.h.%.% Q.Q.Q.f y Q.Q.Q.Q.Q.Q.Q.Q.Q.",
"Q.Q.Q.Q.Q.Q.Q.Q.Q.) x.x.x.x.d.E P = G U R R R R Y Y U U I L x.x.x.x.x.j.<.A h.x.h.*.4.Q.Q.Q.Q.Q.Q.Q.",
"Q.Q.Q.Q.Q.Q.Q.Q.m k.x.x.x.x.;.  Q.Q.D U R R R R R R R R R 7 d.x.x.x.x.x.8.A y.7.h.4._ Q.Q.Q.Q.Q.Q.Q.",
"Q.Q.Q.Q.Q.Q.Q.u j.x.x.x.y.p Q.Q.Q.Q.- U Y R R R R R R R R : t k =.s.h.x.;.y.4.k m 0.k Q.Q.Q.Q.Q.Q.Q.",
"Q.Q.Q.Q.Q.Q.O t.x.x.x.-.Q.Q.Q.Q.Q.Q.Q.G R R R R R R R R R > Q.Q.Q.Q.u k u 7.j.] s._ Q.Q.Q.Q.Q.Q.Q.Q.",
"Q.Q.Q.Q.Q.t ;._ s.l.A Q.Q.Q.Q.Q.Q.Q.Q.; I R R R R R R R R > Q.Q.Q.Q.Q.Q.Q.Q.k f >.y Q.Q.Q.Q.Q.Q.Q.Q.",
"Q.Q.Q.Q.y 8.x.j._ n Q.Q.Q.Q.Q.Q.Q.Q.Q.Q.P R R R R R R R R F Q.Q.Q.Q.Q.Q.Q.Q.Q.Q.Q.Q.Q.Q.Q.Q.Q.Q.Q.Q.",
"Q.Q.Q.2 8.x.x.x.h.Q.Q.Q.Q.Q.Q.Q.Q.Q.Q.Q.; H H H 7 H H 9 9 < Q.Q.Q.Q.Q.Q.Q.Q.Q.Q.Q.Q.Q.Q.Q.Q.Q.Q.Q.Q.",
"Q.Q.Q.k j.x.x.x.y.Q.Q.Q.Q.Q.Q.Q.Q.Q.Q.Q.5 [ | X.X.X.X.X.X.l Q.Q.Q.Q.Q.Q.Q.Q.Q.Q.Q.Q.Q.Q.Q.Q.Q.Q.Q.Q.",
"Q.Q.Q.Q.7.x.x.x.;.Q.Q.Q.Q.Q.Q.Q.Q.Q.Q.Q.5 ..X.X.X.X.X.X.X.Q Q.Q.Q.Q.Q.Q.Q.Q.Q.Q.Q.Q.Q.Q.Q.Q.Q.Q.Q.Q.",
"Q.Q.Q.Q.y j.x.s.Q.Q.Q.Q.Q.Q.Q.Q.Q.Q.Q.Q.3 | X.1.X.X.X.X.X.Q Q.Q.Q.Q.Q.Q.Q.Q.Q.Q.Q.Q.Q.Q.Q.Q.Q.Q.Q.Q.",
"Q.Q.Q.Q.Q.t t.Q.Q.Q.Q.Q.Q.Q.Q.Q.Q.Q.Q.Q., | X.X.X.X.X.X.X.` Q.Q.Q.Q.Q.Q.Q.Q.Q.Q.Q.Q.Q.Q.Q.Q.Q.Q.Q.Q.",
"Q.Q.Q.Q.Q.Q.Q.Q.Q.Q.Q.Q.Q.Q.Q.Q.Q.Q.Q.Q.j ..X.X./ 3 h | X...@ Q.Q.Q.Q.Q.Q.Q.Q.Q.Q.Q.Q.Q.Q.Q.Q.Q.Q.Q.",
"Q.Q.Q.Q.Q.Q.Q.Q.Q.Q.Q.Q.Q.Q.Q.Q.Q.Q.Q.4 } X.X.} @ Q.j } X.X.[ 1 Q.Q.Q.Q.Q.Q.Q.Q.Q.Q.Q.Q.Q.Q.Q.Q.Q.Q.",
"Q.Q.Q.Q.Q.Q.Q.Q.Q.Q.Q.Q.Q.Q.Q.Q.Q.Q., } X.X.' , Q.Q.Q.6 | X.X.} 6 Q.Q.Q.Q.Q.Q.Q.Q.Q.Q.Q.Q.Q.Q.Q.Q.Q.",
"Q.Q.Q.Q.Q.Q.Q.Q.Q.Q.Q.Q.Q.Q.Q.Q.Q.@ ` X.X.} 4 Q.Q.Q.Q.Q.5 ' X.X...5 Q.Q.Q.Q.Q.Q.Q.Q.Q.Q.Q.Q.Q.Q.Q.Q.",
"Q.Q.Q.Q.Q.Q.Q.Q.Q.Q.Q.Q.Q.Q.Q.Q.Q.% / 1...5 Q.Q.Q.Q.Q.Q.Q.1 ` X.[ % . Q.Q.Q.Q.Q.Q.Q.Q.Q.Q.Q.Q.Q.Q.Q.",
"Q.Q.Q.Q.Q.Q.Q.Q.Q.Q.Q.Q.Q.Q.Q.Q.Q.o % ` 6 Q.Q.Q.Q.Q.Q.Q.Q.Q.# Q u & Q.Q.Q.Q.Q.Q.Q.Q.Q.Q.Q.Q.Q.Q.Q.Q.",
"Q.Q.Q.Q.Q.Q.Q.Q.Q.Q.Q.Q.Q.Q.Q.Q.Q.Q.o # Q.Q.Q.Q.Q.Q.Q.Q.Q.Q.Q.  + Q.Q.Q.Q.Q.Q.Q.Q.Q.Q.Q.Q.Q.Q.Q.Q.Q.",
"Q.Q.Q.Q.Q.Q.Q.Q.Q.Q.Q.Q.Q.Q.Q.Q.Q.Q.Q.Q.Q.Q.Q.Q.Q.Q.Q.Q.Q.Q.Q.Q.Q.Q.Q.Q.Q.Q.Q.Q.Q.Q.Q.Q.Q.Q.Q.Q.Q.Q.",
"Q.Q.Q.Q.Q.Q.Q.Q.Q.Q.Q.Q.Q.Q.Q.Q.Q.Q.Q.Q.Q.Q.Q.Q.Q.Q.Q.Q.Q.Q.Q.Q.Q.Q.Q.Q.Q.Q.Q.Q.Q.Q.Q.Q.Q.Q.Q.Q.Q.Q.",
"Q.Q.Q.Q.Q.Q.Q.Q.Q.Q.Q.Q.Q.Q.Q.Q.Q.Q.Q.Q.Q.Q.Q.Q.Q.Q.Q.Q.Q.Q.Q.Q.Q.Q.Q.Q.Q.Q.Q.Q.Q.Q.Q.Q.Q.Q.Q.Q.Q.Q."
};
