/* XPM */
static char *_640378276053[] = {
/* columns rows colors chars-per-pixel */
"50 50 28 1 ",
"  c #D4C6B5",
". c #D6C8B6",
"X c #D5C7B9",
"o c #D6CABC",
"O c #D9CCBD",
"+ c #DDD0BF",
"@ c #D6CCC2",
"# c #D9CEC3",
"$ c #D8CFC8",
"% c #DCD2C4",
"& c #DDD5CB",
"* c #DFD8CE",
"= c #DED7D0",
"- c #DFD9D2",
"; c #E1D5C5",
": c #E4D8C6",
"> c #E1D7CA",
", c #E3DACD",
"< c #E8DDCE",
"1 c #E0D7D1",
"2 c #E4DCD3",
"3 c #E8DED2",
"4 c #E4DED9",
"5 c #E7E0D6",
"6 c #E9E1D5",
"7 c #E6E1DA",
"8 c #E8E2DA",
"9 c #EAE5E1",
/* pixels */
"22452757777757794$49999777--4-4444444477749999444-",
"222255777777777799947--4-47777542777442449444-=-4-",
"244,7--447775--724---54274-44--42*2422224114-===-=",
"4-44-7---4----------*2**-454545-***44421=&-=---==$",
"---*--==--*-----*-4-*-*52-2*--5-22524,-24-441-==--",
"***277------52-24---75-25-52255,2-744-22*2-44-&===",
"--5-55*-*,*55-******$-*-**------44144---&$&$$=====",
"*&$&*-*-**55-55554557--25-2-4--779774441=--==&=$$$",
"-577425755575887877525557555575524227722227124244-",
"7577557775578875572555252555257725747142--*=-=-*==",
"557755555557755555555575775778778884748774224214=-",
"55575557552555552555,5555575675263432222224-,-22=-",
"255555-,555886527252<25,62225265463332422221221114",
"**5-225552555555585565555666566543842222-2=2**1111",
"*,,,&*,52,,555<55<86<5<6<22252,24341222>**>=&=*&&&",
"&,2,<5<<55,55<2,2<<682<<8865272<21:;,2221>>*>&&*$&",
"%;+;%;%:%%&:*::%%&;%%:&%%%%%&%%%%%;%%O#O%%%O%O%+#O",
",2*,2,,*<*:*,,,&,:<::>52>%*-2-,5=2>2222*<,,,,,>>>1",
"<,,,,25<,<<7<555<,57822,,&*---254412,*,22222>,22<1",
"55,,<525,575*<5*555<75255%-------411222*2,*2222,1<",
",5,,2525555,75<5*,55222&*$=&$&--==&=11112**>*2*121",
"5,<2<,5,5252*<525*,&222*>$=-*-4-1=$$&&$1&&*1&**,11",
":,*,222,,,,2<5*555,5222*2$=-===*1121111%&&$$$&&&%#",
"<2,*:*,,::&,**<<,2*-2*&&&o-=1=&==$&1111>=2,*2**>>&",
":%;,*:;*,,:&,,,*,22222122@&=11&&&&1$&&1&&$%>&>>&&&",
"2:<*,,*<,,&,<,,<,,2222221$=&&$&$$&$$$&%%%&>%%%##%o",
",*:,**;2,,,,*&:**>1>&&&1*#=&=&=11$%1&#%%#O######XX",
"%%%%;;*;%&&&&&&&*&>&&*&*&#*&&$&4&&1111&1%%%>>%%%##",
"*;;***%;&*&&*&&*>*2*>*111$1$1&$$&&$11111$%$#%%&&%%",
",***,***,&%&%&&&*%$&**11>$>=&&>>&%%1341%%>;&&%%%##",
"%%%%*%%*%**%%&>>;&&;&>21>@&>;>&$%&&1111%>&%&%%%;%%",
",**;;;,;:>,,%:;>>>>***2>>$&>>$$;%%1%%%%%#%1%%%%&$;",
"%%;;%;;%%%%;;&*%%%%%**,,*o*&%>%#;#OO#o.OO.OOOo oXX",
"o%%%+O%%++%++%++%##%#O#@@oO####ooooooX.. .XoX     ",
"2<,*22222***2***,2>>,,-,1122222212:,>;>>;;&;;&%&&%",
"2*252,2,**,,*5222<222,222,222>,>,,>2&1&;>&>$##&##$",
"2,2*,,,2<5<<,,,,>%>&&&2%***%&*>21&>&$&&$&$$###@@##",
"*,*;,,,;*<5<2,2,256555532222,,,<3,<2,:,2,1,11>1$&#",
"*;*<*2<<<5666655<666<66232<,>,,2>>,;>,<,,,>>>>;&&>",
"<552566<55666666665<2562<222222,222221>>>,>1&1;$>&",
"<5555<6666555<56<5<<,222,,**,***>&&1&>$$$$%&$&&$$$",
"<2<565<,<<<66666,55<<52,<*<<<<5<2>&11&&&,:&&&&%%##",
"665<<<,55555<<<5<6,<,<5<5<55<56<<3<<<<<<31>;&;%%%%",
",,<,<,,,5<56566<2<5526<<5,<<,<,,&<<1>&>1;1221&&&>%",
"<2<<<<2<5566<,22<<<,2,,,,5,,:*2,11<>&>&&>&&&<1<&;>",
",,,<<*,2::,,,:,,,<2<<<5<<<<5<<33332<<<<<1<;;>&&;%%",
",,2<,<,<22<<<<<<,,<>,<<<:,<,,<<<<2<:;>>>:;<&%#>;%%",
",*:<<<,,<<,<5<,<,5<,<<<<<<,<<<6<<<3<<><<><;<1<;>;:",
"<<<,<<,<,:<,<,<<<<,,::::::*:<,,<::::;;;;:%%:%;;;%;",
":::++::+:+:::::::,,:::::::+::::::::;;;%%+++;++O+#+"
};
