/* XPM */
static char *_640377258646[] = {
/* columns rows colors chars-per-pixel */
"50 50 89 1 ",
"  c #083863",
". c #083963",
"X c #083964",
"o c #083A64",
"O c #083B65",
"+ c #083D66",
"@ c #083E66",
"# c #083F67",
"$ c #074369",
"% c #074469",
"& c #07446A",
"* c #07456A",
"= c #07456B",
"- c #07466A",
"; c #084168",
": c #084269",
"> c #07496C",
", c #074B6D",
"< c #074B6E",
"1 c #074C6E",
"2 c #074C6F",
"3 c #074E70",
"4 c #074F71",
"5 c #075170",
"6 c #075071",
"7 c #075271",
"8 c #075472",
"9 c #065673",
"0 c #075575",
"q c #075876",
"w c #065E7A",
"e c #066079",
"r c #06637D",
"t c #06667C",
"y c #06657E",
"u c #06687D",
"i c #056A7E",
"p c #056B7F",
"a c #056C7F",
"s c #056D7F",
"d c #066980",
"f c #056F81",
"g c #066C82",
"h c #066D83",
"j c #057383",
"k c #057584",
"l c #057785",
"z c #057487",
"x c #057986",
"c c #047B87",
"v c #057B8B",
"b c #057E8D",
"n c #04808A",
"m c #04868D",
"M c #04898F",
"N c #058491",
"B c #058592",
"V c #048A94",
"C c #039093",
"Z c #039796",
"A c #049098",
"S c #04979C",
"D c #039C99",
"F c #049B9E",
"G c #03A49D",
"H c #02A59E",
"J c #039FA1",
"K c #04A2A3",
"L c #02AFA3",
"P c #03ACA9",
"I c #03AEAA",
"U c #03AFAB",
"Y c #01B6A7",
"T c #01BAA9",
"R c #03BCB2",
"E c #02BEB3",
"W c #01C1AD",
"Q c #01C2AD",
"! c #00C9B1",
"~ c #00CEB4",
"^ c #01CDBD",
"/ c #01D7C3",
"( c #01DAC4",
") c #01DBC5",
"_ c #01DEC7",
"` c #01E0C8",
"' c #00E8CD",
"] c #00EFD1",
"[ c None",
/* pixels */
"[[[[[[[[[[[[[[[[[[[[[[[[[[[[[[[[[[[[[[[[[[[[[[[[[[",
"                      X     X                 X  X",
"                    oo X ooooo    XX    XX        ",
"  zEEEEEEEEEEEEEP+ jGGGGGGGGGGGGHHHHD& dEEWREEEz  ",
"  V]]]]]]]]]]]]]/+ M~~~~~~~~~~~~~~~~Q, v]]]]]]]V  ",
"  V]]]]]]]]]]]]]/; M~~~~~~~~~~~~~~~~Q, v]]]]]]]V  ",
"  V]]]]]]]]]]]]]/; M~~~~~~~~~~~~~~~~Q> v]]]]]]]V  ",
"  V]]]]]]]]]]]]]/+ M~~~~~~~~~~~~~~~~Q> v]]]]]]]V  ",
"  V]]]]]]]]]]]]]/# M~~~~~~~~~~~~~~~~Q, v]]]]]]]V  ",
"  V]]]]]]]]]]]]]/# M~~~~~~~~~~~~~~~~Q,Xv]]]]]]]V  ",
"  V]]]]]]]]]]]]]/# M~~~~~~~~~~~~~~~~Q- v]]]]]]]V  ",
"  gPPPPPPPPPPPPPJ#odZZZZZZZZZZZZZZZZC& tUPUUPUPg  ",
"                            X                     ",
"           X                                      ",
"  uGGGa  PERRRRRRRRRRRRRRRN omGGGGGGGGGGGGGGGGGu  ",
"  c~~~n  _]]]]]]]]]]]]]]]]Ko+G~~~~~~~~~~~~~~~~~c  ",
"  c~~~n X_]]]]]]]]]]]]]]]]K +G~~~~~~~~~~~~~~~~~c  ",
"  c~~~n X_]]]]]]]]]]]]]]]]K +G~~~~~~~~~~~~~~~~~c  ",
"  c~~~n X_]]]]]]]]]]]]]]]]KX;G~~~~~~~~~~~~~~~~~c  ",
"  c~~~n  _]]]]]]]]]]]]]]]]KX#K~~~~~~~~~~~~~~~~~c  ",
"  c~~~c  _]]]]]]]]]]]]]]]]K #G~~~~~~~~~~~~~~~~~c  ",
"  c~~~n  _]]]]]]]]]]]]]]]]K oG~~~~~~~~~~~~~~~~~c  ",
"  c~~~n X_]]]]]]]]]]]]]]]]K +G~~~~~~~~~~~~~~~~~c  ",
"  8ccz9 XbNNBNNNNNNNBBBBNNy  tkckkckkckzckkckkc7  ",
"                   XXXXXXXXXXXX XXXXXXo           ",
"  +&&&-&********;  +;;;;&;;;;;;;;;;;;Xo#&-&-&-&+  ",
"  kQQQQQQQQQQQQQL+ A(_((_(((_(_(((_(^3 uQQQQQQQz  ",
"  c~~~~~~~~~~~~~T+ F]]]]]]]]]]]]]]]]`3 g~~~~~~~c  ",
"  c~~~~~~~~~~~~~T+XF]]]]]]]]]]]]]]]]`7 j~~~~~~~c  ",
"  c~~~~~~~~~~~~~T+ F]]]]]]]]]]]]]]]]`, a~~~~~~~c  ",
"  c~~~~~~~~~~~~~T+ F]]]]]]]]]]]]]]]]`3 j~~~~~~~c  ",
"  c~~~~~~~~~~~~~T+ F]]]]]]]]]]]]]]]]_7os~~~~~~~c  ",
"  c~~~~~~~~~~~~~T+ F]]]]]]]]]]]]]]]]`6 j~~~~~~~c  ",
"  c~~~~~~~~~~~~~T+ F]]]]]]]]]]]]]]]]`6 g~~~~~~~c  ",
"  c!~!!!!!!~!!!!Y+ S''''''''''''''''(2 a!!!!!!!x  ",
"  ;,,,,,,,,,3,,,>X =37377373737373735  ;22,2,2,;  ",
"            X        XXX                          ",
"  7saj7  zvvvvvvvvvvvvvcvvw Xwjgjgggajajajajsja5  ",
"  c~~~n  _]]]]]]]]]]]]]]]]K #H~~~~~~~~~~~~~~~~~c  ",
"  c~~~n  _]]]]]]]]]]]]]]]]K +H~~~~~~~~~~~~~~~~~c  ",
"  c~~~n  _]]]]]]]]]]]]]]]]K +H~~~~~~~~~~~~~~~~~c  ",
"  c~~~n  _]]]]]]]]]]]]]]]]K +H~~~~~~~~~~~~~~~~~c  ",
"  c~~~n  _]]]]]]]]]]]]]]]]K +H~~~~~~~~~~~~~~~~~c  ",
"  c~~~n  _]]]]]]]]]]]]]]]]K +H~~~~~~~~~~~~~~~~~c  ",
"  c~~~n  _]]]]]]]]]]]]]]]]K +H~~~~~~~~~~~~~~~~~c  ",
"  c~~~n  _]]]]]]]]]]]]]]]]K +H~~~~~~~~~~~~~~~~~c  ",
"  &777&  0qqqqqqqqqqqqqqqq,X ,77777777777755956*  ",
"                                                  ",
"                                                  ",
"[[[[[[[[[[[[[[[[[[[[[[[[[[[[[[[[[[[[[[[[[[[[[[[[[["
};
