/* XPM */
static char *_640377841515[] = {
/* columns rows colors chars-per-pixel */
"50 50 228 2 ",
"   c #973F3E",
".  c #993E3D",
"X  c #9D3737",
"o  c #882C2D",
"O  c #B52424",
"+  c #B82829",
"@  c #A43C3B",
"#  c #AC3939",
"$  c #AB3232",
"%  c #B43232",
"&  c #BD3333",
"*  c #BA3B3B",
"=  c #B33C3C",
"-  c #C22A2C",
";  c #CC2C2C",
":  c #C72524",
">  c #D42626",
",  c #DA2626",
"<  c #D52B2A",
"1  c #DB2B2B",
"2  c #D82827",
"3  c #D62F30",
"4  c #C43334",
"5  c #CB3535",
"6  c #C43939",
"7  c #CD3B3B",
"8  c #C73738",
"9  c #D23333",
"0  c #DB3232",
"q  c #DE3C3C",
"w  c #D1393A",
"e  c #E62628",
"r  c #E42A2B",
"t  c #E8292A",
"y  c #E33334",
"u  c #E23B3C",
"i  c #E93A3A",
"p  c #EC3435",
"a  c #F23D3D",
"s  c #F83D3E",
"d  c #C8403F",
"f  c #E2403F",
"g  c #973F40",
"h  c #994A49",
"j  c #9D504F",
"k  c #965555",
"l  c #AA4848",
"z  c #B54444",
"x  c #BB4545",
"c  c #BC4B4B",
"v  c #B44B4A",
"b  c #B15454",
"n  c #BB5555",
"m  c #BA5C5C",
"M  c #B95E60",
"N  c #9D7979",
"B  c #9C7677",
"V  c #AC6E6E",
"C  c #A86363",
"Z  c #B66564",
"A  c #B96969",
"S  c #AF7979",
"D  c #BA7474",
"F  c #B67E7D",
"G  c #BD7C7B",
"H  c #B67776",
"J  c #C24444",
"K  c #CC4343",
"L  c #CC4A4B",
"P  c #C44C4D",
"I  c #DA4243",
"U  c #D44A49",
"Y  c #DA4A4A",
"T  c #D64443",
"R  c #C74F50",
"E  c #C55454",
"W  c #C5595A",
"Q  c #CC5A5B",
"!  c #C85453",
"~  c #D55E5D",
"^  c #DE5656",
"/  c #E34343",
"(  c #E34E4E",
")  c #EA4C4C",
"_  c #F34443",
"`  c #FC4B4C",
"'  c #F94949",
"]  c #E34F50",
"[  c #EB5757",
"{  c #E55C5C",
"}  c #EB5C5B",
"|  c #E25455",
" . c #F45D5D",
".. c #FE5D5E",
"X. c #FB5555",
"o. c #D3605F",
"O. c #CE5F60",
"+. c #C56263",
"@. c #CB6465",
"#. c #CA6F6F",
"$. c #C36C6C",
"%. c #D26464",
"&. c #DC6768",
"*. c #D66B6B",
"=. c #DB6867",
"-. c #DD6F70",
";. c #C67777",
":. c #D47372",
">. c #DB7373",
",. c #D47C7B",
"<. c #DF7978",
"1. c #E56767",
"2. c #F56362",
"3. c #FC6464",
"4. c #FD6C6C",
"5. c #F46D6C",
"6. c #E4716F",
"7. c #FB716F",
"8. c #E37473",
"9. c #E57A7B",
"0. c #E97776",
"q. c #FD7575",
"w. c #F67878",
"e. c #FD797A",
"r. c #F77576",
"t. c #8E8B8B",
"y. c #998585",
"u. c #9B9595",
"i. c #9D9C9C",
"p. c #969494",
"a. c #A48282",
"s. c #AB8282",
"d. c #A58B8B",
"f. c #BD8A8A",
"g. c #BD8787",
"h. c #A49393",
"j. c #A59B9B",
"k. c #AB9C9C",
"l. c #AF9897",
"z. c #B49796",
"x. c #B29B9B",
"c. c #B99B9B",
"v. c #A6A5A5",
"b. c #ABAAAA",
"n. c #ABA4A5",
"m. c #B5A3A2",
"M. c #B3AAAA",
"N. c #BDAAA9",
"B. c #BBA7A7",
"V. c #B4B3B3",
"C. c #BDB6B5",
"Z. c #BCBCBC",
"A. c #BCB8B7",
"S. c #CA8787",
"D. c #C18888",
"F. c #D48282",
"G. c #DC8C8C",
"H. c #D88889",
"J. c #C0908F",
"K. c #C39B9D",
"L. c #CB9B9B",
"P. c #CB9696",
"I. c #D39696",
"U. c #D49C9C",
"Y. c #DD9A9A",
"T. c #D89696",
"R. c #E38A8A",
"E. c #E78383",
"W. c #F78786",
"Q. c #E69696",
"!. c #FA9393",
"~. c #FB9C9C",
"^. c #C3A4A4",
"/. c #C2A8A7",
"(. c #C4ADAC",
"). c #CAADAC",
"_. c #CAA7A7",
"`. c #D9A8A8",
"'. c #C4B3B3",
"]. c #CBB6B6",
"[. c #C3BEBD",
"{. c #CABABA",
"}. c #C8B8B7",
"|. c #D2B4B4",
" X c #D2BDBD",
".X c #DBBABA",
"XX c #E4A6A5",
"oX c #FAA6A6",
"OX c #FBB0AF",
"+X c #E5B9B9",
"@X c #FBB8B7",
"#X c #C5C4C3",
"$X c #CCC6C6",
"%X c #CCCACA",
"&X c #C7C8C7",
"*X c #D3C5C5",
"=X c #DBC5C5",
"-X c #D3CCCC",
";X c #DCCBCA",
":X c #DFC7C8",
">X c #D4D0CF",
",X c #DACFD0",
"<X c #D4D4D4",
"1X c #DCD5D5",
"2X c #DCDBDB",
"3X c #DAD7D8",
"4X c #E3C8C9",
"5X c #E8C7C7",
"6X c #FAC1C1",
"7X c #FACCCB",
"8X c #F7C8C7",
"9X c #E1DBDB",
"0X c #ECDBDB",
"qX c #E8D3D3",
"wX c #F4D5D4",
"eX c #FBD3D2",
"rX c #E4E0DF",
"tX c #E5E4E4",
"yX c #EBE3E3",
"uX c #ECEBEB",
"iX c #F0E3E2",
"pX c #F3EAEB",
"aX c #FCE7E6",
"sX c #F7F0EF",
"dX c #F3F3F3",
"fX c #FCF4F4",
"gX c #FEFDFD",
"hX c None",
/* pixels */
"hXhXhXhXhXhXhXhXhXhXhXhXhXhXhXhXhXhXhXhXhXhXhXhXhXhXhXhXhXhXhXhXhXhXhXhXhXhXhXhXhXhXhXhXhXhXhXhXhXhX",
"hXhXhXhXhXhXhXhXhXhXhXhXhXhXhXhXhXhXhXhXhXhXhXhXhXhXhXhXhXhXhXhXhXhXhX1Xu y hXhXhXhXhXhXhXhXhXhXhXhX",
"hXhXhXhXhXhXhXhXhXhXhXhXhXhXhXhXhXhXhXhXhXhXhXhXhXhXhXhXhXhXhXhXhXhX3X2X{ 2 J M.x.hXhXhXhXhXhXhXhXhX",
"hXhXhXhXhXhXhXhXhXhXhXhXhXhXhXhXhXhXhXhXhXhXhXhXhXhXhXhXhXhXhXhXhXP.uXtXF.5 c K.g.f hXhXhXhXhXhXhXhX",
"hXhXhXhXhXhXhXhXhXhXhXhXhXhXhXhXhXhXhXhXhXhXhXhXhXhXhXhXhXhXhXhXhXo.gXtX;.& ! K.L. .1 hXhXhXhXhXhXhX",
"hXhXhXhXhXhXhXhXhXhXhXhXhXhXhXhXhXhXhXhXhXhXhXhXhXhXhXhXhXhXhXhXhXP rX&XA - $.[.4X< > 0 hXhXhXhXhXhX",
"hXhXhXhXhXhXhXhXhXhXhXhXhXhXhXhXhXhXhXhXhXhXhXhXhXhXhXhXhXhXhXhX} J -XA.b & S.$X;X7 , _ hXhXhXhXhXhX",
"hXhXhXhXhXhXhXhXhXhXhXhXhXhXhXhXhXhXhXhXhXhXhXhXhXhXhXhXhXhXhXhX{ P #XA.c : @.$X&X<.` ..2.hXhXhXhXhX",
"hXhXhXhXhXhXhXhXhXhXhXhXhXhXhXhXhXhXhXhXhXhXhXhXhXhXhXhXhXhXhXhXhXQ #X[.U 2 E <XpX7X4.4.7.9XhXhXhXhX",
"hXhXhXhXhXhXhXhXhXhXhXhXhXhXhXhXhXhXhXhXhXhXhXhXhXhXhXhXhXhXhXhXhX>.$XtX8.; K yXgXsXq.q.3.B.hXhXhXhX",
"hXhXhXhXhXhXhXhXhXhXhXhXhXhXhXhXhXhXhXhXhXhXhXhXhXhXhXhXhXhXhXhXhX;.0XdXY.; < pXgXgXw.2.K d.h hXhXhX",
"hXhXhXhXhXhXhXhXhXhXhXhXhXhXhXhXhXhXhXhXhXhXhXhXhXhXhXhXhXhXhXhXhXhX|.*XP.> 1 wXgXgX^ 5 E D % hXhXhX",
"hXhXhXhXhXhXhXhXhXhXhXhXhXhXhXhXhXhXhXhXhXhXhXhXyX2X;X-.Y *.;X=XhXhXs.'.L., e +XtX2XU x D V O q hXhX",
"hXhXhXhXhXhXhXhXhXhXhXhXhXhXhXhXhXhXhXhXhXhXoX6.#.[.[.;.- | +X,XY.=.L.-X X< 0 T.tX1Xz m j.d.O 9 hXhX",
"hXhXhXhXhXhXhXhXhXhXhXhXhXhXhXhXhXhXhXhXgX0XL : ; =XtXiX4...!.dX*X{ :.b.{.I , ,.&Xk.# l n.j.E 0 hXhX",
"hXhXhXhXhXhXhXhXhXhXhXhXhXhXhXhXhXhXhXpX3X$XS.< 0 W.gXgX!...4.sXdX%.R /.t.J ; #.&X].6 J $X[.P.hXhXhX",
"hXhXhXhXhXhXhXhXhXhXhXhXhXhXhXhXhXhXE.S.&X<X=X1 p X.gXgX6X5.X.eXtXg.7 Q.k.hXhXF.<X-XY [ 5X9X$XhXhXhX",
"hXhXhXhXhXhXhXhXhXhXhXhXhXhXhXhXhX>.4 w ;X2X2X] e e :XuXtX5._ Q.>X/.T { m.hXhXhXhXhX-.] hXhXhXhXhXhX",
"hXhXhXhXhXhXhXhXhXhXhXhXhXhXhXhXJ.% 9 0 `.9X2X<.e e Q.tXtX{ i &.>X*X[ ) c.hXhXhXhXhXhXhXhXhXhXhXhXhX",
"hXhXhXhXhXhXhXhXhXhXhXhXhXhXhXb.v.! 0 r &.tXtXXXe e 8.rX2X&.r I 1X2X5./ F h.hXhXhXhXhXhXhXhXhXhXhXhX",
"hXhXhXhXhXhXhXhXhXhXhXhXhXhXhXi.V.I.1 r } fXgXwXi t | 1X2XF.2 1 *X9XE.w Z j.hXhXhXhXhXhXhXhXhXhXhXhX",
"hXhXhXhXhXhXhXhXhXhXhXhXhXhXt.b.#X|.0 ' 4.aXgXgX2.t y 4X3XU.2 2 `.<XG.8 n i.hXhXhXhXhXhXhXhXhXhXhXhX",
"hXhXhXhXhXhXhXhXhXhXhXhXhXhXy.Z.[.%X2.4.q.eXgXgXW.s r |.3X`.2 2 T.<X_.4 v i.hXhXhXhXhXhXhXhXhXhXhXhX",
"hXhXhXhXhXhXhXhXhXhXhXhXhXo #.3X[.<X~.w.q.6XgXgX~.' a `.<X*X1 1 F.-X_.6 z p.hXhXhXhXhXhXhXhXhXhXhXhX",
"hXhXhXhXhXhXhXhXhXhXhXhXhXX w.yX&X3XOXe.q.OXgXgXOX` ' Q.<X<X0 3 :.%X(.& l p.hXhXhXhXhXhXhXhXhXhXhXhX",
"hXhXhXhXhXhXhXhXhXhXhXhXhXc q.0X&X3X6Xq.q.~.gXgX6X` ' R.2X<XI 0 @.&X(.* l u.hXhXhXhXhXhXhXhXhXhXhXhX",
"hXhXhXhXhXhXhXhXhXhXhXhXhX! e.+X#X<X7X7.4.W.gXgXeX` _ 9.<X<X~ 3 O.#XB.= j hXhXhXhXhXhXhXhXhXhXhXhXhX",
"hXhXhXhXhXhXhXhXhXhXhXhXhXQ w.T.&X<XwX3.3.q.fXgXeX_ y 8.2X<X~ 9 Q [.x.# k hXhXhXhXhXhXhXhXhXhXhXhXhX",
"hXhXhXhXhXhXhXhXhXhXhXhXhXE o.,.&X>XqX3.X.4.pXdXqXu 0 &.<X<X@.5 W A.k.@ hXhXhXhXhXhXhXhXhXhXhXhXhXhX",
"hXhXhXhXhXhXhXhXhXhXhXhXhXc ! -.Z.&X XY u [ wXtX4Xf q &.<X%X@.5 m V.d.. hXhXhXhXhXhXhXhXhXhXhXhXhXhX",
"hXhXhXhXhXhXhXhXhXhXhXhXhXhXW 9.Z.V.N.* - 7 ].<X=XI T o.%X&XO.* Z b.N hXhXhXhXhXhXhXhXhXhXhXhXhXhXhX",
"hXhXhXhXhXhXhXhXhXhXhXhXhXhXb *.Z.V.B.& + 4 '.>X{.T w O.&XZ.n * V i.hXhXhXhXhXhXhXhXhXhXhXhXhXhXhXhX",
"hXhXhXhX1X-Xc.+ % n M.M.hXhX  m M.b.k.+ O & (.&X{.7 8 @.A.A.z # S hXhXhXhXhXhXhXhXhXhXhXhXhXhXhXhXhX",
"hXhXhX8.qXA.d.& T 9.uXuXI.hXhXC z.x.^.O + & N.#XN.& & A V.n.#   hXhXhXhXhXhXhXhXhXhXhXhXhXhXhXhXhXhX",
"hXhXY 8.{.%X'.I / 7.gXuXL.4 % s.n.k.K.% % z M.V.z.* = S b.y.h hXhXhXhXhXhXhXhXhXhXhXhXhXhXhXhXhXhXhX",
"hXhX& L :XwX;X7 2 i 2X-X`.q 8 s.j.j.F E = b M.b.s.# @ y.p.hXhXhXhXhXhXhXhXhXhXhXhXhXhXhXhXhXhXhXhXhX",
"hXhX$ U D.4X*X*., 3 |.%X).5 ) D.y.hXhXhXh N j.u.j g k hXhXhXhXhXhXhXhXhXhXhXhXhXhXhXhXhXhXhXhXhXhXhX",
"hXhXhX8 Z A.%XU., > L.[././ 7.G k.h.hXhXhXhXhXhXhXhXhXhXhXhXhXhXhXhXhXhXhXhXhXhXhXhXhXhXhXhXhXhXhXhX",
"hXhXhXhX%.'.1X4X9 4 g.C.}.2. .H A.k.hXhXhXhXhXhXhXhXhXhXhXhXhXhXhXhXhXhXhXhXhXhXhXhXhXhXhXhXhXhXhXhX",
"hXhXhXhX~ ).2X<XJ & F V.3X .8 R.<X'.hXhXhXhXhXhXhXhXhXhXhXhXhXhXhXhXhXhXhXhXhXhXhXhXhXhXhXhXhXhXhXhX",
"hXhXhXhXhX`.uX[.z % H '.tXU ) W.2X[.hXhXhXhXhXhXhXhXhXhXhXhXhXhXhXhXhXhXhXhXhXhXhXhXhXhXhXhXhXhXhXhX",
"hXhXhXhXhXhX%XV.v * f.-X>X0.e.w.qX#Xa.hXhXhXhXhXhXhXhXhXhXhXhXhXhXhXhXhXhXhXhXhXhXhXhXhXhXhXhXhXhXhX",
"hXhXhXhXhXhXhXV.m ! D.uXgX!.7.4.4X[.h.hXhXhXhXhXhXhXhXhXhXhXhXhXhXhXhXhXhXhXhXhXhXhXhXhXhXhXhXhXhXhX",
"hXhXhXhXhXhXhXhXM x G.gXfX~.4.4.XX#XhXhXhXhXhXhXhXhXhXhXhXhXhXhXhXhXhXhXhXhXhXhXhXhXhXhXhXhXhXhXhXhX",
"hXhXhXhXhXhXhXhXhX5 W.pXuX8Xq.3.G.A.hXhXhXhXhXhXhXhXhXhXhXhXhXhXhXhXhXhXhXhXhXhXhXhXhXhXhXhXhXhXhXhX",
"hXhXhXhXhXhXhXhXhXhX0.iXfXaX4.f ;.v.hXhXhXhXhXhXhXhXhXhXhXhXhXhXhXhXhXhXhXhXhXhXhXhXhXhXhXhXhXhXhXhX",
"hXhXhXhXhXhXhXhXhXhXhXhXdXsXf 6 C hXhXhXhXhXhXhXhXhXhXhXhXhXhXhXhXhXhXhXhXhXhXhXhXhXhXhXhXhXhXhXhXhX",
"hXhXhXhXhXhXhXhXhXhXhXhXhXhXhXhXhXhXhXhXhXhXhXhXhXhXhXhXhXhXhXhXhXhXhXhXhXhXhXhXhXhXhXhXhXhXhXhXhXhX",
"hXhXhXhXhXhXhXhXhXhXhXhXhXhXhXhXhXhXhXhXhXhXhXhXhXhXhXhXhXhXhXhXhXhXhXhXhXhXhXhXhXhXhXhXhXhXhXhXhXhX",
"hXhXhXhXhXhXhXhXhXhXhXhXhXhXhXhXhXhXhXhXhXhXhXhXhXhXhXhXhXhXhXhXhXhXhXhXhXhXhXhXhXhXhXhXhXhXhXhXhXhX"
};
