/* XPM */
static char *_640378465965[] = {
/* columns rows colors chars-per-pixel */
"50 50 160 2 ",
"   c #F8F8F8",
".  c gray94",
"X  c #F1F1F1",
"o  c #EEEEEE",
"O  c #F3F3F3",
"+  c gray96",
"@  c #F6F6F6",
"#  c gray99",
"$  c #F4F4F4",
"%  c gray97",
"&  c #EFEFEF",
"*  c #D5D6D7",
"=  c #BEBFC1",
"-  c #CDCED0",
";  c #E7E8E8",
":  c #ECECEC",
">  c gray95",
",  c #CBCCCD",
"<  c #A7A9AC",
"1  c #A8AAAD",
"2  c #B3B4B7",
"3  c #BABCBE",
"4  c #CFCFD1",
"5  c #DEDFE0",
"6  c #EBECEC",
"7  c gray93",
"8  c #E4E4E5",
"9  c #E2E3E3",
"0  c #CECFD0",
"q  c #AAACAF",
"w  c #BBBDBF",
"e  c #CBCBCD",
"r  c #E1E1E2",
"t  c #DFE0E1",
"y  c #AEAFB2",
"u  c #C8C9CA",
"i  c #CDCECF",
"p  c #A9ABAE",
"a  c #C3C4C6",
"s  c #EAEAEB",
"d  c #ABACAF",
"f  c #BCBDC0",
"g  c #DBDCDD",
"h  c #DDDDDE",
"j  c #E8E9E9",
"k  c #CCCDCE",
"l  c #DDDEDF",
"z  c #C2C3C5",
"x  c #CECFD1",
"c  c #D8D9DA",
"v  c #E6E6E7",
"b  c #B0B2B5",
"n  c gray91",
"m  c #DFDFE0",
"M  c #FBFBFB",
"N  c #D9DADB",
"B  c #B1B3B5",
"V  c #D0D1D2",
"C  c #EAEAEA",
"Z  c #E8E8E9",
"A  c #B8BABD",
"S  c #D4D5D7",
"D  c #B9BBBD",
"F  c #C9CACC",
"G  c #E2E2E3",
"H  c #CCCDCF",
"J  c #ABADB0",
"K  c #E2E3E4",
"L  c #D0D1D3",
"P  c #B6B7BA",
"I  c #CFD0D1",
"U  c #D7D8D9",
"Y  c #C4C6C7",
"T  c #BBBCBF",
"R  c #D2D3D5",
"E  c #B8B9BB",
"W  c #DCDDDE",
"Q  c #C4C5C7",
"!  c #B8B9BC",
"~  c #B0B2B4",
"^  c gray92",
"/  c #D1D1D3",
"(  c #B6B8BA",
")  c #C5C6C8",
"_  c #D4D4D6",
"`  c #B9BABC",
"'  c #E3E4E4",
"]  c #E6E7E7",
"[  c #EBEBEC",
"{  c #D4D5D6",
"}  c #B8BABC",
"|  c #D8D8D9",
" . c #F2F2F3",
".. c #C1C3C4",
"X. c #B1B3B6",
"o. c #B2B4B6",
"O. c #E5E5E6",
"+. c #CACBCD",
"@. c #E0E1E2",
"#. c #E0E1E1",
"$. c #BDBEC0",
"%. c gray98",
"&. c #CFD0D2",
"*. c #D6D7D8",
"=. c #CBCCCE",
"-. c #DEDEDF",
";. c #B3B5B7",
":. c #C2C4C5",
">. c #CACBCC",
",. c #DCDDDD",
"<. c #BCBDBF",
"1. c #DADBDC",
"2. c #E0E0E1",
"3. c #ACAEB1",
"4. c gray90",
"5. c #DBDCDC",
"6. c #D1D2D3",
"7. c #BABBBD",
"8. c #F3F3F4",
"9. c #E9E9E9",
"0. c #C9CACB",
"q. c #DDDEDE",
"w. c #E7E7E8",
"e. c #B7B8BB",
"r. c #B7B9BB",
"t. c #ADAFB2",
"y. c #BABBBE",
"u. c #C3C5C6",
"i. c #DBDBDC",
"p. c #D3D4D5",
"a. c #C6C7C9",
"s. c #D9D9DB",
"d. c #F9F9F9",
"f. c #FDFDFD",
"g. c #B5B6B9",
"h. c #ADAEB1",
"j. c #E1E2E2",
"k. c #B9BABD",
"l. c #F1F1F2",
"z. c #C9CBCC",
"x. c #DCDCDD",
"c. c #E2E2E2",
"v. c #DEDFDF",
"b. c #F1EAEA",
"n. c #F78C8C",
"m. c #EFEFF0",
"M. c #B2B3B6",
"N. c #BEBFC2",
"B. c #D9D9DA",
"V. c #F6F0F0",
"C. c #F99595",
"Z. c #AFB1B3",
"A. c #CFD1D2",
"S. c #A8A9AC",
"D. c #EFF0F0",
"F. c #AEB0B3",
"G. c #CCCCCE",
"H. c #ECECED",
"J. c #D0D0D2",
"K. c #E4E5E5",
/* pixels */
"  . X   o   O O   X + @ o # . $   .   $ O   X % @ & # & $ @ . * = - ; : % > & % & $ @ :   o > $ o $ ",
". $ $ . + X O O . $ > > + o $ > . $ X > O . $ X > + o + > X $ , < 1 2 3 4 5 6 & + > X @ X + $ > + > ",
"$ > > + > $ O O $ > $ $ > @ > O + > $ O O $ > $ $ > @ 7 8 9 : 0 < < < < < q w e r . $ X $ > > O X $ ",
"O O O O O O O O O O O O O > O O O O O O O O O O O O t y < < u i < < < < < < < < < p a s O O O O O O ",
"> $ $ X $ > O O > $ > > $ . $ O X $ > O O > $ > > s d f g h j k < < < < < < < < < < < l > $ O O $ O ",
"+ > > + X + O O + > $ $ X % > O + > + O O + > + > z u X O $ > x < < < < < < < < < < < c + X > O X $ ",
"X $ $ . + . O O X $ > > + o $ > . $ . > O X $ X v b n + > X $ , < < < < < < < < < < < m . + $ O + > ",
"% X X   & % O O % X + + & M X $   X % O O % X @ N B M & $ + X V < < < < < < < < < < < * % & > $ & $ ",
"& @ + o % & O O & + X . % C @ > Z A V X O & + & S D C % > . + F < < < < < < < < < < < G & % $ O % > ",
"+ X X @ . @ O O @ > $ $ .   X $ H < J K O @ > + L P   . $ $ X I < < < < < < < < < < < U @ . > O . $ ",
"> O O > $ > O O > O O O $ > O O Y < < T X > O > R E > O O > $ H < < < < < < < < < < < W > $ O O $ O ",
"> O O > $ > O O > O O O $ > O O Q < < < - > O O R ! > O O O $ H < < < < < < < < < < < W > $ O O O O ",
"+ X > @ X + O O + > $ $ X   X $ a < < < ~ ^ > + / (   X $ $ > I < < < < < < < < < < < c + X > O X $ ",
". $ $ . @ . O O . $ > X @ o $ > ) < < < < D & X _ ` o + > X + , < < < < < < < < < < < t . @ $ O @ > ",
"+ > > @ . + O : Z ' v ] G [ ' v = < < < < p { + R }   X $ $ > I < < < < < < < < < < < | + . > O . $ ",
". + $ & @ &  ...X.b X.X.b o.b B J < < < < < 2 [ O.W : @ > X + +.< < < < < < < < < < < @.& @ $ O @ > ",
"@ X > % . @ #.< < < < < < < < < < < < < < < < $.$ . %.. $ + X &.< < < < < < < < < < < *.@ . > $ . $ ",
"X $ $ X $ X t < < < < < < < < < < < < < < < < < m $ . $ O > $ =.< < < < < < < < < < < -.X + O O + > ",
"O O O O O O 5 < < < < < < < < < < < < < < < < < ;.j O O O O O i < < < < < < < < < < < g O O O O O O ",
"+ > > + X + h < < < < < < < < < < < < < < < < < 1 :.% X O $ > I < < < < < < < < < < < c + X > O X $ ",
". + $ & @ . r < < < < < < < < < < < < < < < < < < p W @ > X + >.< < < < < < < < < < < @.. @ $ > @ > ",
"@ X X % . @ ,.< < < < < < < < < < < < < < < < < < < o.Z $ + X V < < < < < < < < < < < *.@ . > O . $ ",
". $ $ . + X #.< < < < < < < < < < < < < < < < < < < < +.> X $ , < < < < < < < < < < < m X + $ O + > ",
"@ X > @ . @ h < < < < < < < < < < < < < < < < < < < < <.O $ X I < < < < < < < < < < < U @ . > O . $ ",
"X $ $ . + . #.< < < < < < < < < < < < < < < < < < < < 3 > > $ , < < < < < < < < < < < m . + $ O + > ",
"$ O O $ > O -.< < < < < < < < < < < < < < < < < < < < V O O > i < < < < < < < < < < < 1.O > O O > O ",
"$ O O $ > $ -.< < < < < < < < < < < < < < < < < < < = > O O > - < < < < < < < < < < < 1.$ > O O > O ",
". $ $ . + . 2.< < < < < < < < < < < < < < < < < < 3.4.+ > X $ , < < < < < < < < < < < m . + $ O + > ",
"  . X   o   5.< < < < < < < < < < < < < < < < < < ) # & $ @ . 6.< < < < < < < < < < < {   o > $ o $ ",
"o + + 7   o G < < < < < < < < < < < < < < < < < 7.8.9.% X . @ 0.< < < < < < < < < < < K o % $ >   > ",
"+ > > @ X + q.< < < < < < < < < < < < < < < < J j X   X $ $ > I < < < < < < < < < < < | + X > O . $ ",
"X $ $ X + X w.1 < < < < < < < < < < < < < < < F > + & + > > $ =.< < < < < < < < < < < 5 X + $ O + > ",
"$ > > + > $ O I D E } ` e.3 r.} t.< < < < < y.8.9.-.@ > O $ > 0 < < < < < < < < < < < N $ > O O > O ",
"O O O O O O O O X X X X X X X X u.< < < < p -.O _ ! $ O O O O - < < < < < < < < < < < i.O O O O O O ",
"> $ $ X $ X O O > $ > > $ . $ O ) < < < 1 i O > p.} . $ O > $ k < < < < < < < < < < < l X $ $ O $ > ",
"+ > > @ . + O O + > $ $ .   > $ a < < < E o > + / (   X $ $ X I < < < < < < < < < < < | + . > O X $ ",
"o @ + o   o O O o + X .   C @ > a.< < < s.o + & * y.C % > . @ 0.< < < < < < < < < < < K o   $ >   > ",
"  . X d.o   O O   X + @ o f.. $ a < < ) O   X % I g.f.o $ @ . 6.< < < < < < < < < < < {   o X $ o $ ",
". $ $ & @ . O O . $ X X @ 7 $ > 0 < h.j.O . $ . { k.7 + > X + +.< < < < < < < < < < < 2.. @ $ > @ > ",
"$ > > + > $ O O $ > $ $ > @ > O l.z.5 O O $ > $ p.P @ > O $ > 0 < < < < < < < < < < < N $ > > O X $ ",
"O O O O O O O O O O O O O > O O O O O O O O O O m ~ > O O O O i < < < < < < < < < < < x.O O O O O O ",
"> $ $ X $ > O O > $ > > $ . $ O X $ > O O > $ > [ ;.c.$ O > $ k < < < < < < < < < < < l > $ O O $ O ",
"+ > > + X + O O + > $ $ X % > O + > + O O + > + $ * ;.v.O $ > x < < < < < < < < < < < c + b.n.O X $ ",
"X $ $ . + . O O X $ > > + o $ > . $ . > O X $ X > m.w M.$.N.B., < < < < < < < < < < q G . V.C.O + > ",
"% X X   & % O O % X + + & M X $   X % O O % X @ + & 8.Q e.P V V < < < < < < < < < Z.A.n % & > $ & $ ",
"& @ + o % & O O & + X . % C @ > o + & > O & + & . % C % > . + F < < < < < < S.~ 6.D.. d.& % $ O % > ",
"+ X X @ . @ O O @ > $ $ .   X $ @ X @ O O @ > + $ X   . $ $ X I < < < < < F.G.H.. $ $ & @ . > O . $ ",
"> O O > $ > O O > O O O $ > O O > $ > O O > O > O O > O O > $ H < < < o.J.o O > O O > $ > $ O O $ O ",
"X $ O X $ > O O > O > > $ . $ > X $ > O O > O > > $ . $ > > $ k 1 2 V 4.> O $ > $ > > + > $ O O $ O ",
"@ X X % . @ O O @ > $ + . %.X $ % X @ O O @ > @ + . %.. $ + X * z.K.@ . @ > . @ . $ + o @ . > O . $ "
};
