/* XPM */
static char *_a04a83728504c44f1c16783e21a3ca4g09SU5UXjZUEtmbE[] = {
/* columns rows colors chars-per-pixel */
"64 64 220 2 ",
"   c None",
".  c #020202",
"X  c #0C0600",
"o  c #020B06",
"O  c #0C0A05",
"+  c #030D09",
"@  c #0C0C0C",
"#  c #130A01",
"$  c #1A0C00",
"%  c #150E09",
"&  c #03140B",
"*  c #0B170D",
"=  c #031B0E",
"-  c #15110E",
";  c #19150B",
":  c #041E10",
">  c #091D11",
",  c #131313",
"<  c #1B1612",
"1  c #141C11",
"2  c #1B1B1B",
"3  c #1E1914",
"4  c #220E00",
"5  c #22160C",
"6  c #281705",
"7  c #351800",
"8  c #3A1A01",
"9  c #3A1F08",
"0  c #251D15",
"q  c #221E1B",
"w  c #291F15",
"e  c #052313",
"r  c #0A2416",
"t  c #062916",
"y  c #082917",
"u  c #072C18",
"i  c #0A2D1A",
"p  c #1C2515",
"a  c #122519",
"s  c #13291B",
"d  c #182519",
"f  c #0B341E",
"g  c #12301F",
"h  c #2B241B",
"j  c #242C1B",
"k  c #2A2D1A",
"l  c #28211A",
"z  c #3C2D1F",
"x  c #322A1C",
"c  c #25341F",
"v  c #3B311E",
"b  c #0D3721",
"n  c #0D3C23",
"m  c #173521",
"M  c #232323",
"N  c #2A2926",
"B  c #262728",
"V  c #2C2C2C",
"C  c #292823",
"Z  c #322A21",
"A  c #392E23",
"S  c #312F2D",
"D  c #2B3628",
"F  c #3C332C",
"G  c #36322A",
"H  c #2F2F30",
"J  c #333333",
"K  c #3B3936",
"L  c #3B3B3B",
"P  c #441F00",
"I  c #503719",
"U  c #44392D",
"Y  c #4C3B2A",
"T  c #473922",
"R  c #423E3B",
"E  c #443A31",
"W  c #553F27",
"Q  c #0F4126",
"!  c #104227",
"~  c #114529",
"^  c #3A4837",
"/  c #3A402C",
"(  c #7D4F1F",
")  c #46433C",
"_  c #5C4837",
"`  c #554637",
"'  c #514C34",
"]  c #624A2E",
"[  c #654726",
"{  c #6B5339",
"}  c #775838",
"|  c #684E38",
" . c #404040",
".. c #4E4B45",
"X. c #474942",
"o. c #514A43",
"O. c #504D4A",
"+. c #535246",
"@. c #5A544B",
"#. c #595954",
"$. c #645A49",
"%. c #625E54",
"&. c #635E58",
"*. c #715B43",
"=. c #6C624F",
"-. c #666549",
";. c #696558",
":. c #746354",
">. c #786A54",
",. c #7E705A",
"<. c #7F6449",
"1. c #6F6861",
"2. c #776E65",
"3. c #78756A",
"4. c #7A7875",
"5. c #88582B",
"6. c #84603C",
"7. c #946436",
"8. c #AB723C",
"9. c #866849",
"0. c #926B45",
"q. c #816D53",
"w. c #947454",
"e. c #997755",
"r. c #8A7559",
"t. c #A7784B",
"y. c #B37B47",
"u. c #877767",
"i. c #897B6F",
"p. c #AE865F",
"a. c #BC8753",
"s. c #988367",
"d. c #8A867B",
"f. c #948876",
"g. c #AC8B65",
"h. c #B38E66",
"j. c #AE906D",
"k. c #B5936C",
"l. c #B69A75",
"z. c #A39374",
"x. c #C98F59",
"c. c #CB8D53",
"v. c #D0945B",
"b. c #C2966A",
"n. c #DB9D63",
"m. c #DFA064",
"M. c #CEA275",
"N. c #C4A57E",
"B. c #D5A577",
"V. c #96948A",
"C. c #979694",
"Z. c #988E83",
"A. c #AB9683",
"S. c #A89A8B",
"D. c #A69E95",
"F. c #AAA289",
"G. c #B5A98D",
"H. c #B8A889",
"J. c #A4A393",
"K. c #AAA699",
"L. c #B6A996",
"P. c #BAB69E",
"I. c #B6B4A1",
"U. c #BAB7A8",
"Y. c #B8B3AF",
"T. c #CFAE84",
"R. c #C1B08E",
"E. c #C8B99A",
"W. c #D7AF83",
"Q. c #E9BF8E",
"!. c #E4BE92",
"~. c #C3B3A3",
"^. c #C3BEA3",
"/. c #C9BBAC",
"(. c #CCBEB2",
"). c #D9C39E",
"_. c #EBC698",
"`. c #F6CB9A",
"'. c #CAC6AD",
"]. c #D7C7A9",
"[. c #C2C1BB",
"{. c #D3CDBA",
"}. c #DFD9BD",
"|. c #DAD4B6",
" X c #F9D4A6",
".X c #E2DCBE",
"XX c #E6D8B7",
"oX c #F8DEB3",
"OX c #E6C8A0",
"+X c #FFE6BB",
"@X c #CECBC7",
"#X c #CCCBCB",
"$X c #D5CBC2",
"%X c #DBD2C6",
"&X c #DDD9C6",
"*X c #D8D7D6",
"=X c #E2DEC0",
"-X c #E5DCD2",
";X c #E8DED4",
":X c #E6E3C5",
">X c #ECE6C6",
",X c #EFE9CA",
"<X c #FFECC3",
"1X c #F2EDCD",
"2X c #FDEEC9",
"3X c #F2E8C5",
"4X c #FDF3CE",
"5X c #EEE5DC",
"6X c #F3EED1",
"7X c #F0E7DE",
"8X c #F6F2D3",
"9X c #FFF7D5",
"0X c #FFF8D6",
"qX c #FFFAD9",
"wX c #ECEBE5",
"eX c #E6E6E5",
"rX c #FFFFE1",
"tX c #EFEFF1",
"yX c #FAF9F4",
"uX c #F2EEE6",
/* pixels */
"                                                                                                                                ",
"                                                      . . o @ @ @ , ,                                                           ",
"                                                @ , 2 N H H J J L L J V B , @                                                   ",
"                                            2 V K  . . . . . . . .L L  .L L J M @                                               ",
"                                        , B L  . .L L  .L  . .L L L L L L L R  .H 2 .                                           ",
"                                      , J L  . . .L  .L L L L L L  .L L L L L L L K 2 O                                         ",
"                                    2 J  .L L L L  .L  .L L L  . .L L L L L L L L L L M o                                       ",
"                                  2 K  .L  . .L L L L L L  .L L L L L L L L K K J L L L M .                                     ",
"                                , J  .L L  . .L L L L L L L L L L L L L L J L L L L J L K 2 o                                   ",
"                              O H  .L L L L L L L L L L L L L L L L L L L L L J J J J J J J 2                                   ",
"                            . M  .L L L L L  .L L L L L L L L L L L J L K J H J L J J J J J H @                                 ",
"                            @ K L L L L L L L L L L L L L J L L J L J K K J V 2 B L J J J J J q .                               ",
"                            @ B L L L L L L L L L L L L L L J L L J K J L J K B @ 2 J J J H J S ,                               ",
"                          O 2 H L L L L L L L K L L L J L K L J L J J J H J J J M + q J J H H J M .                             ",
"                          M L L L L L L L L L J L L L L K J J H H J J J J J H H J 2 , H H H H H H @                             ",
"                        2 L L L J L L L J L L L J J L H M H J B B J H J H J H J H B @ V H H J H J 2 .                           ",
"                        V L L L J L L L L H J L K H 2 , C E H V - M J H H J H S H H q M J V H V B B .                           ",
"                      , H L L J J L J L H @ @ 2 N l A 9.B.b.F H @ , V H H H S H S J H V V H H V 2 B @                           ",
"                      2 J K J L L L J L N h A 9.h.M._.`. X`.e.N @ 3 E V S H H H H H J H H J M B 2 , ,                           ",
"                      2 K K L J J J J J E M.!.oX+X2X4X9X9X9X_._ + 0 w.N H B V S J V V S H H M 2 2 O @                           ",
"                      2 J J J J H H J H ` `.4X9X0X0X9X9X0X0X4Xl.< @ l.*.B M 2 H V S B M J B N @ , . . .                         ",
"                      M J M J V B M J M |  X9X9X9X0X9X9X9X0X0XoX{ O S.W.F B , B H J N , V 2 , O . . . .                         ",
"                      M B , H q B 2 H q 9.+XqX9X9X9X9X9X9X0X0X0XN.0 K.+Xe.N , , V H N @ B 2 . . . . . .                         ",
"                      M 2 @ B , B , N q e.+XqX9X9X9X9X9X9X9X0XqXoX` J.qX!._ , o 2 H V . 2 , . . . . . .                         ",
"                      2 , @ q @ q , , 2 p.+XqX0X0X9X0X9X0X0X9X0X9X>.V.qX<Xh.l . , N M . , , . . . .                             ",
"                      @ @ o , . 2 , @ < h.2XqX0X0X9X9X9X0X0X9X:X|.G.).8X.Xj.l @ q M 2 - O @ . . .                               ",
"                      @ . . . . @ < . - k.2X1X1X8X9X0X9X0X>XH.l.G.F.>...G &...;.F.w Y { O o . . .                               ",
"                        . . . . . C 0 . g.4X:XP.F.G..X0XqX,XE.$.) J . O 4.*XK.d..XY 9.h.O  .X..                                 ",
"                        . o . . . Z *.. w.6X&XG.s.,.'.9X9X0X1X{.&X@X4.C.eXyXY.U.4Xw.M.k.h L.&..                                 ",
"                          . . . . < <.3 z o.N , L d.|.0X9X0X0X0XqXyXeX#XY.V.K.:XqXOXoXT.j.z.,                                   ",
"                              . . . Y ..R O.,  .Y.uXqX9X9X9X9X9X9X,XP.I.'.&X8XqX0XqX9XR.q.5                                     ",
"                              . . . Y ].D.*X#X*XyXwX0X9X9X9X9X9X9X0XqXqXqXqX9X9XqX1X3., .                                       ",
"                                .   1 L.'.C.[.@X[.}.9X9X9X9XqX9X9X9X0X9X9X0X0XqX|.@.O                   o o o                   ",
"                                    . f.:XP.:X8X8XqX9X9X9X9X,X,X0X9X0X0X0XqX4XH.A .         . o o & & e i ! i +                 ",
"                                    G ^.qXqX0X0X0X0X9X9X1XP.I.I.'.0XqXqX4X].,.w . . o o = = = e t i n ~ ~ ~ f &                 ",
"                                    =.}.qXqXqX0X0X9XqXqX1XG.U.I.^.1XXXH.-.D & o & = : e e t t u b ~ ~ ~ ~ ~ f =                 ",
"                                      $.f.R.XX>X1X4X8X1X1XXX).l.s.-.^ c n u 1 k k a : : e f Q ~ ~ ~ ~ ~ ~ ~ ~ t                 ",
"                                              =.@.;.-.+.' / j D u f ~ ~ f j 6.c.x.t.} ' c y u f f n n n ~ ~ ~ Q >               ",
"                                                      & : = : i n ~ Q i x T ] } 0.t.y.a.t.[ ] p s e u t u f f f y               ",
"                                                      = e t u g f f p } a.[ * = r 1 p v W } x.r.J.) : t t u f n i               ",
"                                                      = f r c g g T ( c.m.8.I > e e e e : p T :.=X1.= i ! ~ ~ ! *               ",
"                                                      & f m 6.%.3.t.n.m.n.y.5.5 = : : e e e e a / s e y n n ! r .               ",
"                                                      & r f ] :.D.0.c.8.7.} Y - : y u t = = : : e e t y f b i +                 ",
"                                                      & = i k _ (.z.s.r.:.i.S.O.e u f ! ! f f u u u b n Q b &                   ",
"                                                      & e e y %.(.$X~./.~.A.%XL.s e t u f ! ~ ~ Q ~ ~ ~ f &                     ",
"                                                      & e > y ^ L.-X-X-X-XA.$X;X#.= e : = : u f Q Q ~ f &                       ",
"                                                      & e e t i O.%X5X5X5X~.D.Y.K & e e e = = = e y e &                         ",
"                                                      & y t t f g 3.$X@XK.1.x 6 6 1 & = e e e : e & o                           ",
"                                                      & f f f f Q m D S X.5 7 6 F f.O.o.d a e e = o                             ",
"                                                      + f ! n f f u t B O.5 $ $ o.i.2.C.1...o & o                               ",
"                                                      o r ! ! f e : * $ 4 7 P 7 U o.@.2.%.K . .                                 ",
"                                                        r ~ f > d l 9 8 6 6 5 T 2.i.i.K N <                                     ",
"                                                        = b d @.S.L.i.5 X & e y D D.Z.w .                                       ",
"                                                        & t #./.A.:.h # # = e = o q % $ X                                       ",
"                                                        o & X.;.C @ X # O = = o     . # # X                                     ",
"                                                          o = = & & > : e & . .       . # # O                                   ",
"                                                            . & & = = = & o       .   . X # -                                   ",
"                                                                    o .                 . X X                                   ",
"                                                                                          X .                                   ",
"                                                                                                                                ",
"                                                                                                                                ",
"                                                                                                                                ",
"                                                                                                                                ",
"                                                                                                                                "
};
