/* XPM */
static char *effc9a6568c3459afada5c92dc5b8842znn3UMwaGyPZj7P9[] = {
/* columns rows colors chars-per-pixel */
"64 64 226 2 ",
"   c None",
".  c #721916",
"X  c #6F1717",
"o  c #77231B",
"O  c #773C1A",
"+  c #6D2317",
"@  c #7B3821",
"#  c #744314",
"$  c #7D4915",
"%  c #76451B",
"&  c #7B431C",
"*  c #7D4B1A",
"=  c #794613",
"-  c #7B4B23",
";  c #7E5A38",
":  c #7C5229",
">  c #7D6042",
",  c #871C1D",
"<  c #911B1F",
"1  c #85381C",
"2  c #8D2D1F",
"3  c #941E22",
"4  c #8A2523",
"5  c #972727",
"6  c #8B352B",
"7  c #843823",
"8  c #9B332E",
"9  c #953A29",
"0  c #9C3E33",
"q  c #953733",
"w  c #A33A30",
"e  c #AC3C3A",
"r  c #A63437",
"t  c #B8393C",
"y  c #A92B30",
"u  c #C33B3F",
"i  c #84511E",
"p  c #834E19",
"a  c #824C24",
"s  c #8A4A2A",
"d  c #8A4729",
"f  c #96442B",
"g  c #98402F",
"h  c #855424",
"j  c #8D542E",
"k  c #8B5B2B",
"l  c #885627",
"z  c #925A2C",
"x  c #9A4937",
"c  c #885E35",
"v  c #9C5A33",
"b  c #975834",
"n  c #A94D35",
"m  c #AC553C",
"M  c #A65937",
"N  c #B3553D",
"B  c #8D623A",
"V  c #8D6032",
"C  c #946333",
"Z  c #9B6633",
"A  c #9B6934",
"S  c #946639",
"D  c #9C653B",
"F  c #966B3E",
"G  c #9C6D3C",
"H  c #93632F",
"J  c #AB643C",
"K  c #A26F3B",
"L  c #A76938",
"P  c #B16A3C",
"I  c #A4713B",
"U  c #A9753D",
"Y  c #B83E40",
"T  c #C13D42",
"R  c #9B5144",
"E  c #AB4C47",
"W  c #B74845",
"Q  c #A85848",
"!  c #B85D47",
"~  c #A85653",
"^  c #B75651",
"/  c #86684A",
"(  c #926A42",
")  c #9B6F42",
"_  c #906F4F",
"`  c #9B744A",
"'  c #89745C",
"]  c #927351",
"[  c #816D56",
"{  c #A96D43",
"}  c #B96D45",
"|  c #B3614B",
" . c #B8694A",
".. c #AC7A43",
"X. c #A77748",
"o. c #B27D45",
"O. c #BC744B",
"+. c #B47E4D",
"@. c #BA7C4B",
"#. c #B47647",
"$. c #B76D53",
"%. c #BE7353",
"&. c #AD7651",
"*. c #8B7C68",
"=. c #BD7766",
"-. c #B06F62",
";. c #C44748",
":. c #C5544E",
">. c #CD5C53",
",. c #CA6A57",
"<. c #CB735C",
"1. c #C67856",
"2. c #CC6F57",
"3. c #D37F63",
"4. c #AF814F",
"5. c #B58145",
"6. c #B3824B",
"7. c #BA864C",
"8. c #BC894E",
"9. c #A48259",
"0. c #B48553",
"q. c #BC8B53",
"w. c #BD8F5A",
"e. c #B78456",
"r. c #BE925D",
"t. c #B7915E",
"y. c #9C8366",
"u. c #968673",
"i. c #98917F",
"p. c #8D8978",
"a. c #B69467",
"s. c #B18B75",
"d. c #AA9576",
"f. c #BA9D76",
"g. c #B39977",
"h. c #B18A6A",
"j. c #BCA27D",
"k. c #C4834D",
"l. c #C98A54",
"z. c #C38E5D",
"x. c #C6875B",
"c. c #C49255",
"v. c #CA9655",
"b. c #CA945B",
"n. c #CA9A5C",
"m. c #C6975C",
"M. c #D7A25E",
"N. c #C58966",
"B. c #D58665",
"V. c #CC9D63",
"C. c #C79C6C",
"Z. c #CB9C6E",
"A. c #D39B69",
"S. c #D79F72",
"D. c #CEA068",
"F. c #D3A265",
"G. c #D3A56C",
"H. c #D5A86D",
"J. c #D9A96D",
"K. c #C4A273",
"L. c #CBA475",
"P. c #CDA878",
"I. c #D6AA75",
"U. c #DAAE76",
"Y. c #D5AD7B",
"T. c #DAAC79",
"R. c #D6A473",
"E. c #DDB27C",
"W. c #DEB176",
"Q. c #E4AD7E",
"!. c #E1AB78",
"~. c #E2B57C",
"^. c #E6B97E",
"/. c #EAB97B",
"(. c #EBB874",
"). c #9B9C8F",
"_. c #A99B86",
"`. c #BF9E8C",
"'. c #ABA38C",
"]. c #B8A687",
"[. c #AAA493",
"{. c #A6A496",
"}. c #B7AD99",
"|. c #BEB29A",
" X c #ADADA2",
".X c #C5A987",
"XX c #DBB786",
"oX c #C6B69B",
"OX c #C9B899",
"+X c #D0AF82",
"@X c #E4B983",
"#X c #EBBD85",
"$X c #E5BD8B",
"%X c #E9BE8A",
"&X c #E5B581",
"*X c #C7BCA8",
"=X c #DBC39B",
"-X c #EFC087",
";X c #ECC28C",
":X c #F3C285",
">X c #F2C58C",
",X c #F5C88F",
"<X c #EDC591",
"1X c #E1C299",
"2X c #F2C792",
"3X c #F4C994",
"4X c #F5CC99",
"5X c #F8CC96",
"6X c #CDC2AD",
"7X c #C9C6A9",
"8X c #D4C7AA",
"9X c #D5CBB6",
"0X c #DACEB6",
"qX c #D7CDB9",
"wX c #D9CEBA",
"eX c #DCD1BC",
"rX c #D8D3B3",
"tX c #CFCBB3",
"yX c #E1D6BE",
"uX c #E3E4BD",
"iX c #E6DAC3",
"pX c #E6DAC4",
"aX c #EAEAC5",
"sX c #EBE2C7",
"dX c #F4F4D7",
"fX c #EFEED1",
/* pixels */
"                                                                                                                                ",
"                                                                                                                                ",
"                                                                                                                                ",
"                                                                                                                                ",
"                                                                                                                                ",
"                                                                                                                                ",
"                                                                                                                                ",
"                                                                                                                                ",
"                                                                                                                                ",
"                                                          wXeXwXqXwX                                                            ",
"                                              tX6XqXwXwXeXwXyX0XwX0X9XwX9X9X9XqX                                                ",
"                                            *XqXeXeXpXpXsXyXpXpXpXiXyXpXyXwXeXiXeX*X                                            ",
"                                          |.*X}.6X9XyXOX0X].OX9X6XOX8X8XOXOX6X|.qX6X6X}.                                        ",
"                                        d.g.d.a.].f.f.P.P.E Q R n R -..X~.Y.K.K.f.].OX_.                                        ",
"                                      [.d.K.E.@XE.~.&X;X%X<.t T Y T 3.&X%X;X%X%XXXP.L.u.                                        ",
"                                      d.*.L.$X%X#X#X>X;X%XQ.;.T ;.:.&X%X<X;X%X%X$X$XY.]                                         ",
"                                      u.] L.@X%X-X:X:X>X>X;X<.T ;.3.;X<X<X<X<X$X$X%XT.( *.                                      ",
"                                      u.` L.$X%X-X:X:X:X3X2X!.W W Q.2X5X4X<X<X<X%X$XXX( [                                       ",
"                                      ' ) C.@X$X;X:X:X,X5X4X2X2.<.5X5X5X4X<X<X%X$X$XI.G '                                       ",
"                                      / ( w.Y.@X#X>X3X3X4X4X4X%X#X5X4X4X4X<X2X;XXXI.a.S >                                       ",
"                                      _ S s b .X=X=X@X;X<X<X;XE.~.>X>X3X%X$X$XOXf.x j V ;                                       ",
"                                    _ / ) 0 -.dXfXaXOX&.r.G.H.D.F.J.F.x.&.8XdXdXrX~ x S > >                                     ",
"                                    c c &.| <.sXaXuXoXW | D.I.H.H.I.V.Q ~ rXaXaXtX~  .` : :                                     ",
"                                      B ` Z.-.*XtX*Xs.^ Z.;X-XH.D.;X-XB.^ ].tX7X_.$.Z.) l                                       ",
"                                      ( ) a.T.N.s.s.N.S.-X;XE.F.V./.-X@XZ.w.s.s.h.T.z.K c                                       ",
"                                      ( ( X.V.T.+XT.E.&X@X@X^.m.v./.^.^.^.E.T.Y.Y.V.o.A c                                       ",
"                                      B @ @ +.V.G.H.L.f.P.^.^.(.(./.~.P.j.P.I.G.m...2 a k                                       ",
"                                        + o d h.a.d.{.}.{.j.U.(.(.H.d.{.{.{.h.t.9.6 , o                                         ",
"                                        o % s *.i.{. X].]. X_.g.d.i.).'.].[.).p.' a O .                                         ",
"                                        @ % * H &.f.Y.E.W.XX].'.'.].Y.U.U.L.a.` l * = O                                         ",
"                                          # * * i U I.E.^.-X>XW.E.,X>X~.E.G.C $ $ # #                                           ",
"                                              - * * 5.E.XX-XW.F.F.W.E.^.U.K # # %                                               ",
"                                                h * i +.w.7.o.U ....5.q.U # # %                                                 ",
"                                              S C - h k z l l p * i i l h % - k k                                               ",
"                                              4.0.s a G I I I Z A I I A C - l ..{                                               ",
"                                            4.q.+.@ & Z U U o.L U 5.5.U z & 7 6.6.I                                             ",
"                                            e.e.0 . - Z L L L P P P J L Z % . b 0.X.                                            ",
"                                          e.C.I.q X % A 7.@.O.l.l.O.P o.Z O X g I.w.                                            ",
"                                          +.G.x.8     j 5.@.O.k.l.1.o.U a   6 6 A.V.X.                                          ",
"                                          X.b.m 9     C v n 1.k.l.P n v a     4 #.w.D                                           ",
"                                          X.x.#.z   Q M J e 1.(.(.1.e M f 0   j &.0.c                                           ",
"                                          e.2.A.n.  m.%.W e O.J.F.} r 1.x.x   V.x.$.K                                           ",
"                                          x.>.:.V.q.R.!.,.W Q 5.5.N ,.#XE.o.6.N.E <.{                                           ",
"                                          z.1.O.5.5.E.~.>.Y 4 O 1 e B.:X^.k.I q.! 3.{                                           ",
"                                          L I r.0.c.^.B.,.1.5 . f | ,.;X-X7.K D.z.K C                                           ",
"                                            $     n.^.B.l.J <   f o.,./.#X7.    i =                                             ",
"                                                  v.J.F.| 4 ,     9 l.I.J.7.                                                    ",
"                                                  7.v.v.n <       5 o.V.V.8.                                                    ",
"                                                  5.n.n.N 5       8 O.n.V.q.D                                                   ",
"                                                  6.r.l.w <       < n n.F.c.D                                                   ",
"                                                  q.V.6.f 1         d 8.F.v.K                                                   ",
"                                                n.n.b.+.M s         b @.n.c.c.                                                  ",
"                                              F.M.v.N N N 8         m m O.c.c.n.                                                ",
"                                          | $.1.2.n y g M 4         M 8 0 %.}  . .                                              ",
"                                            r r t 5 3 5               5 5 r r r 8                                               ",
"                                                                                                                                ",
"                                                                                                                                ",
"                                                                                                                                ",
"                                                                                                                                ",
"                                                                                                                                ",
"                                                                                                                                ",
"                                                                                                                                ",
"                                                                                                                                ",
"                                                                                                                                "
};
