/* XPM */
static char *result[] = {
/* columns rows colors chars-per-pixel */
"64 64 154 2 ",
"   c #1C3343",
".  c #233845",
"X  c #253C4C",
"o  c #35434D",
"O  c #3B464F",
"+  c #374653",
"@  c #3B4B54",
"#  c #384C5A",
"$  c #404F5C",
"%  c #435359",
"&  c #445864",
"*  c #4B5860",
"=  c #4E5E6A",
"-  c #555F67",
";  c #51636E",
":  c #5B656D",
">  c #556772",
",  c #566975",
"<  c #596973",
"1  c #576A78",
"2  c #5D6D7A",
"3  c #5F727D",
"4  c #616E75",
"5  c #606F79",
"6  c #657176",
"7  c #64727C",
"8  c #69747D",
"9  c #6C797F",
"0  c #576E80",
"q  c #5E7382",
"w  c #647581",
"e  c #6C7781",
"r  c #677A86",
"t  c #6C7A83",
"y  c #727D86",
"u  c #7C7F82",
"i  c #717F89",
"p  c #7B8186",
"a  c #74838C",
"s  c #7D868D",
"d  c #7E888F",
"f  c #768792",
"g  c #778993",
"h  c #7B8A94",
"j  c #7B8E9A",
"k  c #7F9195",
"l  c #80878C",
"z  c #838C8E",
"x  c #838D94",
"c  c #879095",
"v  c #8A9297",
"b  c #84929B",
"n  c #8B959C",
"m  c #8F999F",
"M  c #939596",
"N  c #90969B",
"B  c #92999E",
"V  c #989C9F",
"C  c #8696A2",
"Z  c #8997A2",
"A  c #8C99A3",
"S  c #8B9EAC",
"D  c #939DA3",
"F  c #999EA3",
"G  c #919FA9",
"H  c #989EAA",
"J  c #95A1A6",
"K  c #9BA1A4",
"L  c #94A3AC",
"P  c #9BA4AA",
"I  c #9DA9AE",
"U  c #95A6B1",
"Y  c #99A7B0",
"T  c #96ABB5",
"R  c #9AAAB3",
"E  c #95AAB8",
"W  c #9FB0B4",
"Q  c #9FB1BA",
"!  c #A0A6A9",
"~  c #A3AAAE",
"^  c #ADAEAF",
"/  c #A4ADB3",
"(  c #A8ADB1",
")  c #A1AFB8",
"_  c #A4B0B6",
"`  c #AAB1B6",
"'  c #A5B2BA",
"]  c #ABB5BB",
"[  c #AEB8BE",
"{  c #B2B6BB",
"}  c #B3BABE",
"|  c #BABDBD",
" . c #BAC0BE",
".. c #A3B6C3",
"X. c #ADBBC2",
"o. c #B2BCC2",
"O. c #BABFC2",
"+. c #B1BFC9",
"@. c #B9BFC9",
"#. c #ADC2C7",
"$. c #AFC3CF",
"%. c #B5C1C6",
"&. c #BBC2C5",
"*. c #B5C2CA",
"=. c #BCC5CA",
"-. c #BCC8CE",
";. c #BDCCD3",
":. c #BBCED9",
">. c #C3C4C5",
",. c #C2C6CA",
"<. c #C2CACD",
"1. c #CACCCE",
"2. c #C3CDD2",
"3. c #C9CED2",
"4. c #C5D1D5",
"5. c #CBD2D5",
"6. c #C6D3DB",
"7. c #CCD5DA",
"8. c #CCD9DE",
"9. c #D2D4D5",
"0. c #D2D6D9",
"q. c #D4DADD",
"w. c #DBDCDD",
"e. c #CAD6E0",
"r. c #CEDBE2",
"t. c #D5DEE3",
"y. c #DBDEE1",
"u. c #D5E2E7",
"i. c #DCE2E5",
"p. c #D5E4E9",
"a. c #DEE6EA",
"s. c #DFE8EC",
"d. c #E2E4E5",
"f. c #E2E6E9",
"g. c #E4EAEC",
"h. c #EAECED",
"j. c #F0EEEE",
"k. c #EEF0EF",
"l. c #F0F0EF",
"z. c #E3EEF1",
"x. c #EBEEF1",
"c. c #F3EFF3",
"v. c #E6F0F3",
"b. c #EDF2F3",
"n. c #E7F5FA",
"m. c #ECF5F9",
"M. c #EFF8F9",
"N. c #F3F4F5",
"B. c #F8F7F6",
"V. c #F7F8F7",
"C. c #FBFAF6",
"Z. c #F3F7F9",
"A. c #F5FAFB",
"S. c #FEFFFE",
/* pixels */
"S.S.S.S.S.S.S.S.S.S.S.S.C.S.i.2 g =.-.e S.5.F ~ d.S.S.S.S.S.S.S.S.S.S.S.S.S.S.S.x.G t.8 0.n.#.4 h.S.S.S.S.S.S.S.S.S.S.S.S.S.S.S.",
"S.S.S.S.S.S.S.S.S.S.S.S.S.,.: J a.L g.7 f.S.S.S.S.S.S.S.S.S.S.S.S.S.S.S.S.S.S.S.S.D D q.) ' % q.S.S.S.S.S.S.S.S.S.S.S.S.S.S.S.S.",
"S.S.S.S.S.S.S.S.S.S.S.N.3.[ t.*.A.b D } } S.C.S.S.S.S.S.S.S.S.S.S.S.S.S.S.S.N.A.S.A.- t.X.b f.S.C.S.S.S.S.S.S.S.S.S.S.S.S.S.S.S.",
"S.S.S.S.S.S.S.S.S.S.S.A.m.-.n I b._ e P 3.S.S.S.C.S.S.S.S.S.S.S.S.S.S.S.A.w.m + + L P D x.V.S.S.S.S.S.S.S.S.S.S.S.S.S.S.S.S.S.S.",
"S.S.S.S.S.S.S.S.S.S.S.Z.*.b +.g.` t.g.h.5.S.C.S.S.S.S.S.S.S.S.S.S.S.S.S.N.b.S.-.S 0 q y 5.=.=.o.=.g.C.S.S.S.S.S.S.S.S.S.S.S.S.S.",
"S.S.S.S.S.S.S.S.S.S.S.x.&.i.S 0.b.B 5.S.V.S.S.S.S.S.S.S.S.S.S.S.S.S.S.S.S.S.S.S.] y.m x z.7.e.5.-.q.N.S.S.S.S.S.S.S.S.S.S.S.S.S.",
"S.S.S.S.S.S.S.S.S.S.g.O.b.2.c / S.q.F S.S.S.S.S.S.S.S.S.S.S.S.S.S.S.S.S.A.S.A.S.b X.A.g.S.S.S.S.S.S.S.S.S.S.S.S.S.S.S.S.S.S.S.S.",
"S.S.S.S.S.S.S.S.S.S.b.S.2.<.y.x S.A.f.Z.S.S.Z.C.S.w.Z.S.S.S.S.S.S.S.S.S.C.S.S.S.b E :.= = 8 / Z.S.S.S.S.S.S.S.S.S.S.S.S.S.S.S.S.",
"S.S.S.S.S.S.S.S.S.S.S.h.P S.S.v b.S.A.S.S.S.x.q.S.,.5.S.S.S.S.S.S.S.S.S.S.S.A.S.Y i D D u.h.x.Z.S.S.S.S.S.S.S.S.S.S.S.S.S.S.S.S.",
"S.S.S.S.S.S.S.S.S.S.S.1.1.S.S.y.h.S.S.S.S.S.S.d.h.y.9 S.S.S.S.S.S.S.S.S.S.C.S.S.&.9.S.S.S.S.S.S.S.S.S.S.C.S.C.C.C.S.S.S.S.S.S.S.",
"S.S.S.S.S.S.S.S.S.S.S.d.C.S.S.S.S.S.S.S.S.S.A.S.y.A.u y.S.S.S.S.S.S.S.S.A.S.b.q.x.S.S.C.S.S.S.S.S.S.S.C.S.S.V.u.S.S.S.A.S.C.C.S.",
"S.S.S.S.S.S.S.S.S.S.V.V.S.C.S.S.S.S.S.S.S.S.S.S.N.d.I f.S.S.S.S.S.S.S.S.S.f.y.C.S.S.S.S.S.S.S.S.S.S.S.5.h.S.S.D z b.S.S.S.S.S.C.",
"i.t.0.a.S.S.S.S.S.S.S.S.S.S.S.S.S.S.S.S.S.S.S.S.S.q.2.S.S.S.S.S.S.S.S.N.5.f.S.S.S.S.S.S.S.S.S.S.S.S.S.f.B 7.S.C.v + , X.4.5.y.f.",
"S.A.A.S.S.S.S.S.S.S.S.S.S.S.S.S.S.S.S.S.C.h.f.c.=.<.( 0.S.A.S.S.S.S.S.h.N.S.S.S.S.S.S.S.S.S.S.S.S.S.A.S.h./ ] l.S.7.....2 3.S.C.",
"S.S.S.S.S.S.S.S.S.S.S.S.S.S.S.S.S.S.S.A.m.4.) ] 2.r.g.D i.S.S.C.S.S.S.S.S.S.S.S.S.S.S.S.S.S.S.S.S.S.S.S.S.S.q.=.X.) S.U h S.S.S.",
"S.S.S.S.S.S.S.S.S.S.S.S.S.S.S.S.S.S.S.S.S.S.S.Z.' o.A.q.x N.S.S.S.S.S.S.S.S.S.S.S.S.S.S.S.S.S.S.S.S.S.B.d.g.k.q.> t g.7 a.S.S.S.",
"S.S.S.S.S.S.S.S.S.S.S.S.S.S.S.S.S.S.S.S.S.A.S.p n Z.h.S.d.y.V.S.S.S.S.S.S.S.S.S.S.S.S.S.S.S.S.S.f.1.G 6 , h 2.<.a 7 W 7.S.C.S.S.",
"S.S.S.S.S.S.S.S.S.S.S.S.S.S.S.S.S.S.S.C.C.S.d.q.A.} N.C.S.S.S.S.S.S.S.S.S.S.S.S.S.S.S.S.S.S.S.C.B.w.<.2.t.7.*./ Y T   8.S.S.S.S.",
"S.S.S.S.S.S.S.S.S.S.S.S.S.S.S.S.S.S.S.C.b.S.S.h.c ] S.C.S.S.S.S.S.S.S.S.S.S.S.S.S.S.S.S.S.S.S.g.' C L P N.' *.K _ S.9 O b.S.S.A.",
"S.S.S.S.S.S.S.S.S.S.S.S.S.S.S.S.S.S.S.S.y.&.m.i.z.<.g.S.S.S.S.S.S.S.S.S.S.S.S.S.S.S.S.S.S.x.9.0.-.$.;.-.N.8 x ( &.S.S.<.=.g.C.S.",
"S.S.S.S.S.S.S.S.S.S.S.S.S.S.S.S.S.S.S.S.A.~ ~ o.X.t.F f.S.S.S.S.S.S.S.S.S.S.S.S.S.S.S.S.S.b.d.h.7.Z 5.7.2.&.' P f.S.B.S.S.S.S.S.",
"S.S.S.S.S.S.S.S.S.S.S.S.S.S.S.S.S.S.S.S.Z.u.J t / S./ v S.S.S.S.S.S.S.S.S.S.S.S.S.S.S.S.S.S.0.` 7.h q.A.D Z.N.&.S.S.S.S.S.S.S.S.",
"S.S.S.N.C.S.S.S.S.S.S.S.S.S.S.S.S.S.A.S.b.,.P ;.o.f.S.K C.S.S.S.S.S.S.S.S.S.S.S.S.S.S.S.C.,.) A.S.h N.S.J 9.S.N.A.S.S.S.S.S.S.S.",
"S.S.S.i.N.S.u.C.S.S.S.S.S.S.S.S.S.C.S.S.S.S.A.g.b J S.h.h.S.S.S.S.S.S.S.S.S.S.S.S.S.S.S.h.9.S.S.x.N S.S.w.c.S.S.S.S.S.S.S.S.S.S.",
"S.S.S.h.f.A.} C.S.S.S.S.S.S.S.S.N.N.S.a.b 9 -.C ;.6 S.S.C.S.S.S.S.S.S.S.S.S.S.S.S.S.S.S.h.S.S.S.A.y.S.S.C.S.S.S.S.S.S.S.S.S.S.S.",
"S.S.S.Z.f.i.a S.C.S.S.S.S.S.S.S.S.9.0.q.] b , #.A.[ b.S.S.S.S.S.S.S.S.S.C.S.C.S.S.S.S.S.S.S.S.S.S.S.S.S.S.S.S.S.S.S.S.S.S.S.S.S.",
"S.S.S.A.h.q.7 S.S.S.S.S.S.S.S.S.S.A.5.&.z.5.2.=.d.B.h.S.S.S.S.S.S.S.S.S.S.w.1.S.S.S.S.S.S.S.C.S.S.S.S.S.S.S.S.S.S.S.S.S.S.S.S.S.",
"S.S.S.A.g.P ` S.A.S.S.S.S.S.S.S.S.a.t.2./ ) t.P a.S.C.S.S.S.S.S.S.S.S.S.q.x Z.S.A.N.S.S.S.S.S.S.S.S.S.S.S.S.S.S.S.S.S.S.S.S.N.V.",
"o.z.b.M.2.2.C.S.S.S.S.S.S.S.A.w.%.J a # a ' i.Y N.S.S.S.S.S.S.S.S.C.S.f.@ <.S.y.7.N.S.S.S.S.S.S.S.S.S.S.S.S.S.S.S.S.S.S.S.S.h.9.",
"=.] P ,.] t.S.S.S.S.S.S.S.S.S.A.8.%.r.X.2.[ M.,.b.S.S.S.S.S.S.S.S.C.S.x ~ S.9.d.S.S.S.S.S.S.S.S.S.S.S.S.S.S.S.S.S.S.S.S.S.S.S.S.",
"S.d.y.y.7.o.S.A.S.S.S.S.S.S.h.1.B [ [ J q.D A.C.A.S.S.S.S.S.S.S.S.C.S.P i.w.j.S.S.S.S.S.S.S.S.S.S.S.S.S.S.S.S.S.S.S.S.S.S.S.S.S.",
"y 8 %.a.z.Z S.S.S.S.S.S.S.S.N.h.g.m.I g.d.{ S.S.S.S.S.S.S.S.S.S.S.S.Z.4.2.Z.S.S.S.S.S.S.S.S.S.S.S.S.S.S.S.S.S.S.S.S.S.S.N.S.C.h.",
"b.S.f.b.A.x a.S.C.S.S.S.S.S.S.S.S.Z.N.S.S.d.h.S.S.S.S.S.S.S.S.S.S.2.P ..g.S.C.S.S.S.S.S.S.S.S.S.S.S.S.S.S.S.S.S.S.S.S.C.N.S.A.N.",
"_ n w.S.S.i.q.S.S.S.S.S.S.S.S.S.S.C.S.S.C.S.S.S.S.S.S.S.S.S.C.d.c B h.7.Y f.S.S.S.S.S.S.S.S.S.S.S.S.S.S.S.S.S.S.S.S.S.C. .g.S.g.",
"-.<.S.S.S.S.S.C.S.S.S.S.S.S.S.S.S.S.S.S.S.S.S.S.S.S.S.S.S.C.h.^ [ S.d.y.7.b 8.h.S.S.S.S.S.S.S.S.S.S.S.S.S.S.S.S.S.S.C.S.O.D S.i.",
"2.3.S.S.S.S.S.S.S.S.S.S.S.S.S.S.h.S.S.S.S.S.S.S.S.S.S.S.S.S.S.S.S.A.f.P i.h.~ P 0.C.S.S.S.S.S.S.S.S.S.S.S.S.S.S.S.S.Z.y.t.U h 8.",
"x.P x.S.S.S.S.S.S.C.S.S.S.S.S.N.w.S.S.S.S.S.S.S.S.S.S.S.S.S.S.C.C.N.b.4.* S.S.S.Z.N.S.S.S.S.S.S.S.S.S.S.S.S.Z.S.C.S.S.d.P n Z ) ",
"S.y a.S.S.S.S.S.S.S.S.C.h.S.S.5.,.S.S.S.S.S.S.S.S.S.S.S.S.S.S.S.S.f.[ S.h %.S.S.S.S.S.S.S.S.S.S.S.S.S.S.S.S.y.N.g.b.A.A.y.,.2.t.",
"S.v h.S.S.S.S.S.S.S.S.C.V c.S.] y.S.C.S.S.S.S.S.S.S.S.S.S.S.A.C.S.g.a 0.N.2.S.A.S.S.S.S.S.S.S.S.S.S.C.C.C.S.w.,.g.t # ;.z.4.x 4.",
"S.t.S.C.S.S.S.S.S.A.C.S./ ( b.{ A.q.S.S.S.S.S.S.S.S.S.S.S.S.S.S.i.=.5.D S.S.C.C.S.S.S.S.S.S.S.S.S.S.V.N.Z.A.S.O.4.A.A ; k 4.6 3.",
"C.A.C.C.S.S.S.S.S.u.w.S.f.s ' f.2.u.S.S.S.S.S.S.S.S.S.S.S.S.S.u / 6.x.i.x.S.S.b.Z.S.S.S.S.S.S.S.S.S.A.,.o.D J u.=.q.{ *.e.Z.s N.",
"S.S.S.S.S.S.S.S.S.h.z q.S.G o.6.7.C.S.S.S.S.S.S.S.S.S.S.C.S.z a S.2.S t.y.*.0.b.A.S.S.S.S.S.S.S.C.h.g.s.*.X.a X b R q.%.*.S.9.S.",
"S.S.S.S.C.S.S.A.A.S.u._ <.f.X.c 5.S.S.S.S.S.S.S.S.S.S.S.S.y.{ S.A.0.i w ' c 7.S.S.S.S.S.S.S.S.S.A.h.} c %.r.X.] *.X.p.b b.S.N.C.",
"S.S.S.S.S.S.S.A.1.a.,.u.2.o.b 2.Z.b.S.S.S.S.S.S.S.S.S.S.Z.Z.S.S.,.P e.j o.S.S.S.S.S.S.S.S.S.S.S.S.S.S.Z.5.h } q.m S._ q.S.S.S.S.",
"S.S.S.S.S.S.S.S.1.! 8 t S.Y t.' &.N.S.S.S.S.S.S.S.S.S.S.C.S.S.3.& r.=.' ' 1.C.S.S.S.S.S.S.S.S.S.S.S.C.S.1.y.S.D <.S.d.N.S.S.S.S.",
"S.S.S.S.S.S.A.S.q.n u.f z.p.7 P S.S.S.S.S.S.S.S.S.S.S.C.S.S.S.; { ' x.Z.N.C.S.S.S.S.S.S.S.S.S.S.S.S.C.S.S.S.N.{ C.S.C.C.S.S.S.S.",
"S.S.S.S.S.S.S.S.S.a ] <._ < A S.C.S.S.S.S.S.S.S.S.S.S.S.S.S.7.O.S.Z Q a.N.S.S.S.S.S.S.S.S.S.S.S.S.S.S.S.S.S.S.h.x.S.S.S.S.S.S.S.",
"S.S.S.S.S.b.1.<.g.a.: b.` q.S.V.S.S.S.S.S.S.S.S.S.S.S.S.S.A.g.S.y.*.q # @ i.S.C.C.S.S.S.S.S.S.S.S.S.S.S.S.S.S.S.S.S.S.S.S.S.S.S.",
"S.S.S.S.h.8.f . o k k ] m.S.C.S.S.S.S.S.S.S.S.S.S.S.S.S.S.S.S.S.Y t.Z 6.[ F b.S.C.S.S.S.S.S.S.S.S.S.S.S.S.S.S.S.S.S.S.S.S.S.S.S.",
"S.S.S.S.B.S.S.s.X.f ; n ;./ ' U ' d.S.S.S.S.S.S.S.S.S.S.S.S.S.x.b t.3.0.Z.f.q.0.g.S.S.S.S.S.S.S.S.S.S.S.S.S.S.S.S.S.S.S.S.S.S.S.",
"S.S.S.S.S.C.S.Z.b Z.M 5.S.Z.N.b.f.b.S.S.S.S.S.S.S.S.S.S.S.C.S.w.R s.H r.o.} <.f.S.S.S.S.S.S.S.S.S.S.S.S.S.S.S.S.S.S.S.S.S.S.S.S.",
"S.S.S.S.S.S.S.b.r u.b.t.5.w.N.S.S.S.S.S.S.S.S.S.S.S.S.S.S.S.S.| 7.a.R 2 R n.S.S.S.S.S.S.S.S.S.S.S.S.S.S.S.S.S.S.S.S.S.S.S.S.S.S.",
"S.S.S.S.S.S.S.x.w X.y X 3 s >.S.S.S.S.S.S.S.S.S.S.S.S.S.S.S.V.N.S.,.;.S X 2 ) c.S.S.S.S.S.S.S.S.S.S.S.S.S.S.S.S.S.S.S.S.S.S.S.S.",
"S.S.S.S.S.S.S.S.j D ,.a.S.S.S.C.S.S.S.S.S.S.S.S.S.S.S.S.S.S.S.S.A.n %.&.e.X.A <.b.S.S.S.S.S.S.S.S.S.S.S.S.S.S.S.S.S.S.S.S.S.S.S.",
"S.S.S.S.S.S.S.f.5.S.S.S.S.C.S.S.S.S.S.S.S.S.S.S.S.S.S.h.C.S.S.S.A.B g./ ( 8.8.*.4.A.S.S.S.S.S.S.Z.C.S.S.S.S.S.S.S.S.S.S.S.S.S.S.",
"S.S.S.S.S.C.y.d.S.S.S.S.S.S.S.S.S.S.S.S.S.S.S.S.C.f.9.d.S.S.S.A.&.<.S.&.! O.F x.S.C.S.S.S.C.S.S.d.C.S.S.S.S.S.S.S.S.S.S.S.S.S.S.",
"S.S.S.S.h.w.N.S.A.S.S.S.S.S.C.S.C.S.S.A.S.S.S.f.w.f.S.S.S.S.S.S.S.S.S.x.{ A.( K x.S.S.A.S.S.S.A.{ S.S.S.S.S.S.S.S.S.S.S.S.S.S.S.",
"S.S.S.w.w.A.S.S.S.S.S.S.S.S.C.C.S.S.S.S.S.f.3.h.S.S.S.S.S.S.S.S.S.S.S.S.N.A.S.N.f.B.S.S.o.d.S.w.] S.S.S.S.S.S.S.S.S.S.S.S.S.S.S.",
"S.S.C.N.S.S.S.S.S.S.S.S.S.S.S.i.P _ L a Y a 2.S.S.S.S.S.S.S.S.S.S.S.S.S.S.S.S.S.S.C.A.S.<.v S.] d.N.N.S.S.S.S.S.S.S.S.S.S.S.S.S.",
"S.S.S.S.S.S.S.S.S.S.S.S.S.S.S.S.,.c 4 h 6.r 2.S.A.S.S.S.S.S.S.S.S.S.S.S.S.S.S.S.S.N.h.S.S.s *.=.h.&.C.S.S.S.S.S.S.S.S.S.S.S.S.S.",
"S.S.S.S.S.S.S.S.S.S.S.S.w.1.a.A.S.S.Z.g.b.e y.S.S.S.S.S.S.S.S.S.S.S.S.S.S.S.S.S.S.S.N 8.S.` f z.,.N.S.S.S.S.S.S.S.S.S.S.S.S.S.S.",
"S.S.S.S.S.S.S.S.S.S.S.S.N.>.Y ' ( 5.P 5 x.m m.S.S.S.S.S.S.S.S.S.S.S.S.S.S.S.S.S.A.S.7.P 3.g.+./ ` h.S.S.S.S.S.S.S.S.S.S.S.S.S.S.",
"S.S.S.S.S.S.S.S.S.S.S.S.S.S.S.A.N.a.x 2 r *.A.S.S.S.S.S.S.S.S.S.S.S.S.S.S.S.A.S.d.x.x.u.,.2.' b a.S.S.S.S.S.S.S.S.S.S.S.S.S.S.S.",
"S.S.S.S.S.S.S.S.S.S.S.S.S.S.C.S.a.a.L U f   1 f.N.N.S.S.S.S.S.S.S.S.S.S.S.S.S.S.h.P L 7 S.o.J s.2.y.S.S.S.S.S.S.S.S.S.S.S.S.S.S."
};
