/* XPM */
static char *result[] = {
/* columns rows colors chars-per-pixel */
"64 64 109 2 ",
"   c #013F3B",
".  c #02413C",
"X  c #0B443E",
"o  c #10473F",
"O  c #0F4640",
"+  c #0F4A49",
"@  c #114740",
"#  c #144941",
"$  c #1C4C43",
"%  c #134C4A",
"&  c #194E4B",
"*  c #1D514C",
"=  c #224E45",
"-  c #324F46",
";  c #255146",
":  c #2A5246",
">  c #23544E",
",  c #2B554B",
"<  c #2B584F",
"1  c #335346",
"2  c #325649",
"3  c #395549",
"4  c #35594B",
"5  c #3B5B4C",
"6  c #265751",
"7  c #295750",
"8  c #245953",
"9  c #2C5C54",
"0  c #335D53",
"q  c #3A5E52",
"w  c #346157",
"e  c #3C6255",
"r  c #356258",
"t  c #3B6559",
"y  c #3E685B",
"u  c #3E6763",
"i  c #3F6866",
"p  c #40574C",
"a  c #425D4D",
"s  c #475F51",
"d  c #45604F",
"f  c #48614F",
"g  c #426455",
"h  c #4B6453",
"j  c #456857",
"k  c #4F6956",
"l  c #426659",
"z  c #446A5C",
"x  c #4B6C5C",
"c  c #556753",
"v  c #586753",
"b  c #556A55",
"n  c #586956",
"m  c #526D5B",
"M  c #596E59",
"N  c #4C705E",
"B  c #5F7256",
"V  c #54715E",
"C  c #5C725D",
"Z  c #616F57",
"A  c #63745C",
"S  c #68765B",
"D  c #6D7A5E",
"F  c #727A5E",
"G  c #406763",
"H  c #426A66",
"J  c #4B6E65",
"K  c #4B6E68",
"L  c #516F62",
"P  c #4E7065",
"I  c #4E7168",
"U  c #527265",
"Y  c #5C7562",
"T  c #5F7863",
"R  c #547469",
"E  c #5A766A",
"W  c #54786A",
"Q  c #5D796A",
"!  c #627764",
"~  c #647A63",
"^  c #6A7C64",
"/  c #627B6B",
"(  c #6A7F6B",
")  c #727E62",
"_  c #6D8165",
"`  c #6D816B",
"'  c #748164",
"]  c #7D8665",
"[  c #73846C",
"{  c #7A876A",
"}  c #7F8A6A",
"|  c #788871",
" . c #828967",
".. c #8B8C65",
"X. c #868C69",
"o. c #918C65",
"O. c #908F68",
"+. c #8D916B",
"@. c #949166",
"#. c #93936C",
"$. c #99976B",
"%. c #9C9B6E",
"&. c #848E72",
"*. c #869274",
"=. c #949572",
"-. c #9C9D78",
";. c #A39C6E",
":. c #A39E73",
">. c #A9A377",
/* pixels */
"9 l , X . 4 ; . . X 5 X . o 4 0 m Y I H H H H i H H H i H K R z w l : X   $ , . . X 2 = . @ 5 0 k Y P H H H u i H H H H H J W z ",
"8 9 r e d ; . . . ; ; X 2 q > % * q 0 J J H H H H i H H R P w 8 8 8 r y $ X , @ . . X 5 g q > % > l 0 J R H H H H i H H R P w 8 ",
"8 8 8 9 j q $ . o d : q j 4 % % % 0 7 & q L K H H H I L t 8 8 8 8 8 8 9 e 5 : 3   X : q h 0 % % % 0 < & e J K H u H R U r 8 8 8 ",
"9 w 9 9 9 w z d b k < & & w w % & & q & % & l L E Y J 0 9 9 w 9 w w 9 9 9 r x A d 5 9 & % 0 0 % % % e * % * l U R / G w 9 w 9 9 ",
"x z l z V Y [ :...g * % % % < e & + 6 0 % % % , ! x x x j x x j z x z z V C ' :...e & % % % 0 q % % > q % % % 6 ~ m j x x z x j ",
"9 r z N U Y _ | j > e 0 * % & < t & % 0 7 + & & l 8 6 8 8 8 8 8 9 r z z U Y _ { x 7 j 0 & % % 6 e & % 0 < % % * z 8 8 8 8 8 8 8 ",
"z y y z z N V z e % % 9 e 4 & + 6 q * & q * % & t 6 8 8 9 r z z z t t z z N N l q % % 7 e 0 & + > e > % e & % * l 8 8 8 9 r z z ",
"9 l z r z y z 9 e % % % % 9 e 4 & * q 6 6 q % & z r x x x z w 8 9 z z t z y z 9 g % % % % 9 s 0 & & g > < q % * x r j N N z r 8 ",
"z w w x w z w 9 C j 0 > & + % 0 g 9 > e < q 6 & Y z r 9 8 8 9 l N r 9 N w z 9 9 C j w > & % % 9 g 0 * q < e > & U x r 9 8 8 9 y ",
"8 w x 9 r z 8 9 y > 0 g h g 0 * & 0 e < e q l * y 8 8 8 9 l N t 8 9 x w t z 8 9 j * 4 e g g 0 > & 0 t 0 e q l > y 8 8 8 9 l x r ",
"t x 9 9 x 9 8 9 e % % % & > 0 g j q 0 e g k M s t 6 9 l N y 8 8 e x 9 9 x 8 8 9 e % % % & > 0 t g q 0 e g k M l l 8 9 y x t 9 8 ",
"z 8 8 z r 8 8 9 y % % % % % % % * > 0 e x M )  .m y x y 8 8 8 y z 8 8 z r 8 8 9 e % & % % % % & & 6 0 e j M ) X.V t x y 9 8 8 t ",
"8 8 r z 8 8 8 r ! z 0 0 r 0 r r r q 0 0 l l C $.+.j 8 8 8 8 y l 8 8 t z 8 8 8 t ~ j 0 e r r q r q 0 r q e j C #.X.z 8 8 8 8 l z ",
"8 9 x 9 8 0 y < $ q q > & & & & * % & & % 6 j ( E P z 9 8 l e 8 8 9 x 9 8 w j , g k 0 > & & & & & & & & % < j R K R z 9 8 z y 8 ",
"8 l r 9 l 4 O .     $ q 0 & % % % % % * l U U E G u K R Y y 8 8 8 z r 9 x 4 @ . o 5 = 5 0 & % % % & % * y U K i i i P U Y y 8 8 ",
"w x l e # .     .     X ; q 7 & % & e U J G / H u u H / E U t 8 9 N y q 5 : . .   = : X = q < % + & r U I i i H i i u H W R r 8 ",
"^ V 2 $ @ # # # # # # # # $ 5 b e P J G u R R u u J Q J u G U U ~ h ; . . ; 2 X   X 5 #   X : e l Y E K K K K I K I I K K I Q E ",
"Z 1 : : , : < , : : < 2 a b D ;.} G u u J Q G u J Q G G u G P ( D a o . . . ; 4 X . # 4 . . . # O.-.| ( / R E R R E E R E R E Q ",
"5   . . . . . . o : 2 2 a b S F U G G G E J u P Q H u G J Q E J 0 o 5 2 o . . # 4 # . : ; . . o / &.[ / / / E I K H i i H i H i ",
"5 . . . o ; 2 5 2 $ : 4 2 5 f : x G u L U u R E G G J Q R H u G w . . o 5 , o . o 5 # . 4 X . o L Q / Q E E I R E Q E R K H i H ",
"f ; 4 5 5 = o . $ 4 : ; 5 : 4 X x u H E H R U H J Q E H u u G H q . . . . $ 2 , o X 2 ; # 4   o x K E E E R E R H H K R Q / Q R ",
"S : $ X . . o 5 4 # $ 5 o 5 o X J G Q J Q L J Q E J u G J R / _ S 5 4 ; X . X $ 5 2 @ 4 ; 2 = X L H R R I E K I / R H H i H R E ",
"5 . . . o 2 5 o . $ 5 X : : . X x L / Q R E E J H U Y / Y R P H q o o 5 d 5 1 = o = 4 2 1 3 a o x H H E K I / K H R Q E H H i i ",
"3 . o 4 a = . X ; 4 X o 5 . . X L ( / / / E Q Q Y E J H u G u H 0 . . . . o ; 2 a 4 4 5 a c v s L H u K E H K E K H H R Q R H i ",
"f 2 5 o . . . : , . . 2 o . . . ) =.| / Q W P G u u u u i u u H 0 .             X o - 3 a v ) ..Y u i H R R i K Q K H H H R / R ",
"D 2 X X . X 2 = . . ; : . . X , O.*./ W W I I W W I I I I R W / S d 3 1 3 3 - 3 1 1 - - 3 p c o. .K H H H Q H i H E K H H i K Q ",
"* 0 < o X 4 = . . X 5 X . $ e C y z R H u u u u i y i u H J J 9 * 0 2 o         . . . .   = q m y H R I i K E H H H R R H R K 0 ",
"% % , q k ;   . . 2 = # q t t z 8 8 9 U E H u u u i u P U q & % % % > q 3 o     . . . $ q g y l 8 8 9 U E K E I H H H / E q & + ",
"+ % + % 6 q ; . = a 4 l 9 8 z 9 8 8 9 z y U P H u H L y & % % % % % % % 2 q :   . o q l 9 8 x 9 8 8 9 x z J E / H H I s * % + % ",
"< < < < 6 < g C S k w 8 8 z r 8 8 w P 9 8 8 t W _ ~ e 6 7 7 7 7 7 7 7 7 7 0 j n e l r 6 8 l r 8 8 r J 9 8 8 r ^ | E q 7 7 7 7 7 ",
"9 < q e j M ) ;._ 8 8 8 w z 8 8 t j 9 8 8 8 y C $.#.^ n g q 0 0 0 0 7 0 0 0 0 q V 8 8 8 w y 8 8 t z 9 8 6 9 l E A 0 7 0 0 0 0 0 ",
"< w e e j k A ! l 8 8 8 z 9 8 t l 8 8 8 t N e 9 x A C x g q q 9 > & % + % % % & l 8 8 8 z 9 8 y l 9 8 8 r J t 0 q + % % % + % & ",
"0 > < e w e j 9 t 8 8 y t 8 l y 8 8 y x y 8 8 8 q q g g e e < 9 0 s q 0 6 & & & l 8 8 y t 8 z y 8 8 t z t 8 8 9 t % & $ < r e q ",
"< g 0 9 g 0 0 % e 8 9 x 9 x r 8 e z t 9 8 8 8 9 t & e 0 e > q 0 * % 6 7 q g g q x 8 9 x 9 z r 9 t x y 8 8 8 8 r m q j g w , & & ",
"4 * < e * e * * y 8 x e z r t N y 8 6 9 r z P C g % < 0 > e * > q q * + % & > q k 8 z t z r r x l 8 8 9 r j N W C < * % % % 8 d ",
"% 0 e % 0 4 + * e t x N z z z 9 9 z N N x y 9 9 0 & % g > > g * & 8 l q & % & & l e N N z x z 9 w y N P x y 9 r e + % & , g t * ",
"0 0 % > e & % $ z ~ Y V J j x N N y 9 9 8 8 8 9 q % % 6 e % * e > % % < j q & * x Y C N x l J x x e 9 9 8 8 8 9 e + > e e > % % ",
"9 % % g * % % & ] #.[ Y x z r 9 9 8 9 8 9 8 8 9 q % % + 0 4 % & q < % % & 7 l q ] #.[ Y x y r 9 8 8 8 9 9 9 8 r x e e > % + % w ",
"% % 0 0 % & % w } { N z G l y y y y y y u t l ! M 6 % % % e * % & 0 0 % % % & L $.{ N H z y y y y y y y y y y C S w & % % * e 6 ",
"% > e % % w N I H I P r 8 8 8 9 8 8 8 8 9 q l s = ; q 6 % > e % % % 0 q & 0 J J E / P w 8 8 8 8 8 8 8 8 8 y t $ X : q > > e > % ",
"% q > 7 x K H H H H H R J 0 6 6 8 8 8 e g ; : : . . X d j * 0 < % % % z / R H H H / K R J 0 6 8 8 8 8 e g ; .   . . o 2 M < % % ",
"9 g x L H H H H G H H H H R H 9 8 r j < X X 4 X . . $ 5 ; 5 q l & 6 x L R E H H H K R H K R z 9 8 w l : X   . . . . . . o 4 4 * ",
"' ( Q R R R R R R R R R R R / { V 4 o . . 2 $ . . ; 4 X . . $ M ^ L K H H K / H G H E I H H K R A C 4 : ; ; : : ; : : : : : g M ",
"^ I J K L K K J K K I R / ( &.:.B . . . ; 2 . . : 2 . . . X 4 d ^ / I H G G K / K H H / H H H K +.@.Z c p : = = o ; o ; $ $ $ ; ",
"L H H G H i G K R W Q E Q ` [ [ q . . X 2 X . 4 : . . o : 5 $ o x H R E I H H H Q K H K E H H H m Z b f 5 2 4 2 o o . .   . . . ",
"L i H K R / / E R I R E W Q / P 5 . . : ; . 2 ; . X , 4 ; . . X J H H H R / I G H E R H R K H H q 1 a 2 2 2 ; o : 4 5 2 = X .   ",
"/ / ( / L K H H R Q R R W W E H q . $ 4 o 5 $ X : 5 $ X . . . $ M K H H H J E / R H E R K Q H K q X 5 ; 5 ; 2 5 o X X $ 1 a 5 5 ",
"~ K H H H H I / R H R Q H / J H 5 X 2 ; 4 $ : 5 ; X . o ; 4 d d ~ / / E I H H H E Q K R R R R K s . $ , o 5 o o 5 5 o . . X o o ",
"L H H H R Q R H H R E H R I H H q : p a 1 4 : $ $ 4 5 d : $ X X J H H R Q / / R K J E Q / E / R q . . 4 $ o 5 = . # 5 5 # . . . ",
"L H I / E K H H Q R i P E H H H c n n h a 3 5 5 4 $ X . . . . X j H H u u H H R Q / Q E / ( [ ( q . . X 4 X X 2 = . . # 5 2 o . ",
"~ / E J i i H E R H H E K H H H ....A g 4 , $ o o o o o o o o o J J K K K K K K K K R E / ( &.:.b . . . = : . . 2 = .   . $ 4 2 ",
" .R H G i J E J H i R R u H K U ) S 5 1 2 : 1 1 2 2 1 1 1 1 d _ ;.( Q R E E E E E E E E E E / +.D : . . X 4 o   . ; , X . . o g ",
"J r U R I E I i H K E H H U z > % > 5 =     . . . . . . X 2 z _ #.Y U P H H H i H H i i H U x k > < 5 ; . o 4 X . . ; 2 o 4 e w ",
"z 8 9 z [ R H G H / K I J 9 % % % % & 0 q & . . . . . , g w y C ~ U r l U K H i H u H I J 8 0 9 % % & e h $ : ; . . X d A r 8 8 ",
"z 8 8 r l H R H R / J 0 % % % % % % % % & q 3 # . ; q t 8 9 N N N x z 8 9 J R K H K L 0 & & e & % % < e * e 5 h o = l e N 9 8 8 ",
"J 8 8 l w 8 w V =.) g 3 0 0 q 0 0 q 0 q 0 q j Z b e 9 8 8 z t z z z l y 8 8 0 L Y q % % % q > % % 9 e * % % > C D e 9 8 j r 8 8 ",
"z 8 8 J 9 8 8 N #.O.^ n l 0 7 > > > > , 6 > > , z 8 8 8 y y t t y l 9 N 9 8 8 9 l % % % < 0 % % 0 0 % % % > e l ~ w 8 8 t l 8 8 ",
"z 8 0 j 8 8 9 z x A M g l q q q 9 6 & % % % % & l 8 8 9 x 8 z r y y r t z 8 9 9 e % % & e % & q 4 % % * 0 e > * l z 8 8 9 H 8 8 ",
"N 8 y y 8 8 H w t 0 g l 0 q 0 6 7 q g q < 6 & & l 8 8 z r 8 z 9 y 9 z 8 z r 8 9 e % & 0 > & g > + > e e > % % & y w t 8 8 x 9 8 ",
"z 8 z 9 8 y t 9 q & g 0 e 6 9 s 7 & & > 0 s l g x 8 r z 8 r y 8 y 8 N 8 9 z 9 9 e % 7 0 > e > * e e > % % % & 0 x 8 z 9 8 y r 8 ",
"z 9 N 8 w x 8 9 e % 7 q * e > & 0 l 7 % % + & , j 8 x 9 8 y w 9 y 8 j w 8 y t 9 e * g 4 e > 4 g 8 % & > 0 j h j z 8 w z 8 r y 8 ",
"H 9 z 8 G 0 8 9 t % & 0 6 & g 9 & & q l 7 % & & y r t 6 8 J 9 8 y 8 t y 8 8 z w e r j g e l 9 > 0 l h e 9 * % * l 8 8 l r 8 x 8 ",
"z y t r z 8 8 9 e % % & e & & q 0 + + 6 q q > & z z 8 8 9 x 8 8 y 8 9 x 8 8 w H k ~ C k l e g e < > % % % % % * y 8 8 9 x 9 z 9 ",
"N z 9 z 9 8 6 9 t % % % 7 0 % % q 0 + + & 6 l j ~ r 8 8 r z 8 8 z 8 8 N 9 8 8 N #.+.C e 4 > % + % + % + % + + * l 8 8 8 y l r t "
};
