/* XPM */
static char *result[] = {
/* columns rows colors chars-per-pixel */
"64 64 256 2 ",
"   c #2B2B26",
".  c #2B2C2B",
"X  c #252828",
"o  c #322C2A",
"O  c #332E27",
"+  c #2C342C",
"@  c #2D3C2C",
"#  c #293428",
"$  c #33332B",
"%  c #323B2B",
"&  c #3A372C",
"*  c #263332",
"=  c #2B3433",
"-  c #2D3B33",
";  c #2D3B3B",
":  c #2A3836",
">  c #333433",
",  c #333B34",
"<  c #33343A",
"1  c #383B39",
"2  c #2E2E36",
"3  c #23281F",
"4  c #413B31",
"5  c #36442D",
"6  c #2D4335",
"7  c #2D4739",
"8  c #344334",
"9  c #33443B",
"0  c #344C3B",
"q  c #3B4C3B",
"w  c #3A4736",
"e  c #34533C",
"r  c #3B533C",
"t  c #3A5838",
"y  c #355031",
"u  c #3E643B",
"i  c #464838",
"p  c #42533C",
"a  c #435C3D",
"s  c #4A5639",
"d  c #54573C",
"f  c #524B3A",
"g  c #47673C",
"h  c #56683A",
"j  c #55733C",
"k  c #4B7A3D",
"l  c #64713D",
"z  c #393A41",
"x  c #2B3C4A",
"c  c #463B45",
"v  c #374745",
"b  c #3C5342",
"n  c #3C5C43",
"m  c #365643",
"M  c #354D51",
"N  c #3C6646",
"B  c #397656",
"V  c #3B786B",
"C  c #3B6C6A",
"Z  c #3F5667",
"A  c #4C424B",
"S  c #474846",
"D  c #544A4B",
"F  c #425C42",
"G  c #485747",
"H  c #545948",
"J  c #485A58",
"K  c #575754",
"L  c #4A4954",
"P  c #625A58",
"I  c #436444",
"U  c #4B6444",
"Y  c #446A45",
"T  c #4B6B44",
"R  c #4B6C4B",
"E  c #48674B",
"W  c #536C44",
"Q  c #57674A",
"!  c #4B734A",
"~  c #4A7547",
"^  c #537B4C",
"/  c #567747",
"(  c #4C6758",
")  c #576857",
"_  c #4C7753",
"`  c #597856",
"'  c #636849",
"]  c #677A48",
"[  c #636A56",
"{  c #637353",
"}  c #697757",
"|  c #717858",
" . c #717D49",
".. c #4F5D64",
"X. c #486767",
"o. c #586966",
"O. c #5B7667",
"+. c #487876",
"@. c #547C75",
"#. c #46766C",
"$. c #656A6A",
"%. c #657868",
"&. c #757B67",
"*. c #6C7B74",
"=. c #5B863A",
"-. c #6A923C",
";. c #77AD3C",
":. c #3D8557",
">. c #3D965C",
",. c #3F9860",
"<. c #54834C",
"1. c #5B834C",
"2. c #5C8A4B",
"3. c #578746",
"4. c #59934C",
"5. c #5A8756",
"6. c #449758",
"7. c #508953",
"8. c #648949",
"9. c #768646",
"0. c #64944C",
"q. c #6A9C4D",
"w. c #679849",
"e. c #75984A",
"r. c #678757",
"t. c #748859",
"y. c #679756",
"u. c #749858",
"i. c #48A55C",
"p. c #57A658",
"a. c #5AB057",
"s. c #6AA54B",
"d. c #76A84A",
"f. c #7BB449",
"g. c #6AA657",
"h. c #76A757",
"j. c #79B557",
"k. c #69B55A",
"l. c #5C846B",
"z. c #53976A",
"x. c #4B8779",
"c. c #5A8877",
"v. c #4B9370",
"b. c #688767",
"n. c #788966",
"m. c #6A9765",
"M. c #789667",
"N. c #688878",
"B. c #778876",
"V. c #6A9678",
"C. c #78997A",
"Z. c #59A86B",
"A. c #69A965",
"S. c #78A565",
"D. c #65B767",
"F. c #79B667",
"G. c #79A576",
"H. c #6CB778",
"J. c #78B677",
"K. c #6AA67A",
"L. c #7AC356",
"P. c #7AC36C",
"I. c #89BD3F",
"U. c #899455",
"Y. c #86BA4B",
"T. c #85A857",
"R. c #83BC54",
"E. c #82BC5C",
"W. c #87B75A",
"Q. c #8CAF51",
"!. c #869967",
"~. c #869B78",
"^. c #8A906E",
"/. c #87A767",
"(. c #87B966",
"). c #94BA67",
"_. c #88A778",
"`. c #94AA77",
"'. c #89B878",
"]. c #96B679",
"[. c #92AA6B",
"{. c #A1B37D",
"}. c #88C45B",
"|. c #95C859",
" X c #94C84D",
".X c #A3CF52",
"XX c #8BC363",
"oX c #88C567",
"OX c #95C967",
"+X c #9BD26A",
"@X c #89C777",
"#X c #96CA77",
"$X c #9AD179",
"%X c #A4D675",
"&X c #A6CF72",
"*X c #ABE071",
"=X c #487C81",
"-X c #589887",
";X c #528D87",
":X c #6B8D82",
">X c #699786",
",X c #779884",
"<X c #689B97",
"1X c #73958B",
"2X c #69A386",
"3X c #78A787",
"4X c #79B787",
"5X c #69A596",
"6X c #75AA97",
"7X c #79B696",
"8X c #6CB68E",
"9X c #73A8A3",
"0X c #7BB6A5",
"qX c #5BA180",
"wX c #7CC18D",
"eX c #7BC1AA",
"rX c #869382",
"tX c #87AA87",
"yX c #94AB84",
"uX c #86B788",
"iX c #98B785",
"pX c #87AD93",
"aX c #88B897",
"sX c #96BA95",
"dX c #90AB93",
"fX c #A8BE85",
"gX c #A8BA8D",
"hX c #87BAA5",
"jX c #8CB8A7",
"kX c #89C488",
"lX c #97C887",
"zX c #8CC598",
"xX c #97C798",
"cX c #9BD299",
"vX c #9CD285",
"bX c #A6C589",
"nX c #A4CB96",
"mX c #A4D297",
"MX c #B1CE91",
"NX c #89C4A4",
"BX c #98C8A6",
"VX c #99D2A8",
"CX c #91CBB4",
"ZX c #A3CCAA",
"AX c #A9D6A8",
"SX c #B5DBA9",
"DX c #A8D7B5",
"FX c #B6DBB6",
"GX c #A8CDB1",
"HX c #BAE09C",
"JX c #CCD5AC",
"KX c #C6E4B0",
"LX c #C5C89F",
"PX c #B3E2C9",
"IX c #D2EAC6",
"UX c #E2F6D8",
/* pixels */
"      F n.T./.].M.n.&.B.B.,XtXN.6XN.b.V.K A c D c D D D $.1XpXaXjX,X~.n.M.G ( G ; M b.b.@ X 9 * . < > > f G $.@.o.) J % G } b r ",
"+   @ n Q m.M.bX'./.M.rXdXsXkXV.>X3X_ pX%.D D D D P P P ,XhXNXCXhX6XN.B.C.%.3X@.m _.'.I * ; e * ; 1 1 > S Q b.1XN.$.) J G { U a ",
"$   + n I r.S.bX_.~.M.~.dXxXkXK.V.pX_ V.*.P D D c D P D ~.xXaX9X<X<XjXGXZXpXsXG.G.m.5.< ; N 6 : * . 1 > > J N.:X:X:X%.o.G q b a ",
"$ . > n I Q M.$X].~.M._.yXxXlXK.6XhX7.5.~.$.c c c c D ' rXDX5X<X<XhXUXFX0X<XpXuX5.m.r.; b._ * * - X > < 2 v N.:X*.1X,Xo.O.R 0 n ",
"% O + ( ` I M.lXbX~.n.iXsXdXsXC.3X3X5.` yX&.D A D c c P rXjX<XBXNXcXIXjX<X1XkXr.5.G.- ` J.e * = ; . . 2 2 9 :X>X:X*.:XB.~.| E e ",
"& $ $ O.O.e.S.iXfX_.t.iXbXsXxX3X>Xc.5.` ~.&.D c D c c c 1XjX9XFXHXmXGX<X5X#X'.Q S.` ; M.E v 9 M v = 2 . 2 z ( c.1XN.:Xb.yXb.R E ",
"5 O & O.u.R./.~.iX`.n.].xX_._.sXN.V.l.5._.^.P c c D c c *.jXjXlXmXlX3X3X_.r.O.N.R G L X.x v M ..v < o . 2 < 0 ~ 5.:X:XV.tXm.R N ",
"s & + %.(.W.h.} yXyXn.].MXm.a ~.b.>Xr.5._.~.$.c c c c c *.ZXBXxXzX'.@Xh.g p %.6XO.) o.X...M x Z v v > o 2 x : m E 5.` *.dX} _ I ",
"' & . O.(.T.b.K } !.^.yXbXxXR g %.G.m.5.'.`.$.D c c c 4 $.aXhXsXkX'.y.R ) ( O.6X` ) 3X>XX...M X.M z 1 > < x M v Z _ [ ) 5.` _ E ",
"9.s O O.G.r.B.$.G { n.tXu.M.^ I U tXm.l.!.yX^.[ c c c z o.0XhXhX7Xm.Q G o.:XsX3XN.:XtX,X@.M X.#.z S 4 1 2 z m ; ; 9 ) N.b.r.b.{ ",
"9.d % b.G.8.N.:X%.) &.yXr.^ ` g E iXG.m.yXfXn.P c c c c $.0X6XjXCX6X:X:XN.ZXZX6X>X6XaXpX:XJ M Z M c 1 1 > 1 ( v ; < v O.~.^.| Q ",
"9.l i b._.M.) ) $.J ) u.m.m.y.y n b._.G.sXyXn.$.c c c z $.BXjXGXZX0X9X9X6XSXBXNX>XhX6X3X6X*.....o.G > 1 > v G v M = ; 0 G n.t.| ",
"9. .h b._.u.*.G J K ( R ~ 1.e.N } tXn._.LXrX&.&.P c c c $.DXFXIXjXjXCXhXhXFXIXBX5XNXkXV.n.N.O.N o.$.$ 1 < = L @.V.M * b ) { ^.n.",
"9.8.] ~.nX/.B.( S L J m./ g 2.t C.` M.'.LXgX$.&.P c c c $.ZXGXGX9XBXDXCXDXSXIXCX6XuXS.r.$.C.l.v ( ^.4 < > < X.( Z E 6 7 F F { | ",
"9. .t.'.bX].%.%.G i R M.G.Y Y ! ` g yX`.LX{.rX^.$.c c ..$.jXVXhX9XcXAXSXAXSXKXAXuXM.` R Q m.r.9 K LX' . X v 6X#.7 _ n * - b F { ",
"-.9.n.].mX_.} ` J E k _ ].S.2.1.r b.bX`.MX{.^.B.$.L c L $.BXBX9XjXzXZXSXAXAXKXsXr.^ ) ) G O.` S o.JX^.. 2 4 V.+.v z 9 * * 9 H Q ",
"U.l M.lXHX_.K ) G G ~ w.m.j.3.y ` uXM.yX`.U.^.&.$.D c A o.CXaXDXFXkXmXAXcXDXKXsXb.) b.) %.C.U ) B.LX`.> . v O.M * Z : * : : H { ",
"U.U.u.nXHX&X2.) ( q R <.0.q.k 6 5.1.%.yXgX!.^.^.P L L A $.jXhXKXPXzXmXVXNXDXAXG.%.pXtXQ ,Xb.U %.C.MX{.4 . < > z m - : * ; x 6 K ",
"U.U.U.bXKX$Xf.2.G S ` _ ^ 3.Y g 0.~ M._.{.`.[.U.K A L S o.jXjXKXKXVXmXzXBXDXSXVX6XZXtXK tXb.B.` !.LX^.P . < b l.#.* : * * G ( H ",
"U.U.Q.$XKXbX(.d.p p y.s.3.<.~ 0.w.r.M.{ `./.| U.[ A S z o.jXhXDXKXcXcXwXzXDXFXSXhXAXtXb.AXBXVXpX_.fX^.' , = O.N.M 7 ; * * : [ [ ",
"U.U./.vXnXAX].Q.8.q t.s.s.4.4.s.3.` %.F MX`.r U.| G L 1 o.jXNXCXSXzXVXwXzXAXFXDXhXZXmXuXAXZXxXVXxX{.{.[ w < b.x.C Z v J : * S } ",
"9.U._.mXxXAXMXW.Y.h.l.5.3.w.4.4.~ O.E r fX} a `.^.K S 1 ..hXNXDXzXkXcXwX8XAXAXAXNXBXAXlXAXnXaXVXcXbX].t.G 1 O.@.x.=X;X+.O.N.{ &.",
"' U.`.mXxXSXbX(.R.f.h.( 5.s.4.t F B.t p !.e ] U.t.| S 1 L aXhXDXNXkXwXeXwXmXDXAXBXBXAXlXAXxXpXVXVXMX`.[.) v O.l.c.+.-X+.:XiX| | ",
"d [ yXcXBXSXmX].R.f.j.m.2.s.3.7 _ m.^ R F t | ' | | H 1 L hX9XDXCX4X8X8XeXSXSXZXNXsXSXlXAXxXsXVXxXfX`.!.} G #.N.@.=X=X@.:XyX{ | ",
"f ' yXnXnXAXmX#XW.s.j.y.w.0./ I Y 2.5.0 s t.t.' { { Q S L aX6XGXCXzX2X5XeXVXKXAXxXsXSXlXVXuXZXDXZX{.].!.t.{ @.c.c.@.=X+.:XyX} H ",
"f H B.cXBXnXvXnX[.h.4.y.s.<.^ t Y <.t # {./.} ' | ' ' H G aX7XCXDX7X5X<XNXVXKXAXaXsXAXcXxXS.xXFXxX{.{.!.n.} O.c.c.@.;X=X:XyXt.) ",
"i H n.xXBXlX|.XX].iXS.j.s.s.s.N y I @ w [.t.| { { ' [ H ) aX7XBXNX0X5X;X0XVXAXmX7XaXDXzXsXG.xXPXZXfX]./.n.r.N.>Xc.+.@.=XV.gXn.] ",
"s H O.uXxXmXj.-.h.iXm.j.s.s.<.Y ~ @ + %.Q p t.} [ ) K H [ sX7XjX0X0XaX<X5XSXVXzX5X7XFXNXaXV.aXPXDXMXfX[.!.n.V.,X2Xc.@.V c.bXn.} ",
"i G %.J.xXcXM.<.j '.sXC.3.1.~ I I * ) R U p ^.n.) Q H Q [ xXzXzX9X9XNX9X5XJXAXeX<X3XFXBXaXG.aXPXGXMXbXiX[.n.,XtX3X>X@.+.O.'.b.t.",
"p S %.G.xXxXlX'.^ ^ #X3X/ 1.~ m # F ` 6 H |  .n.) Q H H [ sXxXNX9X<XeXeX-XAXSXzX-Xc.FXVXaX3XaXDXGXnXbXiX`.M.tX3X4X2Xo.#.l.S.` t.",
"G i o.G.aXzXiX].y.I 5.M.<.<.<.4.T g 5 . Q ^.' | [ H H H K dXZXzX9X<XeXCX-XaXKXzX-Xx.AXZX6X4XaXVXZXbXbX].[.!.aXuX4X4Xc.X.l.1.{ u.",
"s G J C.3X3X'.iX].y.0.0.q.0.3.j.j.2.# , t.t.[ | { ) S H H tXcXxX9X<XhXeX0X>XAXzX-X+.kXaX6X3XpXVXxX].].(./.u.aXzX_.aX3X#.b.y./ S.",
"G H J V.tX3XG.uX].(.q.j.R.R.w.q.3.j S %.[.u.] | [ [ H s D ,XcXxX7X<X5X0XCX5X6XzX-Xx.qXqX-X6X3XVXzXlX].W./.n.uXcXP.4X4Xl.m.S.W u.",
"U F S V.'.'.V.M./.(.d.d.}.R.3.0.0./ = B.H ` { r.{ [ H D K V.kXkXzX5X5X9XeXeX;X-X;Xx.;X-XqX2X4XzXkX+X#Xh.j.u.tXlX@X'.4XV.m.2.` u.",
"S F S N.(.|.G.l.G.uXE.R. Xj.Y T ^ t J b 3 r.b.t.{ ) H G G O.2X>X>X;X;X-X0X5Xv.;Xx.v.v.x.v.x.2X2X(.W.).h.u.M.G.lXlX@X4XG.G.2.1.y.",
"i G G X.m.W.XXy.V.tXj.}.f.|.q.Y m E ( @ b G.{ ] ] Q H S G ( v.-X-X;XC V V :.v.,.V x.V C C V c.V.F.d.(.(.F.S.m.4XkXkXkX'.F.5.5.y.",
"1 G J X.N.q. Xh.m.3XuX}.s.q./ T E R N 7 r m.X a ` Q G i S J l.i.z.z.v.B B :.>.:.V :.6.:.B m B G.(.'.$X@XOX@X4X4X3XG.J.@XE.g.A.2.",
"4 H G J >XV.y.0.h.2XK.h.<.Y / Y N n v Y ` 9 @ / r.] p i z J ~ 4.p.p.6.>.B B :.B B B B B B z.J.kX@XkXJ.J.J.8X2X3XJ./.#XoXh.oXg._ ",
"q K z L :X3Xm.q.d.8X4X@X0.1.2.r n t N l.<.7 s h.r.S S b q A #.7.z.z.v.v.:.:.:.6.Z.H.H.4XH.H.Z.z.qXK.K.e.u.S.'.lX$X$X#XoX'.g.2./ ",
"Q ) U S ` j.A.h.d.y.J.oXs.f.~ g m n b.t n F r ] r.b w F 1 z ( B x.-XK.H.8X8X4XP.Z.i.v.>.>.v.v.7.Z.4XF.E.(.#X$X$X@X$X@XF.g.4.8./ ",
".X.X.XI.Y.I.e.A.y.~ / h.g.j.2./ e e R N n e n ] 1.R w q < 1 m.P.P.8XwXuXwXP.P.P.i.>.>.a.H.D.D.D.Z.H.vXvXvX$X@X@XvX@XP.F.D.g.s.s.",
".X.X.X X XI.;.8.j.2.u =.y.0.~ I n I N m e g 1.R Q R S 1 < z m.F.(.@XwXP.wXa.i.i.a.p.a.a.i.6.>.,.:.D.vX$X#XoXP.@XlXP.@XP.J.oXL.s.",
"I. X X;.I.I.d.=.w.<.~ ~ ^ ^ ! F N R N m Y W.).S.u.T W g 1 1 r.5.g.i.Z.P.P.a.i.a.i.>.i.>.i.p.D.D.F.L.P.$X@X@XkX@X@X@XoXF.A.y.7.7.",
";.;.Y.-.d.;.f.f.0.u g ~ ~ q.q.~ I e v u F.%X%X%XOXR.OX}.u.T.OX}.XX}.}.L.a.D.Z.i.i.i.7.^ 7.~ ~ g.oXP.@X$X#X@X(.(.F.h.5.<.~ B ~ ~ ",
";.=.j -.=.h w.f.;.s.s.0.8.s.3.r n e e u.&X(.+XXX}.L.j.s.s.}.f. XR.}.}.L.R.d.P.L.k.^ E N N m 7 e <.4.8.y.y.8.5.2.3.<.<.T t p e t ",
"k g g =.=.g a w.|. XL.f.w.j./ 0 e e N 8.~ g d.=.|.T.w.j.a.j.s.k.a.s.s.s.8.h.j.k.3.g Y t t m e Y ^ <.8.1.1.1.W T W <.^ N N 8 n ! ",
"k g u g g g g  X Xf.f.f.s.8.~ e 0 m m N m F 5./.!.f q.d.k.3.w.1.3.3.4.p.=.j 7.g.L.F.3.<.<.N ^ ^ ^ 1.^ ^ T T a t T ~ ~ N 7 6 N N ",
"j j y g g t s. XI.d.4.2.s.g 9 e 6 v m 7 @ ] &X!.S s r./ 2.h { W / g.^ g.oX).|.XXXXOXg.~ u 7 N Y ~ ~ I N n F r R N F r 0 @ e N e ",
"y j -.h h l }.f.e.3.n q I E 9 8 - : b E /.*XT.4 K U U q U U W U ^ A.8.(.OX}.}.}.g.}.k.u n r ! Y ~ ^ R Y I w 1 p F r 0 8 e m m 6 ",
"5 h j g OX&X+X|.W.e.u./ t : = - 0 ] /.oX|.U.' ' G F w q F W u./ y.(.h.h.}.j.y.5./ j.j.3.N Y ~ ! Y ^ Y N Y r r U a 0 e t e e e - ",
"y s y j Q..X&X.XOX).T.).@Xu.a u.OX).h.U. .f o i 1 q 8 r ^ y.g.h.j.h.<.0.s.q.u.T 0.j.4.Y t N N N n I 0 - b b b 9 - 6 0 m n b 6 - ",
"5 y l ;.-.Q.Q. X).).Q.' h.+XXXW.e.Q Q ' i 1 $ w s 8 8.7.7.5.g.g.5.^ ^ h.2.Q g 4.j.d.y.Y 0 - e w @ 0 q 9 e 0 0 9 9 0 n m 7 - 7 6 ",
"y 5 h h h -.I.U.T.|.&X&X&X).w.W h ' f & . o j (.%Xu.r.g.5.z.! B m v r.~ E t e ^ y.g.<.N 9 - , - 8 q w e 8 ; 9 7 9 v n 9 6 7 - = ",
"u 5 5 s d h l l =.Q.*XOXd.d.1.s d d f o > i f i T.*X[.e.(.T.(.h.S.h.F.(.oXh.u.S.y.~ E E q e 8 < 1 9 = ; : : q b * 9 m ; = : = + ",
"y 5 @ 5 & y s l l e.w.h.d.1.U g & H i 4 i d H 9.(.).OXT.T.T.%X+X+X%X&X$X%X%X%X$XoXm./ R 1.u.a F 9 y a 0 x E n ; 9 9 ; = = = v 0 ",
"y y y y O 5 5 5 5 i 8 h 2.T F U a d d f d ' r.h.h.u.T.] 8.XXOXOX}.s.XXOX).#X+XOXoXu.M.#XMXvXoXF.'.F.oXoXF.<.Y E n 6 ; = ; 9 n a ",
"g s g y % % $ 5 5 5 w % q a p y E i & 4 i f ' 9.] ] t.9.0.w.s.W.+X(.OX}.E.W.).OX&XXX/.h.OXXXj.oXOXoXOX#X+Xg.2.<.7._ R / ! / R Q ",
"y y 5 5 5 w % @ % % $ . O O $ % & o o o o i i H 1.Q 9.[.T.T.e.q.OXXXj.0.h.j 8.oXOX(.j.F.XX(.XXoX}.oXoXh.j.F.<.! R I _ <.! R g I ",
"# 3 # 5 % %   @ + + O X     . O o o o o .   o o w i f 9.e.T.Q.Q.|.+X}.W.Q.w.R.h.8.w.q.j.L.W.}.}.L.oX(.j.OX(./ T F e Y I t R R U ",
"# 5 5 5 O 6 , # + , @ +       O o o         $ s / p i W ] 9.] s =.Q.R.h.h.+X|.).T.).j.j.j s h.h.j.OXOX|.+XE.8.W R n r R F a p p ",
"@ 5 y 3 @ @ , O = @ @ @ # X     X . . . . X $ & w , & 4 4 H W U h <.h s j s.j.W.}.W.W.W.(.).XXXX}.L.}.OXR.OXj.R I r U W w & 8 8 ",
"# @ 3 @ @ # 6 # - - @ X . X   X . X X o 2 . o o o o O O   & w W W a p  .T.e.l h j h ] d.s.W.|.XX}.+XXXk.#X[.W R e , 1 = , w 8 = ",
"# # @ @ y 6 5 6 + * + = + + X   X X .       o o o   O O > % q b i 4 f 8.e.W i d f d ' ' ] e.e.e.E.OXe.t.MXT.s d q % . . 6 0 $ - ",
"@ @ # 5 y y 6 0 . + + 6 + X , , X X X X q 8 X o o O i 4     . , 1 4 s t.' f G f f d d ' d ' 8.h.XXOXXXW.T.T.W s i , + 1 + 8 - $ "
};
