/* XPM */
static char *result[] = {
/* columns rows colors chars-per-pixel */
"64 64 153 2 ",
"   c black",
".  c #010100",
"X  c #020200",
"o  c #040400",
"O  c #050500",
"+  c #060600",
"@  c #070700",
"#  c #080800",
"$  c #090900",
"%  c #0E0E00",
"&  c #101000",
"*  c #111100",
"=  c #121200",
"-  c #151500",
";  c #161600",
":  c #171700",
">  c #181800",
",  c #1A1A00",
"<  c #1B1B00",
"1  c #1C1C00",
"2  c #1D1D00",
"3  c #1E1E00",
"4  c #202000",
"5  c #222200",
"6  c #232300",
"7  c #242400",
"8  c #252500",
"9  c #272700",
"0  c #282800",
"q  c #2B2B00",
"w  c #2C2C00",
"e  c #303000",
"r  c #313100",
"t  c #323200",
"y  c #333300",
"u  c #343400",
"i  c #353500",
"p  c #363600",
"a  c #383800",
"s  c #3B3B00",
"d  c #3D3D00",
"f  c #414100",
"g  c #424200",
"h  c #434300",
"j  c #444400",
"k  c #494900",
"l  c #4A4A00",
"z  c #4B4B00",
"x  c #545400",
"c  c #5B5B00",
"v  c #5C5C00",
"b  c #5D5D00",
"n  c #5E5E00",
"m  c #5F5F00",
"M  c #606000",
"N  c #626200",
"B  c #636300",
"V  c #646400",
"C  c #666600",
"Z  c #686800",
"A  c #696900",
"S  c #6A6A00",
"D  c #6D6D00",
"F  c #6F6F00",
"G  c #707000",
"H  c #727200",
"J  c #767600",
"K  c #787800",
"L  c #797900",
"P  c #7A7A00",
"I  c #7C7C00",
"U  c #7D7D00",
"Y  c #7E7E00",
"T  c #7F7F00",
"R  c #808000",
"E  c #818100",
"W  c #858500",
"Q  c #878700",
"!  c #888800",
"~  c #8F8F00",
"^  c #939300",
"/  c #949400",
"(  c #959500",
")  c #969600",
"_  c #979700",
"`  c #989800",
"'  c #999900",
"]  c #9B9B00",
"[  c #9C9C00",
"{  c #9D9D00",
"}  c #9E9E00",
"|  c #9F9F00",
" . c #A7A700",
".. c #AEAE00",
"X. c #B0B000",
"o. c #B1B100",
"O. c #B2B200",
"+. c #B3B300",
"@. c #B4B400",
"#. c #B5B500",
"$. c #B6B600",
"%. c #B7B700",
"&. c #B9B900",
"*. c #BABA00",
"=. c #BCBC00",
"-. c #C3C300",
";. c #C4C400",
":. c #C5C500",
">. c #C6C600",
",. c #C7C700",
"<. c #C8C800",
"1. c #CCCC00",
"2. c #CDCD00",
"3. c #D1D100",
"4. c #D2D200",
"5. c #D3D300",
"6. c #D4D400",
"7. c #D5D500",
"8. c #D6D600",
"9. c #D7D700",
"0. c #D8D800",
"q. c #D9D900",
"w. c #DADA00",
"e. c #DCDC00",
"r. c #DDDD00",
"t. c #DEDE00",
"y. c #E0E000",
"u. c #E2E200",
"i. c #E3E300",
"p. c #E4E400",
"a. c #E5E500",
"s. c #E6E600",
"d. c #E7E700",
"f. c #E8E800",
"g. c #E9E900",
"h. c #EAEA00",
"j. c #EBEB00",
"k. c #ECEC00",
"l. c #EEEE00",
"z. c #EFEF00",
"x. c #F0F000",
"c. c #F1F100",
"v. c #F2F200",
"b. c #F4F400",
"n. c #F5F500",
"m. c #F8F800",
"M. c #F9F900",
"N. c #FAFA00",
"B. c #FBFB00",
"V. c #FCFC00",
"C. c #FDFD00",
"Z. c #FEFE00",
"A. c yellow",
/* pixels */
"A.A.A.A.A.A.A.A.A.A.A.A.A.A.A.A.A.A.A.A.A.A.A.A.A.A.A.A.A.A.A.A.A.A.A.A.A.A.A.A.A.A.A.A.A.A.A.A.A.A.A.A.A.A.A.A.A.A.A.A.A.A.A.A.",
"A.A.A.A.A.A.A.A.A.A.A.A.A.A.A.A.A.A.A.A.A.A.A.A.A.A.A.A.A.A.A.A.A.A.A.A.A.A.A.A.A.A.A.A.A.A.A.A.A.A.A.A.A.A.A.A.A.A.A.A.A.A.A.A.",
"A.A.A.A.A.A.A.A.A.A.A.A.A.A.A.A.A.A.A.A.A.A.A.A.A.A.A.A.A.A.A.A.A.A.A.A.A.A.A.A.A.A.A.A.A.A.A.A.A.A.A.A.A.A.A.A.A.A.A.A.A.A.A.A.",
"A.A.A.A.A.A.A.A.A.A.A.A.A.A.A.A.A.A.A.A.A.A.A.A.A.A.A.A.A.A.A.A.A.A.A.A.A.A.A.A.A.A.A.A.A.A.A.A.A.A.A.A.A.A.A.A.A.A.A.A.A.A.A.A.",
"A.A.A.A.A.A.A.A.A.A.A.A.A.A.A.A.A.A.A.A.A.A.A.A.A.A.A.A.A.A.A.A.A.A.A.A.A.A.A.A.A.A.A.A.A.A.A.A.A.A.A.A.A.A.A.A.A.A.A.A.A.A.A.A.",
"A.A.A.A.A.A.A.A.A.A.A.A.A.A.A.A.A.A.A.A.A.A.A.A.A.A.A.A.A.A.A.A.A.A.A.A.A.A.A.A.A.A.A.A.A.A.A.A.A.A.A.A.A.A.A.A.A.A.A.A.A.A.A.A.",
"A.A.A.A.A.A.A.A.A.A.A.A.A.A.A.A.A.A.A.A.A.A.A.A.A.A.A.A.A.A.A.A.A.A.A.A.A.A.A.A.A.A.A.A.A.A.A.A.A.A.A.A.A.A.A.A.A.A.A.A.A.A.A.A.",
"A.A.A.A.A.A.A.A.A.A.A.A.A.A.A.A.A.A.A.A.A.A.A.A.A.A.A.A.A.A.A.A.A.A.A.A.A.A.A.A.A.A.A.A.A.A.A.A.A.A.A.A.A.A.A.A.A.A.A.A.A.A.A.A.",
"A.A.A.A.A.A.A.A.A.A.A.A.A.A.A.A.A.C.c.C.A.A.A.A.A.A.A.A.A.A.A.A.A.A.A.A.A.A.A.A.A.A.A.A.C.c.C.A.A.A.A.A.A.A.A.A.A.A.A.A.A.A.A.A.",
"A.A.A.A.A.A.A.A.A.A.A.A.A.A.A.A.b.' z q.A.A.A.A.A.A.A.A.A.A.A.A.A.A.A.A.A.A.A.A.A.A.A.A.q.z ' b.A.A.A.A.A.A.A.A.A.A.A.A.A.A.A.A.",
"A.A.A.A.A.A.A.A.A.A.A.A.A.A.A.t.n @   H C.A.A.A.A.A.A.A.A.A.A.A.A.A.A.A.A.A.A.A.A.A.A.C.H   # n t.A.A.A.A.A.A.A.A.A.A.A.A.A.A.A.",
"A.A.A.A.A.A.A.A.A.A.A.A.A.A.:.p       ; -.A.A.A.A.A.A.A.A.A.A.A.A.A.A.A.A.A.A.A.A.A.A.-.;       p >.A.A.A.A.A.A.A.A.A.A.A.A.A.A.",
"A.A.A.A.A.A.A.A.A.A.A.A.A.@.7           x b.A.A.A.A.A.A.A.A.A.A.A.A.A.A.A.A.A.A.A.A.b.x           8 $.A.A.A.A.A.A.A.A.A.A.A.A.A.",
"A.A.A.A.A.A.A.A.A.A.A.A.o.,             $  .A.A.A.A.A.A.A.A.A.A.A.A.A.A.A.A.A.A.A.A. .$             < #.A.A.A.A.A.A.A.A.A.A.A.A.",
"A.A.A.A.A.A.A.A.A.A.A.;.5                 a d.A.A.A.A.A.A.A.A.A.A.A.A.A.A.A.A.A.A.d.a                 8 ,.A.A.A.A.A.A.A.A.A.A.A.",
"A.A.A.A.A.A.A.A.A.A.e.p                   X ! A.A.A.A.A.A.A.A.A.A.A.A.A.A.A.A.A.A.! X                   a t.A.A.A.A.A.A.A.A.A.A.",
"A.A.A.A.A.A.A.A.A.b.v                       5 6.A.A.A.A.A.A.A.A.A.A.A.A.A.A.A.A.6.5                       M n.A.A.A.A.A.A.A.A.A.",
"A.A.A.A.A.A.A.A.A.' @                         A N.A.A.A.A.A.A.A.A.A.A.A.A.A.A.N.A                         $ } A.A.A.A.A.A.A.A.A.",
"A.A.A.A.A.A.A.A.w.0                           = =.A.A.A.A.A.A.A.A.A.A.A.A.A.A.=.=                           w r.A.A.A.A.A.A.A.A.",
"A.A.A.A.A.A.A.Z.J                               z c.A.A.A.A.A.A.A.A.A.A.A.A.c.z                               I A.A.A.A.A.A.A.A.",
"A.A.A.A.A.A.A.6.3                               @ | A.A.A.A.A.A.A.A.A.A.A.A.| @                               5 q.A.A.A.A.A.A.A.",
"A.A.A.A.A.A.A.T                                   t u.A.A.A.A.A.A.A.A.A.A.u.t                                   W A.A.A.A.A.A.A.",
"A.A.A.A.A.A.f.e                                     Y Z.A.A.A.A.A.A.A.A.Z.Y                                     i h.A.A.A.A.A.A.",
"A.A.A.A.A.A.o.#                                     2 2.A.A.A.A.A.A.A.A.2.1                                     $ %.A.A.A.A.A.A.",
"A.A.A.A.A.A.D                                         V B.A.A.A.A.A.A.B.V                                         J A.A.A.A.A.A.",
"A.A.A.A.A.l.p                                       < [ V.A.A.A.A.A.A.V.] ,                                       d v.A.A.A.A.A.",
"A.A.A.A.A.3.-                                     2 $.A.A.m.5.X.X.5.m.A.A.@.1                                     , 0.A.A.A.A.A.",
"A.A.A.A.A...O                                   @ ' A.A.7.c : o o : c 7.A.A._ +                                   # %.A.A.A.A.A.",
"A.A.A.A.A.~                                     j x.A.8.u             u 8.A.z.g                                     ' A.A.A.A.A.",
"A.A.A.A.A.H                                   X ` A.M.b                 n M.A./ .                                   Y A.A.A.A.A.",
"A.A.A.A.A.B                                   = 1.A.4.>                 > 4.A.<.&                                   S A.A.A.A.A.",
"A.A.A.A.Z.K 6 9 9 9 9 9 9 9 9 9 9 9 9 9 9 9 8 h a.A.X.o                 o X.A.u.f 8 9 9 9 9 9 9 9 9 9 9 9 9 9 9 9 6 P A.A.A.A.A.",
"A.A.A.A.A.l.i.p.p.p.p.p.p.p.p.p.p.p.p.p.p.p.p.f.V.A.X.o                 o X.A.V.f.p.p.p.p.p.p.p.p.p.p.p.p.p.p.p.p.i.l.A.A.A.A.A.",
"A.A.A.A.A.A.A.A.A.A.A.A.A.A.A.A.A.A.A.A.A.A.A.A.A.A.4.>                 > 4.A.A.A.A.A.A.A.A.A.A.A.A.A.A.A.A.A.A.A.A.A.A.A.A.A.A.",
"A.A.A.A.A.A.A.A.A.A.A.A.A.A.A.A.A.A.A.A.A.A.A.A.A.A.m.c                 c M.A.A.A.A.A.A.A.A.A.A.A.A.A.A.A.A.A.A.A.A.A.A.A.A.A.A.",
"A.A.A.A.A.A.A.A.A.A.A.A.A.A.A.A.A.A.A.A.A.A.A.A.A.A.A.6.y             u 6.A.A.A.A.A.A.A.A.A.A.A.A.A.A.A.A.A.A.A.A.A.A.A.A.A.A.A.",
"A.A.A.A.A.A.A.A.A.A.A.A.A.A.A.A.A.A.A.A.A.A.A.A.A.A.A.A.8.n ; o o ; n 8.A.A.A.A.A.A.A.A.A.A.A.A.A.A.A.A.A.A.A.A.A.A.A.A.A.A.A.A.",
"A.A.A.A.A.A.A.A.A.A.A.A.A.A.A.A.A.A.A.A.A.A.A.A.A.A.A.A.A.m.3.X.X.3.m.A.A.A.A.A.A.A.A.A.A.A.A.A.A.A.A.A.A.A.A.A.A.A.A.A.A.A.A.A.",
"A.A.A.A.A.A.A.A.A.A.A.A.A.A.A.A.A.A.A.A.A.A.A.A.A.A.A.M.b.A.A.A.A.A.A.b.M.A.A.A.A.A.A.A.A.A.A.A.A.A.A.A.A.A.A.A.A.A.A.A.A.A.A.A.",
"A.A.A.A.A.A.A.A.A.A.A.A.A.A.A.A.A.A.A.A.A.A.A.A.A.A.A. .k _ 1.u.u.1.) k  .A.A.A.A.A.A.A.A.A.A.A.A.A.A.A.A.A.A.A.A.A.A.A.A.A.A.A.",
"A.A.A.A.A.A.A.A.A.A.A.A.A.A.A.A.A.A.A.A.A.A.A.A.A.A.s.a   X = 6 6 = X   a s.A.A.A.A.A.A.A.A.A.A.A.A.A.A.A.A.A.A.A.A.A.A.A.A.A.A.",
"A.A.A.A.A.A.A.A.A.A.A.A.A.A.A.A.A.A.A.A.A.A.A.A.A.A.Q .                 . Q A.A.A.A.A.A.A.A.A.A.A.A.A.A.A.A.A.A.A.A.A.A.A.A.A.A.",
"A.A.A.A.A.A.A.A.A.A.A.A.A.A.A.A.A.A.A.A.A.A.A.A.A.5.5                     5 5.A.A.A.A.A.A.A.A.A.A.A.A.A.A.A.A.A.A.A.A.A.A.A.A.A.",
"A.A.A.A.A.A.A.A.A.A.A.A.A.A.A.A.A.A.A.A.A.A.A.A.N.Z                         Z N.A.A.A.A.A.A.A.A.A.A.A.A.A.A.A.A.A.A.A.A.A.A.A.A.",
"A.A.A.A.A.A.A.A.A.A.A.A.A.A.A.A.A.A.A.A.A.A.A.A.&.*                         * *.A.A.A.A.A.A.A.A.A.A.A.A.A.A.A.A.A.A.A.A.A.A.A.A.",
"A.A.A.A.A.A.A.A.A.A.A.A.A.A.A.A.A.A.A.A.A.A.A.x.l                             l x.A.A.A.A.A.A.A.A.A.A.A.A.A.A.A.A.A.A.A.A.A.A.A.",
"A.A.A.A.A.A.A.A.A.A.A.A.A.A.A.A.A.A.A.A.A.A.A.{ +                             @ } A.A.A.A.A.A.A.A.A.A.A.A.A.A.A.A.A.A.A.A.A.A.A.",
"A.A.A.A.A.A.A.A.A.A.A.A.A.A.A.A.A.A.A.A.A.A.u.r                                 r u.A.A.A.A.A.A.A.A.A.A.A.A.A.A.A.A.A.A.A.A.A.A.",
"A.A.A.A.A.A.A.A.A.A.A.A.A.A.A.A.A.A.A.A.A.Z.Y                                     Y Z.A.A.A.A.A.A.A.A.A.A.A.A.A.A.A.A.A.A.A.A.A.",
"A.A.A.A.A.A.A.A.A.A.A.A.A.A.A.A.A.A.A.A.A.2.2                                     2 2.A.A.A.A.A.A.A.A.A.A.A.A.A.A.A.A.A.A.A.A.A.",
"A.A.A.A.A.A.A.A.A.A.A.A.A.A.A.A.A.A.A.A.m.m                                         m m.A.A.A.A.A.A.A.A.A.A.A.A.A.A.A.A.A.A.A.A.",
"A.A.A.A.A.A.A.A.A.A.A.A.A.A.A.A.A.A.A.A.O.%                                         % O.A.A.A.A.A.A.A.A.A.A.A.A.A.A.A.A.A.A.A.A.",
"A.A.A.A.A.A.A.A.A.A.A.A.A.A.A.A.A.A.A.k.g                                             g k.A.A.A.A.A.A.A.A.A.A.A.A.A.A.A.A.A.A.A.",
"A.A.A.A.A.A.A.A.A.A.A.A.A.A.A.A.A.A.A.( o                                             o ( A.A.A.A.A.A.A.A.A.A.A.A.A.A.A.A.A.A.A.",
"A.A.A.A.A.A.A.A.A.A.A.A.A.A.A.A.A.A.y.q                                                 q y.A.A.A.A.A.A.A.A.A.A.A.A.A.A.A.A.A.A.",
"A.A.A.A.A.A.A.A.A.A.A.A.A.A.A.A.A.A.j.I 4                                           . 4 U j.A.A.A.A.A.A.A.A.A.A.A.A.A.A.A.A.A.A.",
"A.A.A.A.A.A.A.A.A.A.A.A.A.A.A.A.A.A.A.C.8.R e #                                 # r E 9.C.A.A.A.A.A.A.A.A.A.A.A.A.A.A.A.A.A.A.A.",
"A.A.A.A.A.A.A.A.A.A.A.A.A.A.A.A.A.A.A.A.A.Z.f.o.F s > +                 + > s G O.g.Z.A.A.A.A.A.A.A.A.A.A.A.A.A.A.A.A.A.A.A.A.A.",
"A.A.A.A.A.A.A.A.A.A.A.A.A.A.A.A.A.A.A.A.A.A.A.A.Z.c.7.O.^ L C N N C L ^ +.8.c.Z.A.A.A.A.A.A.A.A.A.A.A.A.A.A.A.A.A.A.A.A.A.A.A.A.",
"A.A.A.A.A.A.A.A.A.A.A.A.A.A.A.A.A.A.A.A.A.A.A.A.A.A.A.A.A.A.A.A.A.A.A.A.A.A.A.A.A.A.A.A.A.A.A.A.A.A.A.A.A.A.A.A.A.A.A.A.A.A.A.A.",
"A.A.A.A.A.A.A.A.A.A.A.A.A.A.A.A.A.A.A.A.A.A.A.A.A.A.A.A.A.A.A.A.A.A.A.A.A.A.A.A.A.A.A.A.A.A.A.A.A.A.A.A.A.A.A.A.A.A.A.A.A.A.A.A.",
"A.A.A.A.A.A.A.A.A.A.A.A.A.A.A.A.A.A.A.A.A.A.A.A.A.A.A.A.A.A.A.A.A.A.A.A.A.A.A.A.A.A.A.A.A.A.A.A.A.A.A.A.A.A.A.A.A.A.A.A.A.A.A.A.",
"A.A.A.A.A.A.A.A.A.A.A.A.A.A.A.A.A.A.A.A.A.A.A.A.A.A.A.A.A.A.A.A.A.A.A.A.A.A.A.A.A.A.A.A.A.A.A.A.A.A.A.A.A.A.A.A.A.A.A.A.A.A.A.A.",
"A.A.A.A.A.A.A.A.A.A.A.A.A.A.A.A.A.A.A.A.A.A.A.A.A.A.A.A.A.A.A.A.A.A.A.A.A.A.A.A.A.A.A.A.A.A.A.A.A.A.A.A.A.A.A.A.A.A.A.A.A.A.A.A."
};
