/* XPM */
static char *result[] = {
/* columns rows colors chars-per-pixel */
"64 64 77 1 ",
"  c #02772E",
". c #007732",
"X c #007934",
"o c #097B36",
"O c #077B38",
"+ c #0B7D3A",
"@ c #117F3E",
"# c #13803F",
"$ c #168142",
"% c #1B8444",
"& c #238749",
"* c #26894D",
"= c #298A4E",
"- c #2D8C52",
"; c #338F56",
": c #359057",
"> c #389257",
", c #349158",
"< c #3B935B",
"1 c #3F9762",
"2 c #429761",
"3 c #449863",
"4 c #489A66",
"5 c #469B68",
"6 c #4D9C6A",
"7 c #529F6D",
"8 c #54A06F",
"9 c #57A171",
"0 c #5CA475",
"q c #5EA579",
"w c #62A77A",
"e c #64A87B",
"r c #68AA7F",
"t c #6CAC82",
"y c #71AF87",
"u c #73AF88",
"i c #77B28D",
"p c #79B38C",
"a c #7EB691",
"s c #81B793",
"d c #84B995",
"f c #88BA96",
"g c #87BC9A",
"h c #8EBE9E",
"j c #91BF9E",
"k c #8EC09C",
"l c #92C09F",
"z c #94C2A2",
"x c #9AC5A7",
"c c #9CC6AA",
"v c #9FC8AC",
"b c #A6CBAE",
"n c #A6CBB1",
"m c #ABCEB3",
"M c #AED1B8",
"N c #B1D2BC",
"B c #B7D6C1",
"V c #B8D7C2",
"C c #BED8C4",
"Z c #BFDAC8",
"A c #C1DBC6",
"S c #C4DDCB",
"D c #C9DFCF",
"F c #CDE1D2",
"G c #D1E3D5",
"H c #D3E5D9",
"J c #D7E8DC",
"K c #DBE9DE",
"L c #DFECE2",
"P c #E3EEE5",
"I c #E6EEE8",
"U c #E7F0E8",
"Y c #EBF2EC",
"T c #EFF4F0",
"R c #F1F6F2",
"E c #F5F8F6",
"W c #FFFFFF",
/* pixels */
"WWWWWWWWWWWWWWWWWWWWWWWWWWWWWWWWWWWWWWWWWWWWWWWWWWWWWWWWWWWWWWWW",
"WLbbbbbbbbbbbbbbbbbbbbbbbbbbbbbbbbbbbbbbbbbbbbbbbbbbbnbbbbbbbbLW",
"Wb .XX.X....................X.............o...........XX..... bW",
"Wb.XXXXXXXXXXXXXXXXXXXXXXXXXXX.XXX.XXXXXXX.XXXXXXXXXXXXOXXXXX.bW",
"Wb.XXXXXXXXXXXXXXXXXXXXXXX..XX.XXXXXXO.X.XXXXXXXXXXXXXXXXXXXX.bW",
"Wb.XXXXXXXXXXXXX.o.o.oX.XXo.O.o.XX. XXXXo..X.oXXXXXXXXXXXXXXX.bW",
"Wb.XXXXXXXXXXXXwmmmmmmmmmmmmmmmmmmmmmmmmmmmmmmnm7.XXXXXXXXXXX.bW",
"Wb.XXXXXXXXXXX.kWWWWWWWWWWWWWWWWWWWWWWWWWWWWWWWWi.XXXXXXXXXXX.bW",
"WnXXXXXXOXXXXOXhWWWWWWWWWWWWWWWWWWWESmVYWWWWWWWWiXXXXXXXXXXXXXnW",
"Wn.XXXOXXXXXXXXlWWWWWWWWWWWWWWWWWWK8+Xo<BWWWWWWWiXXXXXXXXXXXOXbW",
"WbXXXOXXXXXXXXXhWWWWWWWWWWWWWWWWWY4.XXXX&DWWWWWWiXXXXXXXXXXXX.bW",
"WbXXXXXOXOXXXXXhWWWWWWWWWWWWWWWWWbXXXXXX.rWWWWWWiXXXOXXXXXXOX.bW",
"Wb.XOXXXXXXXXXXhWWWWWWWWWWWWWWWWWt.XXXXX.>TWWWWWiXXXXXXOXXXXX.bW",
"Wb.XXXXXXXXXXXXhWWWWWWWWWWWWWWWWWt.XXXXX.>RWWWWWiXXXOXXXXXXXX.bW",
"Wb.XXXXXXXXXXXXhWWWWWWWWWWWWWWWWWnXXXXXX.rWWWWWWi.XXXXXXXXXXX.bW",
"Wb.XXXXXXXXXXXXhWWWWWWWWWWWWWWWWWY7.XXXX&FWWWWWWiXXXXXXXXXXXX.bW",
"Wb.XXXXXXXXOXXXhWWWWWWWWWWWWWWWWWWPt%+@2AWWWWWWWi.XXXXXXXXXXXXnW",
"Wb.XXXXXOXXXXXXhWWWWWWInlgghhghgghhljmFRWWWWWWWWi.XXXXOXXXXXXXnW",
"Wb.XXXXXXXOXXXXhWWWWWN-..... ......X+3AWWWWWWWWWi.XXXOXXXXXXX.bW",
"Wb.XXXXXXXXXXXXhWWWWD&.XXXXXXXXXXXXXX.&VWWWWWWWWiXXXXXXOOXXXX.bW",
"WbXXXXXXXXOXXXXhWWWEq.XX.XXXXXXXXXXXXXX-HWWWWWWWi.XXXXXXXXXXX.bW",
"WbXXXXXXXXXXXX.hWWWC@.XXoOooOXXXXXXXXXXX6YWWWWWWi.XXXXXXXXXXX.bW",
"WbXXXXXXXXXXXX.hWWE7.X.wAAAV1XXXXXXXXXXX.yEWWWWWi.XXXXXXXXXXX.bW",
"WbXOXXXXXXXXXXXlWWN+X.%DWWWH%XXXXXXXXXXXXOxWWWWWi.XXXXXOXXXXX.bW",
"Wb.XXXXOXXXXXXXhWR4...yWWWWdXXXXXXXXX@XXXX$BWWWWiXXXXXXXXXXXXXnW",
"Wb.XXOXXXXXOXX.hWnoX.&GWWWY;XXXXXXXX@n3XXXX-hzzz5XXXXXXXXXXXXXbW",
"Wb.XXXXXOXXXXXXhWw.X.pWWWWMOXXXXXXXX3EF*XXX. .. XXXXXXXXXXXXX.bW",
"Wb.XXXXXXXXXXXXlWg..=JWWWE9.XXXXXXXXxWWM#XXXXXXXXXXOXXXOXXXXX.bW",
"Wb.XXXXXXXOXXXXhWTluSWWWWF%XXXXXXXX*LWWWz+XXXXXXXXXXXXXXXXXXX.bW",
"Wb.XXXXXXXXXXXXhWWWWWWWWWs.XXXXXXX.tWWWWEb<$++##OXXXXOXXXXXXX.bW",
"Wb.XXXXXXXXXXOXhWWWWWWWWY:.XXXXXXX+AWWWWWWYHDDFFqXXXXXXXXXXXX.bW",
"Wb.XXXXXXXXXXXXhWWWWWWWWF@XXXXXXX.3RWWWWWWWWWWWWiXXXXXXXXXXXX.bW",
"WnXXOXXXXXXXXXXlWWWWWWWWVOXXXXXXXXgWWWWWWWWWWWWWi.XXXOXXXOOXXXnW",
"WnXXXXXXOXXXXX.hWWWWWWWWmXXXXXXXX.tWWWWWWWWWWWWWi.XXXXXXXXXXXXbW",
"WbXXXXXXXXXXXX.hWWWWWWWWx.XXXOXXXX%FWWWWWWWWWWWWi.XXXXXXXXOXX.bW",
"WbXXXXXXXXXXXX.lWWWWWWWWa.XXX7#.XX.uWWWWWWWWWWWWiXXXXXXXXXXXX.bW",
"Wb..XXXXXXXXXX.hWWWWWWWWt..X+m6.XXX%GWWWWWWWWWWWiXXXXXXXXXXXX.bW",
"Wb..XXOXXOXXXX.hWWWWWWWW0.XX#GNOXXX.uWWWWWWWWWWWi.XXXXXXXXXXX.bW",
"WbXXXXXXXXOXXX.hWWWWWWWE3.XX$KE3XXXX&JWWWWWWWWWWi.XXXXXXXXXXX.bW",
"Wb.XXXXXOXXXXX.hWWWWWWWT,XX.-YWnOXXX.aWWWWWWWWWWi.XXXXXXXXXXX.bW",
"Wb.XXXXXXXXXX+%cWWWWWWWP=XX.2EWY1.XX.*LWWWWWWWWWiXXXXXXXXXXXXXnW",
"Wb.XXXXXXXXowAGIRRTRRRRD$XX.9EWWcXXXX.dWWWWWWWWWiXXXXXXXXXXXOXbW",
"Wb.XXXXXXXXaLs2,,,,,,,,-XXX.tWWWY>XXXX=PWWWWWWWWiXXXXXXXXXOXX.bW",
"Wb.XXXXXX.<J7.....X.X...XXX.aWWWWxXXXX.hWWWWWWWWiXXXOXXXXXXXX.bW",
"WbXXXXXXX.zbXXXXXXXXXXXXXXX.xWWWWI;.XXX;IWWWWWWWiXXXXXXOXXXXX.bW",
"WnXXXXXXX%F6 .. ... .... ..$DWWWWWh.XXXXzWWWWWWWiXXXXOXXXXXXX.bW",
"WbXXXXXX.wPe798887877777770mWWWWWWP-XXXX:YWWWWWWi.XXXXXXXXXXX.bW",
"WbXXXXXXXdGFGFFYEWEWEWEWWEWWWWWWWWWgXXXXXxWWWWWWiXXXXXXXXXXXX.bW",
"Wb.XXXXOX$%%$%@cWWWWWWWWWWWWWWWWWWWL*.XX.<YWWWWWi.XXXOXXXXXXXXnW",
"Wb.XXOXXXXXXXXXhWWWWWWWWWWWWWWWWWWWWsXXXXXbWWWWWi.XXXXXXXXXXXXnW",
"Wb.XXXXXXXXXXXXhWWWWWWWWWWWWWWWWWWWWJ*XXXX2TWWWWi.XXXXXXOXXXX.bW",
"Wb.XXXXXXXXXXXXhWWWWWWWWWWWWWWWWWWWWWi.XXXOnWWWWiXXXOXXXXXXXX.bW",
"Wb.XXXXXXXXXXXXhWWWWWWWWWWWWWWWWWWWWWJ*.XX.2TWWWi.XXXXOXXXXXX.bW",
"Wb.XXXXXXXXXXX.hWWWWWWWWWWWWWWWWWWWWWWZ6;--:SWWWi.XXXXXXXXXXX.bW",
"Wb.XXXXXXXXXXX.hWWWWWWWWWWWWWWWWWWWWWWWEYIIPEWWWi.XXXXXXXXXXX.bW",
"Wb.XXXXXXXXXXX%AWWWWWWWWWWWWWWWWWWWWECpww0eFWWWI1XXXXXXXXXXXX.bW",
"Wb.XXXXXXXXXX%MWWWWWWWWWWWWWWWWWWWWPw+...ofEWWU7XOXXXXXXXXXXXXnW",
"WbXXXXXXXXXX%MWWWWWWWWWWWWWWWWWWWWP6.XXXodEWWP5XXXXXXXXXXXXXXXbW",
"WbXXXXXXXXX%NWWWWWWWWWWWWWWWWWWWWP6.XXX+dWWWL5.XXXXXXXXXXXXXX.bW",
"WbXXXXXXXXOtVBBBVVBVBVBVVBVVVBVVN6.XXX.3NVBN5.XXXXXXXXXXXXXXX.bW",
"Wb.XXXXXXXXoOXooXoooOXoXOX+XX+XXXXXXXXXooX+OXXXXXXXXXXXXXXXXX.bW",
"Wb ............X.....o.... o. o o......X........XX.X....... . bW",
"WLbbbbbbnbbbbbbbbbbbbbbbbbbbbbbbbbbbbbbbbbbbbbbbbbbbbbbbbbbbbbPW",
"WWWWWWWWWWWWWWWWWWWWWWWWWWWWWWWWWWWWWWWWWWWWWWWWWWWWWWWWWWWWWWWW"
};
